<svg id="Capa_1" enable-background="new 0 0 512 512" height="512" viewBox="0 0 512 512" width="512" xmlns="http://www.w3.org/2000/svg"><g><g><g><path d="m200.785 14.372 42.934.028c1.989.001 3.899.777 5.327 2.162l154.438 149.874-111.906-.073c-3.582-.002-6.897-1.896-8.719-4.981l-84.409-142.924c-1.067-1.806.237-4.087 2.335-4.086z" fill="#e7ecf6"/></g></g><g><g><path d="m361.072 166.408-154.438-149.874c-1.427-1.385-3.338-2.161-5.327-2.162l42.411.028c1.989.001 3.899.777 5.327 2.162l154.438 149.874z" fill="#d8e2f1"/></g></g><g><g><path d="m488.739 175.36-36.93-14.912c-5.069-2.047-10.485-3.094-15.952-3.085l-195.405.306c-.834.001-1.666.064-2.49.188l-70.602 12.352c-1.626.284-3.296-.114-4.618-1.102l-50.189-37.505c-.777-.58-1.721-.893-2.69-.892l-24.157.042c-2.374.004-3.795 2.642-2.491 4.627l34.496 52.521c1.307 1.99 1.312 4.565.011 6.56l-34.313 52.641c-1.296 1.989.133 4.622 2.507 4.618l24.158-.042c.969-.002 1.912-.318 2.686-.901l50.058-37.68c1.318-.992 2.988-1.397 4.614-1.118l70.644 12.107c.825.121 1.657.18 2.491.179l195.405-.306c5.466-.009 10.879-1.076 15.941-3.14l36.878-15.04c13.646-5.567 13.613-24.9-.052-30.418z" fill="#e7ecf6"/></g></g><g><g><path d="m488.739 175.36-10.402-4.2c-.391 5.817-3.782 11.449-10.176 14.057l-36.878 15.04c-5.062 2.064-10.475 3.13-15.941 3.14l-195.405.306c-.833.001-1.666-.058-2.49-.179l-57.268-9.814c-10.164-1.742-20.595.786-28.834 6.988l-34.727 26.14-13.208 20.263c-1.296 1.989.133 4.622 2.507 4.618l24.158-.042c.969-.002 1.912-.318 2.686-.901l50.058-37.68c1.318-.992 2.988-1.397 4.614-1.118l70.644 12.107c.825.121 1.657.18 2.491.179l195.405-.306c5.466-.009 10.879-1.076 15.941-3.14l36.878-15.04c13.645-5.567 13.612-24.9-.053-30.418z" fill="#d8e2f1"/></g></g><g><g><path d="m200.785 367.814 42.934-.028c1.989-.001 3.899-.777 5.327-2.162l154.437-149.874-111.906.073c-3.582.002-6.897 1.896-8.719 4.981l-84.408 142.924c-1.067 1.806.237 4.088 2.335 4.086z" fill="#e7ecf6"/></g></g><g><g><path d="m361.072 215.778-154.438 149.874c-1.427 1.385-3.338 2.161-5.327 2.162l42.411-.028c1.989-.001 3.899-.777 5.327-2.162l154.438-149.874z" fill="#d8e2f1"/></g></g><g><g><g><circle cx="269.8" cy="190.353" fill="#365e7d" r="9.63"/></g></g><g><g><circle cx="305.437" cy="190.331" fill="#365e7d" r="9.63"/></g></g><g><g><circle cx="340.433" cy="190.308" fill="#365e7d" r="9.63"/></g></g><g><g><circle cx="376.07" cy="190.286" fill="#365e7d" r="9.63"/></g></g></g><g><path d="m139.355 441.429h-90.718v-127.855c0-2.011 1.208-3.824 3.064-4.599l36.535-15.254c3.686-1.539 7.834-1.539 11.52 0l36.535 15.254c1.855.775 3.064 2.588 3.064 4.599z" fill="#4a80aa"/></g><g><path d="m136.291 308.975-36.535-15.254c-3.686-1.539-7.834-1.539-11.52 0l-16.239 6.78 44.134 18.565c1.855.775 3.064 2.588 3.064 4.599v117.764h20.16v-127.856c0-2.01-1.208-3.824-3.064-4.598z" fill="#407093"/></g><g><path d="m502 497.628h-56.631l-100.038-10.66-100.039 10.66h-235.292c-5.523 0-10-4.477-10-10v-52.822c0-5.523 4.477-10 10-10h492c5.523 0 10 4.477 10 10v52.822c0 5.523-4.477 10-10 10z" fill="#4a80aa"/></g><g><path d="m502.033 424.806h-15.742v37.146c0 5.505-4.463 9.967-9.967 9.967h-476.324v15.742c0 5.505 4.462 9.967 9.967 9.967h235.325l100.039-10.66 100.038 10.66h56.664c5.505 0 9.967-4.463 9.967-9.967v-52.888c0-5.505-4.462-9.967-9.967-9.967z" fill="#407093"/></g><g><path d="m48.637 329.838h90.718v47.485h-90.718z" fill="#90d8f9"/></g><g><path d="m119.195 329.838h20.16v47.485h-20.16z" fill="#75cef9"/></g><g><path d="m445.369 497.628h-40.145l-7.475-3-7.475 3h-37.608l-7.334-3-7.617 3h-37.878l-7.475-3-7.475 3h-39.593v-36.309c0-2.761 2.239-5 5-5h190.077c2.761 0 5 2.239 5 5v36.309z" fill="#90d8f9"/></g><g><path d="m445.369 471.919h-200.077v25.709h39.593l7.476-3 7.475 3h37.878l7.475-3 7.476 3h37.608l7.475-3 7.476 3h40.145z" fill="#75cef9"/></g><g><path d="m284.885 453.03h14.951v44.597h-14.951z" fill="#4a80aa"/></g><g><path d="m337.714 453.03h14.951v44.597h-14.951z" fill="#4a80aa"/></g><g><path d="m390.273 453.03h14.951v44.597h-14.951z" fill="#4a80aa"/></g><g><path d="m151.283 384.798h-114.123c-4.129 0-7.475-3.346-7.475-7.475s3.346-7.475 7.475-7.475h114.123c4.129 0 7.475 3.346 7.475 7.475s-3.346 7.475-7.475 7.475z" fill="#4a80aa"/></g><g><path d="m151.283 337.315h-114.123c-4.129 0-7.475-3.346-7.475-7.475s3.346-7.475 7.475-7.475h114.123c4.129 0 7.475 3.346 7.475 7.475s-3.346 7.475-7.475 7.475z" fill="#4a80aa"/></g></g></svg>