<svg id="Layer_1" enable-background="new 0 0 512 512" height="512" viewBox="0 0 512 512" width="512" xmlns="http://www.w3.org/2000/svg"><g><g><g><g id="XMLID_773_"><g id="XMLID_774_"><g id="XMLID_775_"><g id="XMLID_776_"><g id="XMLID_777_"><g id="XMLID_778_"><g id="XMLID_779_"><g id="XMLID_780_"><g id="XMLID_781_"><g id="XMLID_782_"><g id="XMLID_783_"><g id="XMLID_784_"><g id="XMLID_785_"><g id="XMLID_786_"><g id="XMLID_787_"><circle cx="256" cy="256" fill="#ff559a" r="256"/></g></g></g></g></g></g></g></g></g></g></g></g></g></g></g></g></g><path d="m512 256c0-21.084-2.567-41.565-7.373-61.166l-15.724-16.243-363.403 14.409-36.497 51.497 118.335 118.336-79.306 63.621 81.287 81.287c15.138 2.788 30.737 4.259 46.681 4.259 141.385 0 256-114.615 256-256z" fill="#d82b7a"/><g><path d="m478.43 169.517-70.339-66.44c-15.464-14.607-35.93-22.744-57.202-22.744h-189.745c-21.265 0-41.725 8.132-57.188 22.731l-70.386 66.453 64.342 64.342 30.121-30.109v222.703h255.98v-222.659l30.076 30.064z" fill="#ffe69f"/><path d="m478.43 169.52-64.34 64.34-30.08-30.07v222.66h-128.01v-346.12h94.89c21.27 0 41.74 8.14 57.2 22.75z" fill="#ffdc6e"/><path d="m211.838 80.333h88.325v52h-88.325z" fill="#f7ce74"/><path d="m256 80.33h44.16v52h-44.16z" fill="#fbbe3d"/><g><path d="m256 158c-33.631 0-60.991-27.36-60.991-60.991v-16.675h30v16.675c0 17.088 13.903 30.991 30.991 30.991 17.089 0 30.991-13.903 30.991-30.991v-16.675h30v16.675c0 33.631-27.36 60.991-60.991 60.991z" fill="#29cc9a"/></g><g><g><path d="m316.99 80.33v16.68c0 33.63-27.36 60.99-60.99 60.99v-30c17.09 0 30.99-13.9 30.99-30.99v-16.68z" fill="#17af84"/></g></g><g><g><path d="m89.003 244.497-65.75-65.75 22.085-20.341 64.016 64.015z" fill="#29cc9a"/></g><g><g><path d="m423.497 243.997-20.851-21.576 64.018-64.018 22.239 20.187z" fill="#17af84"/></g></g></g><path d="m291 213h58v43h-58z" fill="#f9ab21"/></g></g></svg>