<svg id="color" height="512" viewBox="0 0 24 24" width="512" xmlns="http://www.w3.org/2000/svg"><path d="m8.25 24h-2.5c-3.171 0-5.75-2.58-5.75-5.75v-7.5c0-3.17 2.579-5.75 5.75-5.75h2.5c3.171 0 5.75 2.58 5.75 5.75v7.5c0 3.17-2.579 5.75-5.75 5.75z" fill="#607d8b"/><path d="m8 12.5h-2v-7.5h2z" fill="#90a4ae"/><path d="m7 16c-1.379 0-2.5-1.122-2.5-2.5v-1c0-1.378 1.121-2.5 2.5-2.5s2.5 1.122 2.5 2.5v1c0 1.378-1.121 2.5-2.5 2.5z" fill="#90a4ae"/><path d="m6 5h-.25c-3.171 0-5.75 2.58-5.75 5.75v7.5c0 3.17 2.579 5.75 5.75 5.75h1.25v-8c-1.379 0-2.5-1.122-2.5-2.5v-1c0-1.023.618-1.905 1.5-2.291z" fill="#546d79"/><path d="m7 5h-1v5.209c.306-.134.645-.209 1-.209z" fill="#7d8f97"/><path d="m7 10c-.355 0-.694.075-1 .209-.882.386-1.5 1.268-1.5 2.291v1c0 1.378 1.121 2.5 2.5 2.5z" fill="#7d8f97"/><g fill="#00bcd4"><path d="m23.25 9c-.414 0-.75-.336-.75-.75 0-3.722-3.028-6.75-6.75-6.75-.414 0-.75-.336-.75-.75s.336-.75.75-.75c4.549 0 8.25 3.701 8.25 8.25 0 .414-.336.75-.75.75z"/><path d="m20.25 9c-.414 0-.75-.336-.75-.75 0-2.068-1.683-3.75-3.75-3.75-.414 0-.75-.336-.75-.75s.336-.75.75-.75c2.894 0 5.25 2.355 5.25 5.25 0 .414-.336.75-.75.75z"/><path d="m17.25 9c-.414 0-.75-.336-.75-.75s-.337-.75-.75-.75c-.414 0-.75-.336-.75-.75s.336-.75.75-.75c1.24 0 2.25 1.009 2.25 2.25 0 .414-.336.75-.75.75z"/></g><path d="m21.735 2.578-1.061 1.061c1.132 1.207 1.826 2.829 1.826 4.611 0 .414.336.75.75.75s.75-.336.75-.75c0-2.195-.862-4.193-2.265-5.672z" fill="#00a4b9"/><path d="m19.614 4.699-1.062 1.061c.589.663.948 1.535.948 2.49 0 .414.336.75.75.75s.75-.336.75-.75c0-1.368-.526-2.616-1.386-3.551z" fill="#00a4b9"/><path d="m17.489 6.824-1.076 1.076c.055.104.087.223.087.35 0 .414.336.75.75.75s.75-.336.75-.75c0-.541-.192-1.038-.511-1.426z" fill="#00a4b9"/></svg>