<svg id="Capa_1" enable-background="new 0 0 511.999 511.999" height="512" viewBox="0 0 511.999 511.999" width="512" xmlns="http://www.w3.org/2000/svg"><g><path d="m47.711 34.228h160.467l-2.752 34.119h-154.736z" fill="#8db5ff"/><path d="m181.199 34.228v19.35c0 5.147-.923 10.132-2.634 14.769h26.86l2.753-34.119z" fill="#7784ff"/><path d="m207.393 443.652h-159.135l-2.95 34.118h165.273z" fill="#8db5ff"/><path d="m210.581 477.77-3.189-34.119h-29.07c1.918 4.879 2.962 10.169 2.962 15.661v18.458z" fill="#7784ff"/><path d="m48.69 204.821h159.333l2.558 34.119h-165.273z" fill="#8db5ff"/><path d="m210.581 273.059h-165.273l2.187 34.118h160.136z" fill="#8db5ff"/><path d="m210.581 238.94-2.558-34.119h-29.029c1.542 4.431 2.376 9.167 2.376 14.062v20.057z" fill="#7784ff"/><path d="m181.371 292.113c0 5.261-.964 10.346-2.742 15.064h29.002l2.95-34.119h-29.21z" fill="#7784ff"/><g><path d="m247.36 511.889h-34.119c-4.711 0-8.53-3.819-8.53-8.53v-44.047c0-18.609-11.906-34.93-29.627-40.611l-109.905-35.24c-38.985-12.499-65.179-48.404-65.179-89.345v-73.226c0-40.189 25.595-75.915 63.648-88.841l112.132-38.09c17.305-5.878 28.931-22.106 28.931-40.381v-44.939c0-4.711 3.819-8.53 8.53-8.53h34.119c4.711 0 8.53 3.819 8.53 8.53v44.939c0 40.207-25.579 75.909-63.649 88.84l-112.132 38.09c-17.305 5.879-28.931 22.107-28.931 40.382v73.226c0 18.61 11.906 34.93 29.627 40.611l109.906 35.241c38.985 12.499 65.179 48.404 65.179 89.345v44.047c0 4.71-3.819 8.529-8.53 8.529z" fill="#68d9c0"/><path d="m80.109 180.508 112.132-38.09c38.07-12.931 63.649-48.633 63.649-88.84v-44.939c0-4.711-3.819-8.53-8.53-8.53h-23.684c4.711 0 8.53 3.819 8.53 8.53v44.939c0 40.207-25.579 75.909-63.649 88.84l-112.131 38.09c-17.305 5.879-28.931 22.107-28.931 40.382v73.226c0 18.61 11.906 34.93 29.626 40.611l109.906 35.241c38.985 12.499 65.179 48.404 65.179 89.345v44.047c0 4.711-3.819 8.53-8.53 8.53h23.684c4.711 0 8.53-3.819 8.53-8.53v-44.047c0-40.941-26.194-76.846-65.179-89.345l-109.907-35.241c-17.72-5.681-29.627-22.001-29.627-40.611v-73.226c.001-18.275 11.628-34.503 28.932-40.382z" fill="#4fc6b9"/></g><g><path d="m42.648 511.889h-34.118c-4.711 0-8.53-3.819-8.53-8.53v-44.643c0-40.45 25.782-76.221 64.156-89.012l111.394-37.132c17.443-5.814 29.162-22.073 29.162-40.46v-73.23c0-18.497-11.812-34.788-29.393-40.537l-110.653-36.18c-38.679-12.648-64.666-48.485-64.666-89.179v-44.347c0-4.711 3.819-8.53 8.53-8.53h34.119c4.711 0 8.53 3.819 8.53 8.53v44.347c0 18.497 11.812 34.787 29.394 40.536l110.652 36.181c38.679 12.648 64.666 48.486 64.666 89.18v73.23c0 40.45-25.782 76.221-64.156 89.012l-111.395 37.131c-17.443 5.814-29.162 22.073-29.162 40.46v44.643c0 4.711-3.819 8.53-8.53 8.53z" fill="#ffdf40"/><path d="m191.224 129.703-110.652-36.182c-17.582-5.748-29.394-22.038-29.394-40.535v-44.347c0-4.711-3.819-8.53-8.53-8.53h-23.684c4.711 0 8.53 3.819 8.53 8.53v44.347c0 18.497 11.812 34.787 29.394 40.536l110.652 36.181c38.679 12.648 64.666 48.486 64.666 89.18v73.23c0 40.45-25.782 76.221-64.156 89.012l-111.394 37.131c-17.443 5.814-29.162 22.073-29.162 40.46v44.643c0 4.711-3.819 8.53-8.53 8.53h23.684c4.711 0 8.53-3.819 8.53-8.53v-44.643c0-18.387 11.719-34.645 29.162-40.46l111.394-37.132c38.374-12.79 64.156-48.561 64.156-89.012v-73.23c0-40.693-25.988-76.532-64.666-89.179z" fill="#ffbe40"/></g><g><path d="m413.812 373.23h34.121v47.266h-34.121z" fill="#cfd7e6" transform="matrix(.707 -.707 .707 .707 -154.425 420.912)"/><path d="m461.403 390.456-36.938 36.938c-3.124 3.124-3.124 8.19 0 11.314l36.939 36.939c3.124 3.124 8.189 3.124 11.314 0l36.938-36.938c3.124-3.124 3.124-8.189 0-11.314l-36.939-36.939c-3.124-3.124-8.19-3.124-11.314 0z" fill="#b37059"/><circle cx="340.401" cy="306.392" fill="#f3f5f9" r="110.886"/><circle cx="340.401" cy="306.392" fill="#8db5ff" r="76.767"/><path d="m418.809 227.984c-24.668-24.668-58.067-35.276-90.25-31.839 24.312 2.596 47.931 13.204 66.566 31.839 43.304 43.304 43.304 113.513 0 156.816-18.635 18.635-42.254 29.243-66.566 31.84 32.183 3.437 65.582-7.171 90.25-31.84 43.304-43.303 43.304-113.512 0-156.816z" fill="#cfd7e6"/><path d="m394.684 252.11c-18.011-18.012-42.745-25.186-66.124-21.555 15.535 2.413 30.473 9.588 42.44 21.555 29.979 29.979 29.979 78.586 0 108.565-11.968 11.968-26.906 19.143-42.44 21.555 23.38 3.631 48.113-3.544 66.124-21.555 29.979-29.98 29.979-78.586 0-108.565z" fill="#7784ff"/><path d="m509.487 427.226-36.602-36.602c-3.217-3.217-8.433-3.217-11.65 0l-6.077 6.077 30.525 30.525c3.217 3.217 3.217 8.433 0 11.65l-30.525 30.525 6.077 6.077c3.217 3.217 8.433 3.217 11.65 0l36.602-36.602c3.217-3.217 3.217-8.433 0-11.65z" fill="#995a4d"/><path d="m431.443 445.686 10.923 10.922 48.25-48.25.001-.002-10.922-10.922-.001.001z" fill="#ffdf40"/></g></g></svg>