<svg id="Capa_1" enable-background="new 0 0 512 512" height="512" viewBox="0 0 512 512" width="512" xmlns="http://www.w3.org/2000/svg"><g><g><g><path d="m328.085 512h-284.295c-9.8 0-17.745-7.945-17.745-17.745v-476.51c0-9.8 7.945-17.745 17.745-17.745h337.898c9.8 0 17.745 7.945 17.745 17.745v418.733z" fill="#e8edf2"/><path d="m378.837 436.477v-418.737c0-9.795-7.952-17.737-17.747-17.737h20.6c9.795 0 17.747 7.941 17.747 17.737v418.737z" fill="#d9e7ec"/><path d="m328.085 512v-55.164c0-11.244 9.115-20.358 20.358-20.358h50.99z" fill="#c5d3dd"/><path d="m399.437 436.477-17.18 18.18h-44.105c-3.657 0-7.097.968-10.063 2.657v-.474c0-11.248 9.116-20.363 20.353-20.363z" fill="#b6c4cf"/></g><g><circle cx="399.431" cy="310.806" fill="#fe646f" r="86.52"/><path d="m485.955 310.809c0 47.782-38.738 86.52-86.52 86.52-17.047 0-32.939-4.923-46.329-13.441 8.765 2.997 18.179 4.625 27.964 4.625 47.782 0 86.52-38.738 86.52-86.52 0-30.745-16.037-57.742-40.211-73.089 34.072 11.618 58.576 43.898 58.576 81.905z" fill="#fd4755"/></g><path d="m445.3 295.357h-24.97c-3.008 0-5.446-2.438-5.446-5.446v-24.97c0-3.008-2.438-5.446-5.446-5.446h-20.008c-3.008 0-5.446 2.438-5.446 5.446v24.97c0 3.008-2.438 5.446-5.446 5.446h-24.971c-3.008 0-5.446 2.438-5.446 5.446v20.008c0 3.008 2.438 5.446 5.446 5.446h24.971c3.008 0 5.446 2.438 5.446 5.446v24.971c0 3.008 2.438 5.446 5.446 5.446h20.008c3.008 0 5.446-2.438 5.446-5.446v-24.971c0-3.008 2.438-5.446 5.446-5.446h24.97c3.008 0 5.446-2.438 5.446-5.446v-20.008c0-3.008-2.439-5.446-5.446-5.446z" fill="#e8edf2"/><g fill="#d9e7ec"><path d="m402.745 326.256h17.582c-3.008 0-5.438 2.441-5.438 5.449v24.967c0 3.008-2.441 5.449-5.449 5.449h-17.592c3.008 0 5.449-2.441 5.449-5.449v-24.967c-.001-3.008 2.441-5.449 5.448-5.449z"/><path d="m420.327 295.356h-17.582c-3.008 0-5.449-2.441-5.449-5.449v-24.967c0-3.008-2.441-5.449-5.449-5.449h17.592c3.008 0 5.449 2.441 5.449 5.449v24.967c.001 3.008 2.432 5.449 5.439 5.449z"/><path d="m450.743 300.805v20.003c0 3.008-2.431 5.449-5.438 5.449h-17.592c3.008 0 5.449-2.441 5.449-5.449v-20.003c0-3.008-2.441-5.449-5.449-5.449h17.592c3.007 0 5.438 2.441 5.438 5.449z"/></g><g fill="#c5d3dd"><path d="m304.37 146.224 14.636-13.453c3.141-2.887 3.346-7.774.46-10.916-2.887-3.141-7.774-3.346-10.915-.46l-9.031 8.301v-3.129c0-4.266-3.459-7.725-7.725-7.725s-7.725 3.459-7.725 7.725v40.867c0 4.266 3.459 7.725 7.725 7.725s7.725-3.459 7.725-7.725v-4.422l10.346 9.981c1.499 1.446 3.432 2.166 5.363 2.166 2.023 0 4.045-.79 5.56-2.361 2.962-3.07 2.875-7.961-.196-10.923z"/><path d="m156.008 118.843c-4.266 0-7.725 3.459-7.725 7.725v12.007h-12.83v-12.007c0-4.266-3.459-7.725-7.725-7.725s-7.725 3.459-7.725 7.725v40.867c0 4.266 3.459 7.725 7.725 7.725s7.725-3.459 7.725-7.725v-13.41h12.83v13.41c0 4.266 3.459 7.725 7.725 7.725s7.725-3.459 7.725-7.725v-40.867c0-4.266-3.458-7.725-7.725-7.725z"/><path d="m203.677 134.666c4.266 0 7.725-3.459 7.725-7.725s-3.459-7.725-7.725-7.725h-17.062c-4.266 0-7.725 3.459-7.725 7.725v40.494c0 4.266 3.459 7.725 7.725 7.725h17.062c4.266 0 7.725-3.459 7.725-7.725s-3.459-7.725-7.725-7.725h-9.337v-4.797h8.079c4.266 0 7.725-3.459 7.725-7.725s-3.459-7.725-7.725-7.725h-8.079v-4.797z"/><path d="m102.084 155.746c-3.27-2.74-8.143-2.312-10.882.959-.274.326-.568.63-.876.904-1.588 1.414-3.575 2.101-6.076 2.101-7.007 0-12.709-5.701-12.709-12.709s5.701-12.709 12.709-12.709c2.547 0 5.002.749 7.099 2.166 3.535 2.388 8.337 1.46 10.725-2.076 2.388-3.535 1.459-8.337-2.076-10.725-4.661-3.149-10.107-4.814-15.749-4.814-15.526 0-28.159 12.632-28.159 28.159s12.633 28.158 28.16 28.158c6.281 0 11.935-2.08 16.351-6.013.866-.771 1.687-1.618 2.442-2.518 2.74-3.27 2.311-8.143-.959-10.883z"/><path d="m269.351 156.071c-3.269-2.741-8.142-2.312-10.882.959-.274.326-.568.63-.876.904-1.587 1.414-3.575 2.101-6.076 2.101-7.007 0-12.709-5.701-12.709-12.708s5.701-12.709 12.709-12.709c2.547 0 5.002.749 7.099 2.166 3.535 2.388 8.337 1.459 10.725-2.076s1.459-8.337-2.076-10.725c-4.661-3.149-10.107-4.814-15.749-4.814-15.526 0-28.159 12.632-28.159 28.159s12.632 28.158 28.159 28.158c6.281 0 11.935-2.08 16.351-6.013.866-.771 1.687-1.618 2.442-2.519 2.741-3.27 2.312-8.143-.958-10.883z"/></g><circle cx="84.698" cy="245.956" fill="#fe646f" r="20.882"/><circle cx="84.698" cy="324.313" fill="#fe646f" r="20.882"/><circle cx="84.698" cy="402.671" fill="#fe646f" r="20.882"/><path d="m105.58 245.957c0 11.536-9.352 20.878-20.878 20.878-8.106 0-15.141-4.614-18.591-11.361.855.113 1.73.165 2.616.165 11.526 0 20.878-9.352 20.878-20.878 0-3.43-.824-6.664-2.297-9.517 10.299 1.277 18.272 10.063 18.272 20.713z" fill="#fd4755"/><path d="m105.58 324.31c0 11.536-9.352 20.888-20.878 20.888-8.106 0-15.131-4.614-18.581-11.361.855.113 1.72.165 2.606.165 11.526 0 20.878-9.352 20.878-20.888 0-3.43-.824-6.664-2.307-9.517 10.299 1.277 18.282 10.073 18.282 20.713z" fill="#fd4755"/><path d="m105.58 402.672c0 11.536-9.352 20.878-20.878 20.878-8.106 0-15.141-4.614-18.591-11.361.855.113 1.73.165 2.616.165 11.526 0 20.878-9.352 20.878-20.878 0-3.43-.824-6.664-2.297-9.517 10.299 1.277 18.272 10.063 18.272 20.713z" fill="#fd4755"/><g><g><path d="m264.389 236.207h-128.467c-4.266 0-7.725-3.459-7.725-7.725s3.459-7.725 7.725-7.725h128.466c4.266 0 7.725 3.459 7.725 7.725s-3.458 7.725-7.724 7.725z" fill="#c5d3dd"/></g><g><path d="m240.278 271.156h-104.356c-4.266 0-7.725-3.459-7.725-7.725s3.459-7.725 7.725-7.725h104.356c4.266 0 7.725 3.459 7.725 7.725s-3.458 7.725-7.725 7.725z" fill="#c5d3dd"/></g></g><g><g><path d="m264.389 314.564h-128.467c-4.266 0-7.725-3.459-7.725-7.725s3.459-7.725 7.725-7.725h128.466c4.266 0 7.725 3.459 7.725 7.725.001 4.266-3.458 7.725-7.724 7.725z" fill="#c5d3dd"/></g><g><path d="m240.278 349.513h-104.356c-4.266 0-7.725-3.459-7.725-7.725s3.459-7.725 7.725-7.725h104.356c4.266 0 7.725 3.459 7.725 7.725s-3.458 7.725-7.725 7.725z" fill="#c5d3dd"/></g></g><g><g><path d="m264.389 392.921h-128.467c-4.266 0-7.725-3.459-7.725-7.725s3.459-7.725 7.725-7.725h128.466c4.266 0 7.725 3.459 7.725 7.725s-3.458 7.725-7.724 7.725z" fill="#c5d3dd"/></g><g><path d="m240.278 427.87h-104.356c-4.266 0-7.725-3.459-7.725-7.725s3.459-7.725 7.725-7.725h104.356c4.266 0 7.725 3.459 7.725 7.725s-3.458 7.725-7.725 7.725z" fill="#c5d3dd"/></g></g></g><g fill="#c5d3dd"><path d="m213.275 87.374-17.004-45.059c-.026-.069-.053-.137-.081-.206-1.322-3.213-4.419-5.288-7.893-5.288-.003 0-.006 0-.009 0-3.477.004-6.575 2.086-7.89 5.305-.023.056-.045.112-.067.169l-17.161 45.057c-1.474 3.87.468 8.203 4.339 9.677 3.871 1.476 8.202-.469 9.677-4.339l2.434-6.392h17.22l2.404 6.371c1.134 3.003 3.987 4.853 7.017 4.853.879 0 1.775-.156 2.646-.485 3.875-1.462 5.83-5.788 4.368-9.663zm-27.943-16.073 2.937-7.713 2.911 7.713z"/><path d="m234.741 36.092c-4.141 0-7.499 3.357-7.499 7.499v45.662c0 3.654 2.633 6.776 6.235 7.391.536.092.874.15 6.041.15 2.469 0 6.043-.014 11.268-.042 4.141-.024 7.48-3.399 7.457-7.541-.023-4.127-3.376-7.457-7.498-7.457-.014 0-.029 0-.043 0-2.858.016-5.862.028-8.462.034v-38.197c0-4.142-3.358-7.499-7.499-7.499z"/><path d="m63.448 36.092c-4.141 0-7.499 3.357-7.499 7.499v45.701c0 4.141 3.357 7.499 7.499 7.499 4.141 0 7.499-3.357 7.499-7.499v-16.136h16.628v16.136c0 4.141 3.357 7.499 7.499 7.499 4.141 0 7.499-3.357 7.499-7.499v-45.701c0-4.142-3.357-7.499-7.499-7.499-4.141 0-7.499 3.357-7.499 7.499v14.568h-16.628v-14.568c0-4.142-3.358-7.499-7.499-7.499z"/><path d="m321.478 36.092c-4.141 0-7.499 3.357-7.499 7.499v45.701c0 4.141 3.357 7.499 7.499 7.499 4.141 0 7.499-3.357 7.499-7.499v-16.136h16.628v16.136c0 4.141 3.357 7.499 7.499 7.499 4.141 0 7.499-3.357 7.499-7.499v-45.701c0-4.142-3.357-7.499-7.499-7.499-4.141 0-7.499 3.357-7.499 7.499v14.568h-16.628v-14.568c-.001-4.142-3.358-7.499-7.499-7.499z"/><path d="m123.901 96.791h19.081c4.141 0 7.499-3.357 7.499-7.499 0-4.141-3.357-7.499-7.499-7.499h-11.582v-7.645h10.175c4.141 0 7.499-3.357 7.499-7.499s-3.357-7.499-7.499-7.499h-10.175v-7.645h11.582c4.141 0 7.499-3.357 7.499-7.499s-3.357-7.499-7.499-7.499h-19.081c-4.141 0-7.499 3.357-7.499 7.499v45.284c.001 4.143 3.358 7.501 7.499 7.501z"/><path d="m297.056 36.092h-25.238c-4.141 0-7.499 3.357-7.499 7.499 0 4.141 3.357 7.499 7.499 7.499h5.069v38.203c0 4.141 3.357 7.499 7.499 7.499 4.141 0 7.499-3.357 7.499-7.499v-38.204h5.172c4.141 0 7.499-3.357 7.499-7.499-.001-4.141-3.359-7.498-7.5-7.498z"/></g></g></svg>