<svg height="512" viewBox="0 0 64 64" width="512" xmlns="http://www.w3.org/2000/svg"><g id="Journey-2" data-name="Journey"><ellipse cx="11" cy="58" fill="#ffcd00" rx="8" ry="3"/><ellipse cx="53" cy="26" fill="#ffcd00" rx="8" ry="3"/><path d="m19 43c0 3.18-4.14 9.03-6.46 12.06-.91 1.19-1.54 1.94-1.54 1.94s-.63-.75-1.54-1.94c-2.32-3.03-6.46-8.88-6.46-12.06a8 8 0 0 1 16 0z" fill="#006df0"/><path d="m61 11c0 3.18-4.14 9.03-6.46 12.06-.91 1.19-1.54 1.94-1.54 1.94s-.63-.75-1.54-1.94c-2.32-3.03-6.46-8.88-6.46-12.06a8 8 0 0 1 16 0z" fill="#ed1c24"/><circle cx="53" cy="11" fill="#d1e7f8" r="4"/><circle cx="11" cy="43" fill="#d1e7f8" r="4"/><path d="m57 11a4 4 0 0 1 -4 4 3.958 3.958 0 0 1 -2-.552c-1.1 1.045-2.233 2.062-3.408 3.027a65.662 65.662 0 0 0 3.868 5.585c.91 1.19 1.54 1.94 1.54 1.94s.63-.75 1.54-1.94c2.32-3.03 6.46-8.88 6.46-12.06a7.966 7.966 0 0 0 -2.172-5.47c-.8 1.107-1.631 2.2-2.5 3.249a3.981 3.981 0 0 1 .672 2.221z" fill="#cf1820"/><path d="m57 11a3.981 3.981 0 0 0 -.674-2.221 64.519 64.519 0 0 1 -5.326 5.669 3.958 3.958 0 0 0 2 .552 4 4 0 0 0 4-4z" fill="#b7cad9"/><path d="m15 43a4 4 0 0 1 -4 4 3.958 3.958 0 0 1 -2-.552c-1.1 1.045-2.229 2.062-3.4 3.027a65.662 65.662 0 0 0 3.86 5.585c.91 1.19 1.54 1.94 1.54 1.94s.63-.75 1.54-1.94c2.32-3.03 6.46-8.88 6.46-12.06a7.966 7.966 0 0 0 -2.172-5.47c-.8 1.107-1.631 2.2-2.5 3.249a3.981 3.981 0 0 1 .672 2.221z" fill="#005ece"/><path d="m15 43a3.981 3.981 0 0 0 -.674-2.221 64.519 64.519 0 0 1 -5.326 5.669 3.958 3.958 0 0 0 2 .552 4 4 0 0 0 4-4z" fill="#b7cad9"/><path d="m51 56h-29a1 1 0 0 1 0-2h29a9 9 0 0 0 0-18h-26a11 11 0 0 1 0-22h17a1 1 0 0 1 0 2h-17a9 9 0 0 0 0 18h26a11 11 0 0 1 0 22z" fill="#808285"/></g></svg>