<svg height="512" viewBox="0 0 64 64" width="512" xmlns="http://www.w3.org/2000/svg"><g id="Flat"><g id="Color_copy" data-name="Color copy"><path d="m47 16a1 1 0 0 1 -1-1v-3a1 1 0 0 1 2 0v3a1 1 0 0 1 -1 1z" fill="#ef5350"/><path d="m47 51a1 1 0 0 1 -1-1v-22a1 1 0 0 1 2 0v22a1 1 0 0 1 -1 1z" fill="#ef5350"/><path d="m33 28a14 14 0 0 1 28 0z" fill="#95d5b2"/><path d="m61 28h-28a13.857 13.857 0 0 1 1.46-6.22 16.632 16.632 0 0 0 8.54 2.22c6.18 0 11.34-2.98 12.67-6.98a13.915 13.915 0 0 1 5.33 10.98z" fill="#52b788"/><path d="m41 28c0-7.732 2.686-14 6-14s6 6.268 6 14z" fill="#fcea42"/><path d="m53 28h-12a31.332 31.332 0 0 1 .26-4.08c.57.05 1.15.08 1.74.08a16.158 16.158 0 0 0 9.27-2.7 29.513 29.513 0 0 1 .73 6.7z" fill="#fdc741"/><path d="m43.97 42.243-1.94-.486 1-4a1 1 0 0 1 .97-.757h10.857v2h-10.076z" fill="#0096c7"/><path d="m57 34-5 7h-15l-5 11h5l3-7h12v6h4v-8l4-7z" fill="#48cae4"/><path d="m60 36-4 7v8h-4v-6h-12l-3 7h-5l1.84-4.04a3.859 3.859 0 0 0 3.1-2.46 3.86 3.86 0 0 1 3.6-2.5h11.08a3.832 3.832 0 0 0 3.44-2.13l3.06-6.12z" fill="#00b4d8"/><path d="m42.888 50.31a26.934 26.934 0 0 1 -15.406-1.234l-2.035-.791a26.933 26.933 0 0 0 -17.162-.795l-5.285 1.51v12h58v-9l-5.936-1.484a26.936 26.936 0 0 0 -12.176-.206z" fill="#efad1b"/><path d="m47.27 50.31h-4.382a26.845 26.845 0 0 1 -6.738.567 6.25 6.25 0 0 0 -2.717.469l-.2.087a5.808 5.808 0 0 1 -4.013.248q-.876-.271-1.734-.6l-2.035-.791a26.933 26.933 0 0 0 -17.166-.8l-5.285 1.51v10h58v-9a68.257 68.257 0 0 0 -13.73-1.69z" fill="#d8950f"/><path d="m21 61 6.794-4.529a47.292 47.292 0 0 1 31.185-7.684l2.021.213v12z" fill="#fdc741"/><path d="m52.113 49.706a12.177 12.177 0 0 1 -3.808.973c-7.744.635-13.764 3.294-20.511 7.792l-3.794 2.529h37v-12l-2.021-.213q-.356-.038-.712-.069a12.681 12.681 0 0 0 -6.154.988z" fill="#efad1b"/><path d="m22.085 54.011-9.849-1.736-.068-12.9a24 24 0 0 1 6.372-16.412l2.76-2.988a2 2 0 0 1 3.313.584l1.573 3.753a24 24 0 0 1 .373 17.6z" fill="#ef5350"/><path d="m26.56 41.92-4.48 12.09-9.84-1.74-.03-5.02a11.939 11.939 0 0 0 9.11-7.62l1-2.71a24.023 24.023 0 0 0 -.3-17.44 2 2 0 0 1 2.59 1.08l1.58 3.75a24.018 24.018 0 0 1 .37 17.61z" fill="#e53935"/><path d="m25.067 45.967-1.608 4.336-5.083-4.054-6.163 2.071-.028-4.625 7.059-2.37z" fill="#52b788"/><path d="m25.07 45.97-1.61 4.33-5.08-4.05-6.17 2.07v-1.06a11.967 11.967 0 0 0 7.9-5.24z" fill="#40916c"/><path d="m24.06 19.8-5.7 32.31-2.01-.14 5.74-32.52a2.032 2.032 0 0 1 1.97.35z" fill="#ade8f4"/><path d="m20.15 41.95-1.79 10.16-2.01-.14 1.27-7.18a11.854 11.854 0 0 0 2.53-2.84z" fill="#48cae4"/><path d="m24.06 19.8-.72 4.07a22.507 22.507 0 0 0 -1.28-4.27l.03-.15a2.032 2.032 0 0 1 1.97.35z" fill="#48cae4"/><path d="m42.888 55.31a26.934 26.934 0 0 1 -15.406-1.234l-2.035-.791a26.933 26.933 0 0 0 -17.162-.795l-5.285 1.51v7h58v-4l-5.936-1.484a26.936 26.936 0 0 0 -12.176-.206z" fill="#fcea42"/><path d="m61 57v4h-58v-4l5.29-1.51a26.841 26.841 0 0 1 17.16.8l2.03.79a26.927 26.927 0 0 0 15.41 1.23c.44-.1.89-.18 1.34-.25a8.252 8.252 0 0 0 3.07-1.148 9.885 9.885 0 0 1 7.523-1.45l.236.058z" fill="#fdc741"/><path d="m11 3a2.369 2.369 0 0 0 4 1.072 2.368 2.368 0 0 0 2.928 2.928 2.369 2.369 0 0 0 1.072 4 2.369 2.369 0 0 0 -1.072 4 2.368 2.368 0 0 0 -2.928 2.928 2.369 2.369 0 0 0 -4 1.072 2.369 2.369 0 0 0 -4-1.072 2.368 2.368 0 0 0 -2.928-2.928 2.369 2.369 0 0 0 -1.072-4 2.369 2.369 0 0 0 1.072-4 2.368 2.368 0 0 0 2.928-2.928 2.369 2.369 0 0 0 4-1.072z" fill="#fcea42"/><path d="m11 15.859a4.382 4.382 0 0 0 -2.308-.654h-.12a4.392 4.392 0 0 0 -1.781-1.776 4.351 4.351 0 0 0 -.651-2.429 4.35 4.35 0 0 0 .651-2.43 4.4 4.4 0 0 0 1.781-1.777h.12a4.382 4.382 0 0 0 2.308-.652 4.382 4.382 0 0 0 2.308.654h.12a4.392 4.392 0 0 0 1.781 1.776 4.351 4.351 0 0 0 .651 2.429 4.35 4.35 0 0 0 -.651 2.43 4.4 4.4 0 0 0 -1.781 1.777h-.12a4.382 4.382 0 0 0 -2.308.652z" fill="#fdc741"/><circle cx="11" cy="11" fill="#ef5350" r="3"/><g fill="#fcea42"><path d="m25 16a.976.976 0 0 1 -.244-.03l-4-1a1 1 0 0 1 .486-1.94l4 1a1 1 0 0 1 -.242 1.97z"/><path d="m21 9a1 1 0 0 1 -.242-1.97l4-1a1 1 0 1 1 .486 1.94l-4 1a.976.976 0 0 1 -.244.03z"/><path d="m11 28a1 1 0 0 1 -1-1v-5a1 1 0 0 1 2 0v5a1 1 0 0 1 -1 1z"/><path d="m4 26a1 1 0 0 1 -.894-1.447l2-4a1 1 0 0 1 1.79.894l-2 4a1 1 0 0 1 -.896.553z"/><path d="m18 26a1 1 0 0 1 -.9-.553l-2-4a1 1 0 0 1 1.79-.894l2 4a1 1 0 0 1 -.89 1.447z"/><path d="m24 22a.994.994 0 0 1 -.514-.143l-5-3a1 1 0 0 1 1.03-1.714l5 3a1 1 0 0 1 -.516 1.857z"/></g></g></g></svg>