<svg id="Layer_1" enable-background="new 0 0 256 256" height="512" viewBox="0 0 256 256" width="512" xmlns="http://www.w3.org/2000/svg"><g><ellipse cx="207.374" cy="48.512" fill="#d7e057" rx="20.547" ry="20.547" transform="matrix(.121 -.993 .993 .121 134.047 248.463)"/><g fill="#3a312a"><path d="m207.374 70.559c-12.157 0-22.047-9.891-22.047-22.047s9.89-22.047 22.047-22.047c12.156 0 22.046 9.891 22.046 22.047s-9.89 22.047-22.046 22.047zm0-41.094c-10.502 0-19.047 8.544-19.047 19.047s8.544 19.047 19.047 19.047 19.046-8.544 19.046-19.047-8.544-19.047-19.046-19.047z"/><path d="m207.374 16.519c-.804 0-1.456.652-1.456 1.456v2.958c0 .804.652 1.456 1.456 1.456s1.456-.652 1.456-1.456v-2.958c0-.804-.652-1.456-1.456-1.456z"/><path d="m207.374 74.634c-.804 0-1.456.652-1.456 1.456v2.958c0 .804.652 1.456 1.456 1.456s1.456-.652 1.456-1.456v-2.958c0-.804-.652-1.456-1.456-1.456z"/><path d="m229.996 25.89c-.569-.569-1.49-.569-2.059 0l-2.092 2.092c-.569.569-.569 1.491 0 2.059.569.569 1.491.569 2.059 0l2.092-2.092c.568-.569.568-1.491 0-2.059z"/><path d="m188.903 66.983c-.569-.569-1.491-.569-2.059 0l-2.092 2.092c-.569.569-.569 1.491 0 2.059.569.569 1.491.568 2.059 0l2.092-2.092c.568-.568.568-1.49 0-2.059z"/><path d="m239.366 48.512c0-.804-.652-1.456-1.456-1.456h-2.958c-.804 0-1.456.652-1.456 1.456s.652 1.456 1.456 1.456h2.958c.804 0 1.456-.652 1.456-1.456z"/><path d="m181.252 48.512c0-.804-.652-1.456-1.456-1.456h-2.958c-.804 0-1.456.652-1.456 1.456s.652 1.456 1.456 1.456h2.958c.804 0 1.456-.652 1.456-1.456z"/><path d="m229.996 71.134c.569-.569.569-1.491 0-2.059l-2.092-2.092c-.569-.569-1.491-.569-2.059 0-.569.569-.569 1.491 0 2.059l2.092 2.092c.568.569 1.49.569 2.059 0z"/><path d="m188.903 30.041c.569-.569.568-1.49 0-2.059l-2.092-2.092c-.569-.569-1.491-.569-2.059 0-.569.569-.569 1.491 0 2.059l2.092 2.092c.568.568 1.49.568 2.059 0z"/></g><path d="m226.424 48.508c0 10.51-8.55 19.05-19.05 19.05-2.66 0-5.2-.55-7.5-1.54 6.79-2.92 11.55-9.66 11.55-17.51 0-7.84-4.76-14.58-11.55-17.5 2.3-.99 4.84-1.54 7.5-1.54 10.5 0 19.05 8.54 19.05 19.04z" fill="#b9c239"/><path d="m47.561 26.158s3.41 12.659 13.229 13.246c0 0-13.107 4.525-13.328 14.202 0 0-2.58-13.572-12.932-14.059-.001.001 12.056-1.825 13.031-13.389z" fill="#d3d751"/><path d="m47.46 55.105c-.713 0-1.335-.506-1.472-1.217-.024-.124-2.496-12.418-11.529-12.843-.771-.036-1.388-.65-1.428-1.421-.04-.77.511-1.444 1.273-1.561.441-.068 10.901-1.817 11.762-12.032.061-.726.634-1.301 1.359-1.367.724-.062 1.392.398 1.583 1.102.032.116 3.26 11.626 11.87 12.141.714.042 1.298.583 1.396 1.292.098.708-.319 1.388-.995 1.622-.121.043-12.125 4.312-12.319 12.819-.017.767-.61 1.396-1.374 1.46-.042.004-.084.005-.126.005zm-7.745-15.729c3.881 1.97 6.234 5.747 7.591 8.878 2.027-4.021 5.945-6.788 8.954-8.428-4.137-1.843-6.787-5.653-8.338-8.724-1.794 4.361-5.275 6.87-8.207 8.274z" fill="#3a312a"/><path d="m25.851 43.139s2.412 8.954 9.357 9.369c0 0-9.271 3.201-9.427 10.046 0 0-1.825-9.6-9.147-9.944 0-.001 8.528-1.292 9.217-9.471z" fill="#d3d751"/><path d="m25.779 64.054c-.713 0-1.336-.507-1.472-1.22-.016-.082-1.705-8.442-7.744-8.727-.77-.036-1.388-.65-1.428-1.421-.04-.77.511-1.444 1.274-1.561.296-.047 7.368-1.242 7.947-8.113.061-.726.635-1.303 1.36-1.368.729-.058 1.391.399 1.582 1.102.021.079 2.229 7.92 7.998 8.265.715.042 1.299.584 1.396 1.293.098.709-.32 1.389-.996 1.622-.081.028-8.287 2.953-8.417 8.662-.018.768-.611 1.398-1.376 1.461-.04.003-.082.005-.124.005zm-4.521-11.528c2.109 1.333 3.525 3.394 4.45 5.281 1.377-2.233 3.517-3.874 5.368-4.975-2.289-1.27-3.887-3.351-4.944-5.225-1.174 2.289-3.017 3.878-4.874 4.919z" fill="#3a312a"/><path d="m25.851 16.481s2.412 8.954 9.357 9.37c0 0-9.271 3.201-9.427 10.045 0 0-1.825-9.6-9.147-9.944 0 0 8.528-1.292 9.217-9.471z" fill="#d3d751"/><path d="m25.779 37.396c-.713 0-1.336-.507-1.472-1.22-.016-.082-1.705-8.442-7.744-8.727-.77-.036-1.388-.65-1.428-1.421-.04-.77.511-1.444 1.274-1.561.296-.047 7.368-1.243 7.947-8.114.061-.726.635-1.303 1.36-1.368.726-.062 1.391.399 1.582 1.102.021.079 2.229 7.921 7.998 8.266.715.042 1.299.584 1.396 1.293.098.709-.32 1.389-.996 1.622-.081.028-8.287 2.953-8.417 8.662-.018.768-.611 1.397-1.376 1.461-.041.004-.082.005-.124.005zm-4.521-11.528c2.109 1.333 3.525 3.396 4.45 5.281 1.377-2.232 3.517-3.873 5.368-4.974-2.289-1.27-3.887-3.352-4.944-5.226-1.174 2.288-3.017 3.878-4.874 4.919z" fill="#3a312a"/><path d="m62.763 114.934-45.649 79.066h170.23l-85.115-147.424-32.952 57.075z" fill="#87796f"/><path d="m187.344 195.5h-170.23c-.536 0-1.031-.286-1.299-.75s-.268-1.036 0-1.5l45.649-79.066c.414-.717 1.332-.964 2.049-.549.717.414.963 1.331.549 2.049l-44.35 76.816h165.034l-82.517-142.924-31.653 54.825c-.414.718-1.33.964-2.049.549-.717-.414-.963-1.331-.549-2.049l32.952-57.075c.268-.464.763-.75 1.299-.75s1.031.286 1.299.75l85.115 147.424c.268.464.268 1.036 0 1.5-.267.464-.763.75-1.299.75z" fill="#3a312a"/><path d="m127.326 90.046-25.097-43.47-25.097 43.47z" fill="#f3dec3"/><path d="m127.326 91.546h-50.194c-.536 0-1.031-.286-1.299-.75s-.268-1.036 0-1.5l25.097-43.47c.268-.464.763-.75 1.299-.75s1.031.286 1.299.75l25.097 43.47c.268.464.268 1.036 0 1.5s-.763.75-1.299.75zm-47.596-3h44.998l-22.499-38.97z" fill="#3a312a"/><path d="m165.606 66.681-73.507 127.319h147.015z" fill="#87796f"/><path d="m239.114 195.5h-147.015c-.536 0-1.031-.286-1.299-.75s-.268-1.036 0-1.5l73.507-127.319c.268-.464.763-.75 1.299-.75s1.031.286 1.299.75l73.508 127.319c.268.464.268 1.036 0 1.5s-.763.75-1.299.75zm-144.417-3h141.819l-70.91-122.819z" fill="#3a312a"/><path d="m187.281 104.222-21.675-37.541-21.674 37.541z" fill="#f3dec3"/><path d="m187.281 105.723h-43.349c-.536 0-1.031-.286-1.299-.75s-.268-1.036 0-1.5l21.674-37.542c.268-.464.763-.75 1.299-.75s1.031.286 1.299.75l21.675 37.542c.268.464.268 1.036 0 1.5s-.763.75-1.299.75zm-40.751-3h38.153l-19.077-33.042z" fill="#3a312a"/><path d="m102.218 16.481h34.46v20.676h-34.46z" fill="#ea6d7a"/><path d="m136.678 38.657h-34.459c-.829 0-1.5-.672-1.5-1.5v-20.677c0-.828.671-1.5 1.5-1.5h34.459c.829 0 1.5.672 1.5 1.5v20.677c0 .828-.672 1.5-1.5 1.5zm-32.96-3h31.459v-17.677h-31.459z" fill="#3a312a"/><path d="m102.218 48.125c-.829 0-1.5-.672-1.5-1.5v-30.145c0-.828.671-1.5 1.5-1.5s1.5.672 1.5 1.5v30.145c0 .828-.671 1.5-1.5 1.5z" fill="#3a312a"/><path d="m137.117 121.46h-18.234c-7.926 0-14.386 6.453-14.386 14.386v.365h6.222v-.365c0-4.503 3.662-8.164 8.164-8.164h18.234c4.503 0 8.164 3.662 8.164 8.164v.365h6.222v-.365c0-7.934-6.46-14.386-14.386-14.386z" fill="#ea6d7a"/><path d="m151.503 137.711h-6.222c-.829 0-1.5-.672-1.5-1.5v-.365c0-3.675-2.99-6.664-6.664-6.664h-18.234c-3.675 0-6.665 2.989-6.665 6.664v.365c0 .828-.671 1.5-1.5 1.5h-6.222c-.829 0-1.5-.672-1.5-1.5v-.365c0-8.76 7.126-15.886 15.886-15.886h18.234c8.76 0 15.886 7.126 15.886 15.886v.365c.001.828-.67 1.5-1.499 1.5zm-4.788-3h3.239c-.577-6.575-6.114-11.751-12.837-11.751h-18.234c-6.723 0-12.26 5.176-12.837 11.751h3.239c.563-4.796 4.653-8.529 9.598-8.529h18.234c4.945 0 9.035 3.733 9.598 8.529z" fill="#3a312a"/><path d="m141.596 231.837h47.824c3.975 0 7.198-3.222 7.198-7.197v-81.232c0-3.975-3.223-7.198-7.198-7.198h-122.84c-3.975 0-7.198 3.222-7.198 7.198v81.232c0 3.975 3.223 7.197 7.198 7.197h62.491z" fill="#8bbdd4"/><path d="m189.42 233.337h-47.824c-.829 0-1.5-.672-1.5-1.5s.671-1.5 1.5-1.5h47.824c3.142 0 5.698-2.556 5.698-5.697v-81.232c0-3.142-2.556-5.697-5.698-5.697h-122.84c-3.142 0-5.698 2.556-5.698 5.697v81.232c0 3.142 2.556 5.697 5.698 5.697h62.491c.829 0 1.5.672 1.5 1.5s-.671 1.5-1.5 1.5h-62.491c-4.796 0-8.698-3.901-8.698-8.697v-81.232c0-4.796 3.902-8.697 8.698-8.697h122.84c4.796 0 8.698 3.901 8.698 8.697v81.232c0 4.796-3.902 8.697-8.698 8.697z" fill="#3a312a"/><path d="m103.613 231.835c-.334 4.303-3.925 7.684-8.314 7.684s-7.981-3.382-8.315-7.684z" fill="#ea6d7a"/><path d="m95.298 241.02c-5.106 0-9.415-3.983-9.81-9.068-.032-.417.111-.828.395-1.135s.683-.481 1.101-.481h16.629c.418 0 .817.175 1.101.481.284.307.427.718.395 1.135-.395 5.084-4.704 9.068-9.811 9.068zm-6.491-7.685c.912 2.725 3.505 4.684 6.492 4.684 2.986 0 5.581-1.959 6.492-4.684z" fill="#3a312a"/><path d="m169.016 231.835c-.334 4.303-3.926 7.684-8.315 7.684s-7.981-3.382-8.315-7.684z" fill="#ea6d7a"/><path d="m160.702 241.02c-5.107 0-9.416-3.983-9.81-9.068-.032-.417.111-.828.395-1.135s.683-.481 1.101-.481h16.629c.418 0 .817.175 1.101.481.284.307.427.718.395 1.135-.396 5.084-4.705 9.068-9.811 9.068zm-6.492-7.685c.911 2.725 3.505 4.684 6.492 4.684 2.986 0 5.58-1.959 6.492-4.684z" fill="#3a312a"/><path d="m91.267 185.721c-.019 13.031-.043 46.116-.043 46.116h8.148v-95.627h-8.148l.046 36.57z" fill="#d3d751"/><path d="m99.372 233.337h-8.147c-.398 0-.78-.158-1.061-.439-.281-.282-.439-.664-.439-1.062 0 0 .023-33.086.043-46.117.001-.828.673-1.498 1.5-1.498h.002c.828.001 1.499.674 1.498 1.502-.017 11.371-.037 38.012-.042 44.614h5.146v-92.627h-5.146l.044 35.067c.001.828-.67 1.501-1.498 1.502 0 0-.001 0-.002 0-.828 0-1.499-.67-1.5-1.498l-.046-36.569c-.001-.398.157-.78.438-1.061.282-.282.664-.44 1.062-.44h8.147c.829 0 1.5.672 1.5 1.5v95.627c.001.827-.67 1.499-1.499 1.499z" fill="#3a312a"/><path d="m156.628 136.209h8.148v95.628h-8.148z" fill="#d3d751"/><path d="m164.775 233.337h-8.148c-.829 0-1.5-.672-1.5-1.5v-95.628c0-.828.671-1.5 1.5-1.5h8.148c.829 0 1.5.672 1.5 1.5v95.628c0 .828-.671 1.5-1.5 1.5zm-6.647-3h5.148v-92.628h-5.148z" fill="#3a312a"/></g></svg>