<svg id="Layer_1" enable-background="new 0 0 512 512" height="512" viewBox="0 0 512 512" width="512" xmlns="http://www.w3.org/2000/svg"><path d="m315.6 416.9v53.85c-.021 16.728-13.598 30.271-30.326 30.25-.001 0-.003 0-.004 0h-200.31c-16.729.027-30.313-13.513-30.34-30.242 0-.003 0-.005 0-.008v-53.85z" fill="#86909d"/><path d="m292.9 74.51-56.47.04c-2.087 28.343-26.756 49.628-55.1 47.54-25.439-1.874-45.667-22.101-47.54-47.54h-48.82c-16.736-.023-30.324 13.524-30.35 30.26v312.09h260.98v-320.158z" fill="#7cadc2"/><path d="m405.38 98.94-.12-.12c-13.69 13.68-28.58 28.57-42.22 42.21l70.01 93.69 13.33-13.32z" fill="#4a5160"/><path d="m370.489 63.33-122.46-40.99-13.13 13.32 93.608 70.181 42.112-42.251z" fill="#4a5160"/><path d="m444.07 161.71c4.81 4.806 4.814 12.601.008 17.412-.003.003-.005.005-.008.008l-8.71 8.71-.19.07-8.75-26.12.23-.08c4.811-4.81 12.609-4.81 17.42 0z" fill="#6d7486"/><path d="m307.01 24.65c4.81 4.811 4.81 12.609 0 17.42l-.08.23-26.12-8.75.07-.19 8.71-8.71c4.806-4.81 12.601-4.814 17.412-.008.003.003.005.005.008.008z" fill="#6d7486"/><path d="m280.89 152.72-.51.51-22.36 42.78-.29-.15-36.81-36.81 10.53-10.52z" fill="#4a5160"/><path d="m315.6 241.31-5.84 5.83-36.41-36.41-.15-.28 42.78-22.36.52-.52 3.79 49.05z" fill="#4a5160"/><path d="m85 470.75v-53.75h-30v53.75c-.156 16.55 13.135 30.093 29.685 30.249.091.001.183.001.275.001h30c-16.551-.004-29.965-13.424-29.961-29.975 0-.091 0-.183.001-.275z" fill="#596068"/><path d="m114.97 75h-30c-16.346-.205-29.764 12.881-29.968 29.227-.002.194-.003.389-.002.583v312.19h30v-312.19c-.117-16.347 13.04-29.694 29.387-29.812.194-.001.389 0 .583.002z" fill="#608491"/><g fill="#f3ce7d"><path d="m217.347 260.115c-3.314 0-6-2.687-6-6 0-1.591.632-3.117 1.757-4.242l8.133-8.133c2.343-2.343 6.142-2.343 8.485.001 2.343 2.343 2.343 6.142 0 8.485l-8.133 8.132c-1.124 1.127-2.651 1.759-4.242 1.757z"/><path d="m179.7 298.277c-3.314 0-6-2.686-6.001-5.999 0-1.592.632-3.118 1.758-4.244l22.283-22.284c2.343-2.343 6.142-2.344 8.485-.001s2.344 6.142.001 8.486l-22.279 22.285c-1.125 1.127-2.654 1.76-4.247 1.757z"/><path d="m140.641 337.34c-3.314-.002-5.998-2.691-5.996-6.004.001-1.589.632-3.112 1.755-4.236l5.837-5.837c2.343-2.343 6.142-2.343 8.485 0s2.343 6.142 0 8.486l-5.837 5.837c-1.125 1.126-2.652 1.757-4.244 1.754z"/><path d="m161.541 316.44c-3.314-.002-5.998-2.691-5.996-6.004.001-1.589.632-3.112 1.755-4.236l2.057-2.058c2.343-2.344 6.142-2.344 8.486-.001s2.344 6.142.001 8.486l-2.058 2.058c-1.125 1.126-2.653 1.758-4.245 1.755z"/><path d="m190.659 242.974c-3.314 0-6-2.687-6-6 0-1.591.632-3.118 1.758-4.243l26.822-26.822c2.362-2.324 6.161-2.293 8.485.069 2.297 2.335 2.297 6.081 0 8.416l-26.824 26.822c-1.123 1.127-2.65 1.76-4.241 1.758z"/><path d="m165.829 268.322c-3.314 0-6-2.687-6-6 0-1.591.632-3.118 1.758-4.243l7.543-7.542c2.311-2.375 6.11-2.426 8.484-.115s2.426 6.11.115 8.485c-.038.039-.077.078-.116.116l-7.543 7.542c-1.123 1.126-2.649 1.759-4.241 1.757z"/><path d="m140.137 294.015c-3.314 0-6-2.687-6-6 0-1.591.632-3.118 1.758-4.243l10.428-10.429c2.343-2.343 6.142-2.343 8.485 0s2.343 6.142 0 8.486l-10.429 10.428c-1.124 1.127-2.65 1.76-4.242 1.758z"/><path d="m187.6 202.2c-3.314 0-6-2.686-6.001-5.999 0-1.592.632-3.118 1.758-4.244l16.531-16.529c2.311-2.375 6.11-2.426 8.484-.115 2.375 2.311 2.426 6.11.115 8.485-.038.039-.076.077-.115.115l-16.53 16.53c-1.124 1.127-2.651 1.759-4.242 1.757z"/><path d="m150.565 239.756c-3.314 0-6-2.687-6-6 0-1.591.632-3.117 1.757-4.242l22.3-22.3c2.343-2.343 6.143-2.343 8.486 0s2.343 6.143 0 8.486l-22.3 22.3c-1.125 1.126-2.651 1.758-4.243 1.756z"/><path d="m126.786 263.536c-3.314 0-6-2.686-6.001-5.999 0-1.592.632-3.118 1.758-4.244l7.542-7.543c2.343-2.343 6.143-2.343 8.486 0s2.343 6.143 0 8.486l-7.542 7.542c-1.124 1.127-2.651 1.76-4.243 1.758z"/><path d="m247.825 273.466c-3.314 0-6-2.687-6-6 0-1.591.632-3.118 1.758-4.243l13.485-13.485c2.362-2.324 6.161-2.292 8.485.07 2.297 2.335 2.297 6.08 0 8.415l-13.486 13.485c-1.124 1.127-2.65 1.76-4.242 1.758z"/><path d="m215.814 306c-3.314 0-6-2.686-6.001-5.999 0-1.592.632-3.118 1.758-4.244l14.514-14.514c2.343-2.343 6.143-2.343 8.486 0s2.343 6.143 0 8.486l-14.513 14.514c-1.125 1.127-2.652 1.759-4.244 1.757z"/><path d="m183.966 337.844c-3.314 0-6-2.687-6-6 0-1.591.632-3.118 1.758-4.243l16.107-16.101c2.311-2.375 6.11-2.426 8.484-.115 2.375 2.311 2.426 6.11.115 8.484-.038.039-.077.078-.116.116l-16.107 16.106c-1.123 1.125-2.65 1.756-4.241 1.753z"/><path d="m261.311 303.81c-3.314 0-6-2.686-6.001-5.999 0-1.592.632-3.118 1.758-4.244l30.478-30.479c2.343-2.343 6.142-2.343 8.486 0 2.343 2.343 2.343 6.142-.001 8.486l-30.477 30.479c-1.124 1.126-2.651 1.759-4.243 1.757z"/><path d="m231.573 334.066c-3.314 0-6-2.687-6-6 0-1.591.632-3.118 1.758-4.243l11.825-11.823c2.324-2.362 6.123-2.394 8.485-.07s2.394 6.123.07 8.485c-.023.023-.046.047-.07.07l-11.826 11.825c-1.124 1.126-2.651 1.758-4.242 1.756z"/></g><path d="m83 129c-3.314 0-6-2.686-6-6v-2c0-3.314 2.686-6 6-6s6 2.686 6 6v2c0 3.314-2.686 6-6 6z" fill="#f4f8fc"/><path d="m83 247c-3.314 0-6-2.686-6-6v-92c0-3.314 2.686-6 6-6s6 2.686 6 6v92c0 3.314-2.686 6-6 6z" fill="#f4f8fc"/><path d="m437.46 11.29-.64.12c-11.8 2.173-22.654 7.902-31.105 16.42l-124.575 124.52-.51.445-26.57 50.8c-2.188 3.93-.775 8.89 3.155 11.078 2.471 1.375 5.478 1.371 7.945-.012l50.82-26.566.52-.521 124.38-124.384c8.547-8.556 14.285-19.512 16.45-31.41l.1-.52c1.708-9.321-4.463-18.262-13.784-19.97-2.045-.375-4.141-.375-6.186 0z" fill="#6d7486"/></svg>