<svg id="Capa_1" enable-background="new 0 0 512 512" height="512" viewBox="0 0 512 512" width="512" xmlns="http://www.w3.org/2000/svg"><g><g><path d="m499.607 380.509h-487.216c-6.843 0-12.391-5.547-12.391-12.391v-224.236c0-6.843 5.548-12.391 12.391-12.391h487.216c6.843 0 12.391 5.548 12.391 12.391v224.236c-.001 6.844-5.548 12.391-12.391 12.391z" fill="#fee97d"/></g><path d="m478.992 131.494c6.845 0 12.391 5.546 12.391 12.391v224.23c0 6.845-5.546 12.391-12.391 12.391h20.617c6.845 0 12.391-5.546 12.391-12.391v-224.23c0-6.845-5.546-12.391-12.391-12.391z" fill="#fedf30"/><path d="m511.997 340.669h-439.046c-2.492 0-4.512-2.02-4.512-4.512v-160.314c0-2.492 2.02-4.512 4.512-4.512h439.046z" fill="#8ac9fe"/><path d="m491.383 171.336h20.617v169.327h-20.617z" fill="#60b7ff"/><g><g><path d="m39.424 178.832h-10.408c-4.143 0-7.5-3.358-7.5-7.5s3.357-7.5 7.5-7.5h10.408c4.143 0 7.5 3.358 7.5 7.5s-3.358 7.5-7.5 7.5z" fill="#fac600"/></g><g><path d="m39.424 212.699h-10.408c-4.143 0-7.5-3.358-7.5-7.5s3.357-7.5 7.5-7.5h10.408c4.143 0 7.5 3.358 7.5 7.5s-3.358 7.5-7.5 7.5z" fill="#fac600"/></g><g><path d="m39.424 246.566h-10.408c-4.143 0-7.5-3.358-7.5-7.5s3.357-7.5 7.5-7.5h10.408c4.143 0 7.5 3.358 7.5 7.5s-3.358 7.5-7.5 7.5z" fill="#fac600"/></g><g><path d="m39.424 280.434h-10.408c-4.143 0-7.5-3.358-7.5-7.5s3.357-7.5 7.5-7.5h10.408c4.143 0 7.5 3.358 7.5 7.5s-3.358 7.5-7.5 7.5z" fill="#fac600"/></g><g><path d="m39.424 314.301h-10.408c-4.143 0-7.5-3.358-7.5-7.5s3.357-7.5 7.5-7.5h10.408c4.143 0 7.5 3.358 7.5 7.5s-3.358 7.5-7.5 7.5z" fill="#fac600"/></g><g><path d="m39.424 348.168h-10.408c-4.143 0-7.5-3.358-7.5-7.5s3.357-7.5 7.5-7.5h10.408c4.143 0 7.5 3.358 7.5 7.5s-3.358 7.5-7.5 7.5z" fill="#fac600"/></g></g><g><g><path d="m382.922 215.352h-57.065c-4.143 0-7.5-3.358-7.5-7.5s3.357-7.5 7.5-7.5h57.065c4.143 0 7.5 3.358 7.5 7.5s-3.358 7.5-7.5 7.5z" fill="#26a6fe"/></g><g><path d="m354.39 243.913h-28.533c-4.143 0-7.5-3.358-7.5-7.5s3.357-7.5 7.5-7.5h28.533c4.143 0 7.5 3.358 7.5 7.5s-3.358 7.5-7.5 7.5z" fill="#26a6fe"/></g><g><path d="m460.776 215.352h-27.311c-4.143 0-7.5-3.358-7.5-7.5s3.357-7.5 7.5-7.5h27.311c4.143 0 7.5 3.358 7.5 7.5s-3.357 7.5-7.5 7.5z" fill="#26a6fe"/></g><g><path d="m461.999 243.913h-28.533c-4.143 0-7.5-3.358-7.5-7.5s3.357-7.5 7.5-7.5h28.533c4.143 0 7.5 3.358 7.5 7.5s-3.357 7.5-7.5 7.5z" fill="#26a6fe"/></g><g><path d="m382.922 283.087h-57.065c-4.143 0-7.5-3.358-7.5-7.5s3.357-7.5 7.5-7.5h57.065c4.143 0 7.5 3.358 7.5 7.5s-3.358 7.5-7.5 7.5z" fill="#26a6fe"/></g><g><path d="m354.39 311.648h-28.533c-4.143 0-7.5-3.358-7.5-7.5s3.357-7.5 7.5-7.5h28.533c4.143 0 7.5 3.358 7.5 7.5s-3.358 7.5-7.5 7.5z" fill="#26a6fe"/></g><g><path d="m461.999 283.087h-29.756c-4.143 0-7.5-3.358-7.5-7.5s3.357-7.5 7.5-7.5h29.756c4.143 0 7.5 3.358 7.5 7.5s-3.357 7.5-7.5 7.5z" fill="#26a6fe"/></g><g><path d="m460.776 311.648h-28.533c-4.143 0-7.5-3.358-7.5-7.5s3.357-7.5 7.5-7.5h28.533c4.143 0 7.5 3.358 7.5 7.5s-3.357 7.5-7.5 7.5z" fill="#26a6fe"/></g></g><path d="m269.515 220.692c2.639 1.469 4.851 3.632 6.343 6.784 2.737 5.785.712 12.904-4.895 16.105-.068.039-.137.078-.206.116-.097.053-87.048 48.067-87.048 48.067-6.234 3.443-13.254 5.263-20.299 5.263-11.816 0-23.157-5.087-31.115-13.957l-4.937-5.504-7.917-8.856c-2.838-3.175-2.041-8.155 1.646-10.286l2.019-1.166c8.12-4.692 18.214-4.293 25.938 1.024l4.179 2.877c.666.459 1.821 1.29 2.417 1.837 2.416 2.217 5.969 2.667 8.893 1.051l23.5-14.166c2.372-1.452 2.852-4.697 1.002-6.774l-13.615-15.279c-1.746-1.959-1.344-5.011.85-6.452l5.34-3.507c5.76-3.783 13.195-3.865 19.037-.209l15.56 9.735c3.185 1.993 7.174 2.216 10.559.587 3.639-1.751 6.62-2.843 10.715-5.049 9.467-5.101 22.071-7.787 32.034-2.241z" fill="#8d9ca8"/><path d="m270.967 243.578c-.072.041-.144.083-.206.113-.103.062-87.055 48.068-87.055 48.068-6.237 3.443-13.247 5.268-20.298 5.268-10.309 0-20.256-3.876-27.915-10.752 2.907.639 5.907.979 8.927.979 7.051 0 14.071-1.825 20.308-5.268 0 0 86.952-48.017 87.045-48.068.072-.031.134-.072.206-.113 5.608-3.195 7.628-10.319 4.897-16.102-.01-.031-.031-.062-.041-.093 4.402-.021 8.742.887 12.679 3.082 2.639 1.464 4.855 3.629 6.34 6.783 2.741 5.784.72 12.908-4.887 16.103z" fill="#7a8c98"/></g></svg>