<svg height="512" viewBox="0 0 512 512" width="512" xmlns="http://www.w3.org/2000/svg"><g id="BULINE"><path d="m512 256c0 141.38-114.62 256-256 256a257.57 257.57 0 0 1 -51.26-5.13l-2.25-.48a256.11 256.11 0 0 1 -202.49-250.39c0-141.38 114.62-256 256-256s256 114.62 256 256z" fill="#dc7da7"/></g><g id="Icons"><rect fill="#80affb" height="300.31" rx="12" width="24" x="340.82" y="46.98"/><path d="m354.54 47.17v294.63a8.86 8.86 0 0 1 -8.86 8.86h-175.57a8.86 8.86 0 0 1 -8.86-8.86v-294.63a8.86 8.86 0 0 1 8.86-8.86h175.57a8.86 8.86 0 0 1 8.86 8.86z" fill="#44495f"/><path d="m354.54 47.17v294.63a8.86 8.86 0 0 1 -8.86 8.86h-154.33a8.86 8.86 0 0 1 -8.86-8.86v-294.63a8.86 8.86 0 0 1 8.86-8.86h154.33a8.86 8.86 0 0 1 8.86 8.86z" fill="#4b506d"/><path d="m308 170.62a50.54 50.54 0 0 1 -43.07 50 51.08 51.08 0 0 1 -7.46.55 50.53 50.53 0 0 1 0-101.06 51.08 51.08 0 0 1 7.46.55 50.53 50.53 0 0 1 43.07 49.96z" fill="#d89d2c"/><ellipse cx="264.9" cy="170.62" fill="#eaac2e" rx="43.07" ry="49.98"/><path d="m204.74 506.87v-121.75h-105.5v38.15a257.24 257.24 0 0 0 65.06 71.81 253.85 253.85 0 0 0 38.19 11.31z" fill="#ecbca1"/><path d="m393 168.66v160.58c0 4.17-2.19 7.54-4.88 7.54h-231.5c-2.69 0-4.88-3.37-4.88-7.54v-160.58c0-4.17 2.19-7.54 4.88-7.54h231.46c2.69 0 4.92 3.37 4.92 7.54z" fill="#d7d7d7"/><path d="m393 168.66v160.58c0 4.17-2.24 7.54-5 7.54h-209.9c-2.75 0-5-3.37-5-7.54v-160.58c0-4.17 2.23-7.54 5-7.54h209.9c2.72 0 5 3.37 5 7.54z" fill="#fff"/><path d="m151.74 170.62v198.17h-59v-139.17a44.5 44.5 0 0 1 44.5-44.5z" fill="#dfb39d"/><path d="m218.74 347.29v10.71a48.61 48.61 0 0 1 -14 34.22v18.92a48.58 48.58 0 0 1 -23.83 6.2h-61.84a15.33 15.33 0 0 1 -15.33-15.34v-54.71z" fill="#dfb39d"/><path d="m218.74 336.79v21.21a48.85 48.85 0 0 1 -48.83 48.84h-61.84a15.47 15.47 0 0 1 -3.69-.45 15.06 15.06 0 0 1 -5.14-2.39 15.3 15.3 0 0 1 -6.5-12.53v-54.68z" fill="#dfb39d"/><rect fill="#576797" height="20.57" rx="4.56" width="20.57" x="239.15" y="302.36"/><path d="m248.26 290.12a30.59 30.59 0 0 0 -37.77-21.12l-66.75 19v-109.38l-6.5 6.5a44.5 44.5 0 0 0 -44.5 44.5v161.83a15.3 15.3 0 0 0 6.5 12.55 15.06 15.06 0 0 0 5.14 2.36 15.47 15.47 0 0 0 3.69.45h49.84a48.85 48.85 0 0 0 48.83-48.81v-21.21h-10.9l31.35-8.9a30.57 30.57 0 0 0 21.07-37.77z" fill="#ecbca1"/><path d="m214.91 282.14h15.53a3.81 3.81 0 0 1 3.81 3.81v21.87a3.81 3.81 0 0 1 -3.81 3.81h-15.53a11.67 11.67 0 0 1 -11.67-11.63v-6.15a11.67 11.67 0 0 1 11.67-11.67z" fill="#ecd7cc" transform="matrix(.953 -.303 .303 .953 -79.75 80.34)"/><rect fill="#d7d7d7" height="75.91" rx="11" width="65.06" x="174.95" y="178.62"/><g fill="#576797"><rect height="12.36" rx="6.18" width="117.38" x="257.44" y="170.62"/><rect height="12.36" rx="6.18" width="117.38" x="257.44" y="264.8"/><rect height="12.36" rx="3.76" width="43.38" x="257.44" y="201.8"/><rect height="12.36" rx="3.76" width="43.38" x="325.44" y="201.8"/><rect height="12.36" rx="3.76" width="43.38" x="257.44" y="236.13"/><rect height="12.36" rx="3.76" width="43.38" x="325.44" y="236.13"/><rect height="20.57" rx="4.56" width="20.57" x="354.53" y="302.36"/><rect height="20.57" rx="4.56" width="20.57" x="325.44" y="302.36"/><rect height="20.57" rx="4.56" width="20.57" x="295.56" y="302.36"/><rect height="20.57" rx="4.56" width="20.57" x="266.88" y="302.36"/></g><rect fill="#dc7da7" height="37" rx="16.17" width="33.67" x="190.08" y="189.64"/><path d="m206.91 226.31a22.1 22.1 0 0 1 22.1 22.1v6.13a0 0 0 0 1 0 0h-44.19a0 0 0 0 1 0 0v-6.13a22.1 22.1 0 0 1 22.09-22.1z" fill="#dc7da7"/><path d="m202.49 423.27v83.12a254.67 254.67 0 0 1 -103.25-48v-35.12z" fill="#ecbca1"/></g></svg>