<?xml version="1.0" encoding="iso-8859-1"?>
<!-- Generator: Adobe Illustrator 19.0.0, SVG Export Plug-In . SVG Version: 6.00 Build 0)  -->
<svg version="1.1" id="Capa_1" xmlns="http://www.w3.org/2000/svg" xmlns:xlink="http://www.w3.org/1999/xlink" x="0px" y="0px"
	 viewBox="0 0 512 512" style="enable-background:new 0 0 512 512;" xml:space="preserve">
<circle style="fill:#DD544C;" cx="256" cy="256" r="256"/>
<path style="fill:#D8E0C9;" d="M479.318,113.531l-147.729,16.674c-6.501,0.734-11.177,6.599-10.443,13.101
	c-0.734-6.501-6.599-11.177-13.101-10.443L55.256,161.395c-6.502,0.734-11.177,6.599-10.443,13.101l19.325,171.219
	c0.734,6.501,6.599,11.177,13.101,10.443l252.789-28.532c6.502-0.734,11.177-6.599,10.443-13.101
	c0.734,6.501,6.599,11.177,13.101,10.443l147.729-16.674c6.501-0.734,11.177-6.599,10.443-13.101l-19.325-171.219
	C491.685,117.473,485.819,112.797,479.318,113.531z"/>
<path style="fill:#63B472;" d="M353.572,324.968l147.729-16.674c6.501-0.734,11.177-6.599,10.443-13.101l-19.325-171.219
	c-0.734-6.501-6.599-11.177-13.101-10.443l-147.729,16.674c-6.501,0.734-11.177,6.599-10.443,13.101l19.325,171.219
	C341.205,321.027,347.07,325.702,353.572,324.968z"/>
<g>
	<path style="fill:#C7CEB6;" d="M316.101,157.615l0.841,7.453c0.431,3.819,3.66,6.638,7.412,6.655l-2.511-22.246
		C318.189,150.328,315.669,153.796,316.101,157.615z"/>
	<path style="fill:#C7CEB6;" d="M331.75,291.406c-0.25,0.899-0.341,1.858-0.229,2.842c0.001,0.013,0.005,0.025,0.006,0.038
		l-0.004-0.038C331.411,293.264,331.501,292.305,331.75,291.406z"/>
	<path style="fill:#C7CEB6;" d="M320.585,197.363l1.823,16.147c0.43,3.808,3.67,6.635,7.413,6.654l-3.492-30.941
		C322.684,190.075,320.154,193.545,320.585,197.363z"/>
	<path style="fill:#C7CEB6;" d="M326.053,245.805l1.823,16.147c0.43,3.808,3.67,6.635,7.413,6.654l-3.492-30.941
		C328.151,238.518,325.622,241.988,326.053,245.805z"/>
	<path style="fill:#C7CEB6;" d="M337.264,286.109L337.264,286.109c-2.713,0.632-4.796,2.707-5.514,5.298
		C332.471,288.816,334.558,286.741,337.264,286.109z"/>
	<path style="fill:#C7CEB6;" d="M331.526,294.286l0.837,7.414c0.431,3.819,3.66,6.638,7.412,6.655l-0.841-7.453
		C335.203,300.884,331.975,298.083,331.526,294.286z"/>
	<path style="fill:#C7CEB6;" d="M338.934,300.902l-1.67-14.793c-2.706,0.632-4.793,2.707-5.514,5.298
		c-0.249,0.899-0.339,1.858-0.228,2.841l0.004,0.038C331.975,298.083,335.203,300.884,338.934,300.902z"/>
</g>
<g>
	<path style="fill:#459651;" d="M331.847,163.386l-0.841-7.453c-0.465-4.116-4.177-7.076-8.294-6.611
		c-0.297,0.034-0.586,0.088-0.87,0.155l2.511,22.246c0.292,0.001,0.585-0.01,0.882-0.043
		C329.352,171.215,332.312,167.502,331.847,163.386z"/>
	<path style="fill:#459651;" d="M337.313,211.828l-1.823-16.147c-0.464-4.115-4.179-7.076-8.294-6.612
		c-0.296,0.033-0.584,0.088-0.868,0.155l3.492,30.941c0.291,0.001,0.584-0.009,0.88-0.042
		C334.816,219.658,337.776,215.932,337.313,211.828z"/>
	<path style="fill:#459651;" d="M342.78,260.271l-1.823-16.147c-0.464-4.114-4.179-7.076-8.294-6.611
		c-0.296,0.033-0.584,0.088-0.868,0.155l3.492,30.941c0.291,0.001,0.584-0.009,0.88-0.042
		C340.283,268.1,343.244,264.374,342.78,260.271z"/>
</g>
<g>
	<path style="fill:#DD544C;" d="M338.132,285.954c-0.153,0.017-0.3,0.048-0.449,0.074
		C337.832,286.002,337.98,285.971,338.132,285.954L338.132,285.954z"/>
	<path style="fill:#DD544C;" d="M337.682,286.028c-0.14,0.025-0.281,0.049-0.418,0.081l0,0
		C337.401,286.076,337.542,286.053,337.682,286.028z"/>
</g>
<path style="fill:#459651;" d="M338.134,285.954C338.133,285.954,338.133,285.954,338.134,285.954
	c-0.154,0.017-0.302,0.048-0.451,0.074c-0.14,0.025-0.281,0.049-0.418,0.081l1.67,14.793l0.841,7.453
	c0.292,0.001,0.585-0.01,0.882-0.043c4.116-0.465,7.076-4.177,6.612-8.294l-0.841-7.453
	C345.963,288.449,342.25,285.489,338.134,285.954z"/>
<circle style="fill:#63B472;" cx="143.68" cy="219.85" r="43"/>
<path style="fill:#459651;" d="M120.822,222.426c-2.277-20.176,9.803-38.653,28.102-45.256c-3.276-0.4-6.647-0.439-10.069-0.052
	c-23.598,2.664-40.569,23.953-37.906,47.551s23.953,40.569,47.551,37.906c3.423-0.386,6.7-1.175,9.804-2.296
	C138.994,257.921,123.099,242.602,120.822,222.426z"/>
<g>
	<path style="fill:#C7CEB6;" d="M282.154,190.631l-63.703,7.19c-4.116,0.465-7.829-2.495-8.294-6.611
		c-0.465-4.116,2.496-7.829,6.612-8.294l63.703-7.19c4.116-0.465,7.829,2.495,8.294,6.611
		C289.23,186.453,286.27,190.166,282.154,190.631z"/>
	<path style="fill:#C7CEB6;" d="M287.874,241.309l-63.703,7.19c-4.116,0.465-7.829-2.495-8.294-6.612
		c-0.465-4.116,2.496-7.829,6.611-8.294l63.703-7.19c4.116-0.465,7.829,2.495,8.294,6.611
		C294.95,237.132,291.99,240.844,287.874,241.309z"/>
	<path style="fill:#C7CEB6;" d="M293.594,291.987l-172.783,19.502c-4.116,0.465-7.829-2.495-8.294-6.612
		c-0.465-4.116,2.496-7.829,6.612-8.294l172.783-19.502c4.116-0.465,7.829,2.495,8.294,6.612
		C300.67,287.81,297.71,291.523,293.594,291.987z"/>
</g>
<g>
	<path style="fill:#D8E0C9;" d="M471.366,169.275l-104.338,11.776c-4.116,0.465-7.829-2.495-8.294-6.611s2.495-7.829,6.612-8.294
		l104.337-11.776c4.116-0.465,7.829,2.495,8.294,6.612C478.443,165.097,475.483,168.81,471.366,169.275z"/>
	<path style="fill:#D8E0C9;" d="M477.086,219.953l-104.338,11.776c-4.116,0.465-7.829-2.495-8.294-6.612
		c-0.465-4.116,2.495-7.829,6.612-8.294l104.337-11.776c4.116-0.465,7.829,2.495,8.294,6.611
		C484.163,215.775,481.203,219.488,477.086,219.953z"/>
	<path style="fill:#D8E0C9;" d="M482.806,270.631l-104.338,11.776c-4.116,0.465-7.829-2.495-8.294-6.612
		c-0.465-4.116,2.495-7.829,6.612-8.294l104.337-11.776c4.116-0.465,7.829,2.495,8.294,6.611
		C489.883,266.454,486.923,270.166,482.806,270.631z"/>
</g>
<path style="fill:#63B472;" d="M69.434,159.794l-14.178,1.6c-6.502,0.734-11.177,6.599-10.443,13.101l19.325,171.219
	c0.734,6.501,6.599,11.177,13.101,10.443l14.178-1.6L69.434,159.794z"/>
<path style="fill:#FFFBEB;" d="M438.762,201.85l-148.667,0.242c-6.543,0.011-11.838,5.323-11.827,11.866
	c-0.011-6.543-5.323-11.838-11.866-11.827l-254.394,0.414c-6.543,0.011-11.838,5.323-11.827,11.866l0.28,172.306
	c0.011,6.543,5.323,11.838,11.866,11.827l254.394-0.414c6.543-0.011,11.838-5.323,11.828-11.866
	c0.011,6.543,5.323,11.838,11.866,11.827l148.667-0.242c6.543-0.011,11.838-5.323,11.827-11.866l-0.28-172.306
	C450.617,207.135,445.305,201.84,438.762,201.85z"/>
<path style="fill:#70D587;" d="M290.414,398.092l148.667-0.242c6.543-0.011,11.838-5.323,11.827-11.866l-0.28-172.306
	c-0.011-6.543-5.323-11.838-11.866-11.827l-148.667,0.242c-6.543,0.011-11.838,5.323-11.827,11.866l0.28,172.306
	C278.559,392.807,283.872,398.103,290.414,398.092z"/>
<path style="fill:#D8E0C9;" d="M271.672,227.622l0.012,7.5c0.006,3.844,2.904,7.002,6.631,7.433l-0.036-22.388
	C274.552,220.611,271.665,223.779,271.672,227.622z"/>
<path style="fill:#C7CEB6;" d="M272.436,362.323c-0.348,0.866-0.544,1.809-0.542,2.799c0,0.013,0.002,0.026,0.002,0.039v-0.039
	C271.894,364.132,272.089,363.189,272.436,362.323z"/>
<g>
	<path style="fill:#D8E0C9;" d="M271.735,267.622l0.026,16.25c0.006,3.832,2.914,7,6.632,7.433l-0.051-31.137
		C274.626,260.611,271.729,263.781,271.735,267.622z"/>
	<path style="fill:#D8E0C9;" d="M271.814,316.372l0.026,16.25c0.006,3.832,2.914,7,6.632,7.433l-0.051-31.137
		C274.706,309.361,271.808,312.53,271.814,316.372z"/>
</g>
<g>
	<path style="fill:#C7CEB6;" d="M278.502,357.668L278.502,357.668c-2.766,0.329-5.066,2.16-6.066,4.656
		C273.439,359.828,275.743,357.997,278.502,357.668z"/>
	<path style="fill:#C7CEB6;" d="M271.896,365.161l0.012,7.461c0.006,3.844,2.904,7.002,6.631,7.433l-0.012-7.5
		C274.82,372.125,271.921,368.984,271.896,365.161z"/>
</g>
<path style="fill:#D8E0C9;" d="M278.526,372.555l-0.024-14.887c-2.759,0.329-5.063,2.161-6.066,4.656
	c-0.347,0.866-0.542,1.809-0.54,2.799v0.039C271.921,368.984,274.82,372.125,278.526,372.555z"/>
<g>
	<path style="fill:#63B472;" d="M286.684,235.098l-0.012-7.5c-0.007-4.143-3.37-7.495-7.512-7.488c-0.299,0-0.592,0.023-0.882,0.058
		l0.036,22.388c0.29,0.033,0.583,0.055,0.882,0.055C283.339,242.603,286.691,239.241,286.684,235.098z"/>
	<path style="fill:#63B472;" d="M286.761,283.848l-0.026-16.25c-0.007-4.141-3.372-7.495-7.512-7.488
		c-0.298,0-0.591,0.023-0.88,0.058l0.051,31.137c0.289,0.034,0.582,0.056,0.88,0.055
		C283.414,291.353,286.768,287.978,286.761,283.848z"/>
	<path style="fill:#63B472;" d="M286.841,332.598l-0.026-16.25c-0.007-4.141-3.372-7.495-7.512-7.488
		c-0.298,0-0.591,0.023-0.88,0.058l0.051,31.137c0.289,0.034,0.582,0.056,0.88,0.055
		C283.493,340.103,286.847,336.728,286.841,332.598z"/>
</g>
<g>
	<path style="fill:#DD544C;" d="M279.381,357.61c-0.154,0-0.303,0.014-0.455,0.024C279.078,357.624,279.228,357.61,279.381,357.61
		C279.382,357.61,279.382,357.61,279.381,357.61z"/>
	<path style="fill:#DD544C;" d="M278.927,357.634c-0.142,0.009-0.285,0.017-0.425,0.034l0,0
		C278.642,357.651,278.784,357.643,278.927,357.634z"/>
</g>
<path style="fill:#63B472;" d="M279.383,357.61L279.383,357.61c-0.155,0-0.305,0.014-0.457,0.024
	c-0.142,0.009-0.285,0.017-0.425,0.034l0.024,14.887l0.012,7.5c0.29,0.033,0.583,0.055,0.882,0.055
	c4.143-0.007,7.495-3.37,7.488-7.512l-0.012-7.5C286.889,360.955,283.526,357.603,279.383,357.61z"/>
<circle style="fill:#70D587;" cx="93.42" cy="270.41" r="43"/>
<path style="fill:#63B472;" d="M70.425,270.45c-0.033-20.304,14.016-37.332,32.932-41.872c-3.211-0.76-6.558-1.171-10.002-1.165
	c-23.748,0.039-42.969,19.322-42.93,43.07s19.322,42.969,43.07,42.93c3.444-0.006,6.789-0.428,9.998-1.198
	C84.563,307.736,70.458,290.754,70.425,270.45z"/>
<g>
	<path style="fill:#D8E0C9;" d="M234.283,256.683l-64.108,0.104c-4.142,0.007-7.505-3.345-7.512-7.488
		c-0.007-4.143,3.346-7.505,7.488-7.512l64.108-0.104c4.143-0.007,7.505,3.345,7.512,7.488
		C241.778,253.314,238.426,256.677,234.283,256.683z"/>
	<path style="fill:#D8E0C9;" d="M234.366,307.683l-64.108,0.104c-4.142,0.007-7.505-3.345-7.512-7.488
		c-0.007-4.143,3.346-7.505,7.488-7.512l64.108-0.104c4.143-0.007,7.505,3.345,7.512,7.488
		C241.861,304.314,238.509,307.676,234.366,307.683z"/>
	<path style="fill:#D8E0C9;" d="M234.449,358.683l-173.88,0.283c-4.142,0.007-7.505-3.345-7.512-7.488s3.346-7.505,7.488-7.512
		l173.88-0.283c4.143-0.007,7.505,3.345,7.512,7.488C241.944,355.314,238.592,358.676,234.449,358.683z"/>
</g>
<g>
	<path style="fill:#FFFBEB;" d="M424.697,256.373l-105,0.171c-4.143,0.007-7.505-3.345-7.512-7.488s3.345-7.505,7.488-7.512
		l105-0.171c4.143-0.007,7.505,3.345,7.512,7.488C432.192,253.004,428.84,256.367,424.697,256.373z"/>
	<path style="fill:#FFFBEB;" d="M424.78,307.373l-105,0.171c-4.143,0.007-7.505-3.345-7.512-7.488s3.345-7.505,7.488-7.512
		l105-0.171c4.143-0.007,7.505,3.345,7.512,7.488S428.923,307.367,424.78,307.373z"/>
	<path style="fill:#FFFBEB;" d="M424.863,358.373l-105,0.171c-4.143,0.007-7.505-3.345-7.512-7.488s3.345-7.505,7.488-7.512
		l105-0.171c4.143-0.007,7.505,3.345,7.512,7.488S429.006,358.366,424.863,358.373z"/>
</g>
<path style="fill:#70D587;" d="M26.276,202.522l-14.268,0.023c-6.543,0.011-11.838,5.323-11.827,11.866l0.28,172.306
	c0.011,6.543,5.323,11.838,11.866,11.827l14.268-0.023L26.276,202.522z"/>
<g>
</g>
<g>
</g>
<g>
</g>
<g>
</g>
<g>
</g>
<g>
</g>
<g>
</g>
<g>
</g>
<g>
</g>
<g>
</g>
<g>
</g>
<g>
</g>
<g>
</g>
<g>
</g>
<g>
</g>
</svg>
