<svg id="Capa_1" enable-background="new 0 0 512 512" height="512" viewBox="0 0 512 512" width="512" xmlns="http://www.w3.org/2000/svg"><g><g><g><g><g><g><g><path d="m74.289 436.325c-45.92-46.271-74.289-109.985-74.289-180.325 0-141.385 114.615-256 256-256s256 114.615 256 256c0 70.344-28.372 134.061-74.297 180.333z" fill="#ffce00"/></g></g></g></g></g></g><path d="m437.703 436.333c45.925-46.272 74.297-109.989 74.297-180.333 0-10.662-.652-21.173-1.918-31.493l-110.29-110.955-10.782-10.116-222.649-19.936-106.361 141.461 79.452 233.538z" fill="#ffa300"/><g><path d="m375.136 396.739h-237.176v-187.625c0-63.521 51.494-115.015 115.015-115.015h7.147c63.521 0 115.015 51.494 115.015 115.015v187.625z" fill="#636978"/></g><g><path d="m375.136 209.114c0-63.521-51.494-115.015-115.015-115.015h-3.962v302.64h118.977z" fill="#414952"/></g><g><path d="m212.562 358.861-69.376 17.47c-31.349 7.894-56.873 30.283-68.89 60.001 46.381 46.731 110.663 75.668 181.704 75.668 1.164 0 2.32-.029 3.48-.044v-153.095z" fill="#fff"/></g><g><path d="m368.813 376.332-69.376-17.47h-43.317v153.137c70.993-.033 135.229-28.962 181.583-75.666-12.017-29.718-37.541-52.107-68.89-60.001z" fill="#e9edf5"/></g><g><path d="m256.094 405.901c-21.71 0-39.31-17.6-39.31-39.31v-48.155h78.62v48.155c0 21.71-17.599 39.31-39.31 39.31z" fill="#ffbeaa"/></g><g><path d="m256.159 318.435v87.463c21.68-.035 39.245-17.62 39.245-39.308v-48.155z" fill="#e09380"/></g><g><path d="m166.448 197.038c-.023.848-.038 1.699-.038 2.553v50.661c0 49.531 40.153 89.684 89.684 89.684 49.531 0 89.684-40.153 89.684-89.684v-50.661c0-.854-.015-1.705-.038-2.553z" fill="#ffcdbe"/></g><g><path d="m345.74 197.038h-89.581v142.898c49.501-.035 89.619-40.174 89.619-89.683v-50.661c.001-.855-.014-1.705-.038-2.554z" fill="#faa68e"/></g><path d="m256 53.5c-111.659 0-202.5 90.841-202.5 202.5s90.841 202.5 202.5 202.5 202.5-90.841 202.5-202.5-90.841-202.5-202.5-202.5zm0 30c42.17 0 80.854 15.211 110.854 40.433l-242.921 242.921c-25.222-30.001-40.433-68.684-40.433-110.854 0-95.117 77.383-172.5 172.5-172.5zm0 345c-42.17 0-80.854-15.211-110.854-40.433l242.921-242.921c25.222 30 40.433 68.684 40.433 110.854 0 95.117-77.383 172.5-172.5 172.5z" fill="#ff636e"/><path d="m256.121 53.502v30c42.123.029 80.761 15.234 110.733 40.432l-110.733 110.732v42.426l131.946-131.946c25.222 30 40.433 68.683 40.433 110.853 0 95.077-77.318 172.433-172.379 172.499v30c111.603-.065 202.379-90.879 202.379-202.498s-90.776-202.433-202.379-202.498z" fill="#f03049"/><g><g><g><path d="m346.075 348.729h-23.822c-19.99 0-36.253-16.263-36.253-36.253s16.263-36.253 36.253-36.253h23.822zm-23.822-58.031c-12.008 0-21.778 9.77-21.778 21.778s9.769 21.778 21.778 21.778h9.347v-43.556z" fill="#fff"/></g></g><g><g><path d="m458.352 348.729h-23.822v-72.506h23.822c19.99 0 36.253 16.263 36.253 36.253s-16.263 36.253-36.253 36.253zm-9.347-14.475h9.347c12.008 0 21.778-9.77 21.778-21.778s-9.769-21.778-21.778-21.778h-9.347z" fill="#e9edf5"/></g></g><g><g><path d="m319.642 272.096h141.322v80.671h-141.322z" fill="#00c8c8"/></g></g><g><g><path d="m390.361 272.096h70.603v80.671h-70.603z" fill="#1cadb5"/></g></g><g><g><g><path d="m333.309 292.165h113.988v14.475h-113.988z" fill="#1cadb5"/></g></g><g><g><path d="m390.361 292.165h56.936v14.475h-56.936z" fill="#108d91"/></g></g><g><g><path d="m333.309 318.223h113.988v14.475h-113.988z" fill="#1cadb5"/></g></g><g><g><path d="m390.361 318.223h56.936v14.475h-56.936z" fill="#108d91"/></g></g></g></g></g></svg>