<svg id="Color" height="512" viewBox="0 0 24 24" width="512" xmlns="http://www.w3.org/2000/svg"><path d="m18.5 14.5c-.179 0-.357-.063-.499-.19-.204-.183-5.001-4.512-5.001-8.756 0-3.062 2.468-5.554 5.5-5.554s5.5 2.492 5.5 5.554c0 4.244-4.797 8.573-5.001 8.755-.142.128-.32.191-.499.191z" fill="#f44336"/><path d="m18.5 8.315c-1.517 0-2.75-1.233-2.75-2.75s1.233-2.75 2.75-2.75 2.75 1.233 2.75 2.75-1.233 2.75-2.75 2.75z" fill="#fff"/><path d="m18.5 0c-3.032 0-5.5 2.492-5.5 5.554 0 4.244 4.797 8.573 5.001 8.755.142.127.32.19.499.19v-6.184c-1.517 0-2.75-1.233-2.75-2.75s1.233-2.75 2.75-2.75z" fill="#d43a2f"/><path d="m19.404 24h-8.785c-.609 0-1.157-.341-1.429-.891l-.634-1.538c-.096-.231-.069-.494.069-.702s.372-.333.622-.333l11-.036h.002c.198 0 .389.079.529.219.143.14.222.332.222.531v1.393c0 .656-.419 1.357-1.596 1.357z" fill="#607d8b"/><path d="m5.856 24h-4.212c-1.526 0-1.644-.98-1.644-1.28v-1.47c0-.414.336-.75.75-.75h6c.414 0 .75.336.75.75v1.47c0 .3-.118 1.28-1.644 1.28z" fill="#607d8b"/><path d="m17.64 16.75h-1.71c-.439 0-.859-.1-1.25-.31h-.01c-.28-.14-.54-.33-.76-.57l-.46-.46-.9-.9-2.56-2.56-.17-.17c-.47-.49-1.13-.78-1.82-.78h-5.51c-1.37 0-2.49 1.11-2.49 2.46v7.79c0 .41.34.75.75.75h19.5c.41 0 .75-.34.75-.75v-1.18c0-1.83-1.51-3.32-3.36-3.32z" fill="#cfd8dc"/><g fill="#607d8b"><path d="m11.05 13.01-1.06 1.06c-.23.22-1.06.93-1.24.93-.19 0-.38-.07-.53-.22-.29-.29-.29-.77 0-1.06l.71-.71 1.061-1.06z"/><path d="m12.55 14.51-2.27 2.27c-.15.15-.34.22-.53.22s-.38-.07-.53-.22c-.29-.29-.29-.77 0-1.06l1.21-1.21 1.061-1.06z"/><path d="m14.67 16.44c-.52.25-.939.59-1.28.97-.83.93-1.199 2.13-1.37 3.09-.13.69-.14 1.26-.14 1.5h-1.5c0-.48.04-.99.12-1.5.21-1.46.77-2.97 1.8-4.11.33-.37.71-.7 1.15-.98l.46.46c.22.24.48.43.76.57z"/><path d="m6 20.5c-.01.51-.09 1.02-.26 1.5h-1.61c.23-.45.36-.98.37-1.5.03-.63-.1-1.26-.37-1.78-.41-.77-1.09-1.21-2.02-1.31l-.61-.08-1.5-.18v-1.52l1.5.19.79.1c1.39.15 2.52.9 3.16 2.09.4.74.58 1.61.55 2.49z"/></g><path d="m0 21.25v1.47c0 .3.118 1.28 1.644 1.28h4.213c.05 0 .099-.001.146-.003v-1.997h-5.253c-.41 0-.75-.34-.75-.75z" fill="#546d79"/><path d="m6.003 11h-3.513c-1.37 0-2.49 1.11-2.49 2.46v7.79c0 .41.34.75.75.75h5.253v-1.628c0 .043-.001.085-.003.128-.01.51-.09 1.02-.26 1.5h-1.61c.23-.45.36-.98.37-1.5.03-.63-.1-1.26-.37-1.78-.41-.77-1.09-1.21-2.02-1.31l-.61-.08-1.5-.18v-1.52l1.5.19.79.1c1.39.15 2.52.9 3.16 2.09.362.67.544 1.447.553 2.24z" fill="#b4bcc0"/><path d="m0 15.63v1.52l1.5.18.61.08c.93.1 1.609.54 2.02 1.31.271.52.4 1.15.37 1.78-.01.52-.14 1.05-.37 1.5h1.61c.17-.48.25-.99.26-1.5.001-.043.002-.085.003-.128v-.122c-.009-.794-.191-1.57-.553-2.24-.641-1.19-1.77-1.94-3.16-2.09l-.79-.1z" fill="#546d79"/></svg>