<svg id="Capa_1" enable-background="new 0 0 512 512" height="512" viewBox="0 0 512 512" width="512" xmlns="http://www.w3.org/2000/svg"><g><circle cx="256" cy="256" fill="#8fe26a" r="256"/><path d="m56.974 378.635 121.354 121.354c24.499 7.792 50.591 12.011 77.672 12.011 118.12 0 217.537-80.006 247.063-188.779l-247.063-247.063z" fill="#58b354"/><g><g><path d="m402.461 378.708 12.218-45.072-158.677-241.565-158.681 241.565 12.219 45.072z" fill="#f6df5a"/><path d="m414.679 333.636-158.677-241.565v286.637h146.459z" fill="#edb943"/><path d="m255.997 222.458 55.584 156.253-55.578-.003z" fill="#002659"/><path d="m255.997 222.458 55.584 156.253 43.09-35.102z" fill="#f6df5a"/><g><path d="m78.161 378.711 177.841-270.404 177.578 270.404h21.373l-198.951-302.553-198.955 302.553z" fill="#ff6426"/></g></g><path d="m256 76.158v32.152l.002-.003 177.578 270.401 21.373.003z" fill="#ff4c04"/></g></g></svg>