<svg id="Capa_1" enable-background="new 0 0 512 512" height="512" viewBox="0 0 512 512" width="512" xmlns="http://www.w3.org/2000/svg"><g><path d="m79.697 75.626c-1.987.11-3.043-2.314-1.612-3.697 45.964-44.437 108.525-71.814 177.479-71.929 140.338-.234 255.355 113.663 256.428 253.997.527 68.968-26.22 131.687-70.099 178.014-.79.834-2.186.23-2.137-.918.279-6.537.375-13.121.281-19.749-2.645-186.638-156.136-337.126-342.792-336.245-5.886.027-11.736.204-17.548.527z" fill="#07a9f0"/><path d="m419.814 451.806c-.426.967-1.076 1.823-1.894 2.492-42.026 34.358-95.177 55.619-153.223 57.556-2.952.099-5.459-2.158-5.656-5.104-4.249-63.572-30.669-125.939-79.26-174.53-48.799-48.799-111.492-75.236-175.345-79.313-2.493-.159-4.391-2.29-4.316-4.786 1.738-57.48 22.423-110.195 56.023-152.113 1.68-2.096 3.856-3.75 6.324-4.81 99.52-42.757 219.312-23.504 300.576 57.76 81.883 81.883 100.806 202.884 56.771 302.848z" fill="#72d1fb"/><path d="m302.591 474.158c-11.579 11.579-24.299 21.324-37.796 29.235-135.676-12.5-243.688-120.512-256.189-256.187 7.911-13.498 17.656-26.217 29.235-37.796 73.108-73.108 191.641-73.108 264.749 0s73.109 191.64.001 264.748z" fill="#0a66ea"/><path d="m270.216 500.09c-7.026 4.447-14.283 8.382-21.719 11.802-15.505-.446-30.664-2.271-45.359-5.356-3.698-.776-10.501-6.852-14.138-7.786-54.901-14.099-89.069-42.628-123.25-85.75-1.226-1.546-12.914-1.209-14.104-2.784-31.014-41.032-49.955-91.698-51.538-146.713 3.229-7.019 6.916-13.879 11.059-20.536 12.953 136.604 122.157 245.166 259.049 257.123z" fill="#0956c6"/><path d="m472.063 41.608-3.83 23.815c-1.718 10.684 5.373 20.797 16.003 22.822l23.695 4.514c3.949.752 5.44 5.62 2.591 8.456l-17.097 17.016c-7.67 7.634-7.877 19.983-.468 27.87l16.516 17.58c2.752 2.929 1.098 7.745-2.874 8.364l-23.833 3.717c-10.692 1.667-18.119 11.537-16.76 22.273l3.029 23.93c.505 3.988-3.664 6.911-7.241 5.077l-21.466-11.002c-9.63-4.936-21.44-1.316-26.651 8.168l-11.615 21.14c-1.936 3.523-7.026 3.437-8.843-.148l-10.9-21.518c-4.89-9.654-16.571-13.667-26.362-9.057l-21.819 10.275c-3.637 1.712-7.705-1.349-7.067-5.318l3.83-23.815c1.718-10.684-5.373-20.797-16.003-22.822l-23.695-4.514c-3.949-.752-5.44-5.62-2.591-8.456l17.097-17.016c7.67-7.634 7.877-19.983.468-27.87l-16.516-17.58c-2.752-2.929-1.098-7.745 2.874-8.364l23.833-3.717c10.692-1.667 18.119-11.537 16.76-22.273l-3.029-23.93c-.505-3.988 3.664-6.911 7.241-5.078l21.466 11.002c9.63 4.936 21.44 1.316 26.651-8.168l11.615-21.14c1.936-3.523 7.026-3.437 8.842.148l10.9 21.518c4.89 9.654 16.571 13.667 26.362 9.057l21.823-10.276c3.634-1.71 7.702 1.351 7.064 5.32z" fill="#ffe89c"/><path d="m459.923 130.595c0 33.334-27.022 60.356-60.356 60.356s-60.356-27.022-60.356-60.356 27.022-60.356 60.356-60.356 60.356 27.022 60.356 60.356z" fill="#ffc14f"/><path d="m452.218 160.125c-10.502 18.685-30.663 31.213-53.713 30.817-32.346-.556-58.729-26.939-59.284-59.285-.396-23.05 12.132-43.21 30.817-53.713-4.974 8.85-7.782 19.08-7.704 29.973.235 32.822 27.091 59.677 59.912 59.912 10.892.078 21.122-2.73 29.972-7.704z" fill="#ffa90b"/><path d="m442.258 431.625c-7.659 8.12-15.844 15.74-24.499 22.804 25.628-58.837 29.687-125.059 11.392-186.797-1.177-3.972 1.089-8.145 5.061-9.322 3.976-1.179 8.145 1.089 9.322 5.06 16.364 55.225 15.771 113.856-1.276 168.255zm-193.213-396.557c-2.003-3.625-6.565-4.94-10.192-2.938-3.625 2.003-4.941 6.566-2.938 10.192l15.249 27.601c-31.02-9.398-63.199-13.458-95.818-12.076-26.409 1.119-52.211 5.77-77.036 13.864-8.037 7.751-15.568 16.023-22.539 24.761.098-.039.196-.08.293-.123 60.569-27.114 128.15-31.232 191.424-11.866l-28.222 15.592c-3.625 2.003-4.941 6.566-2.938 10.192 1.368 2.476 3.93 3.875 6.572 3.875 1.227 0 2.47-.302 3.62-.937l43.765-24.179c1.741-.962 3.028-2.576 3.58-4.488.551-1.911.319-3.963-.643-5.704z" fill="#fff5f5"/><path d="m157.232 469.205c-5.865-23.113 24.6-39.17 18.368-58.713-7.251-22.742-58.715-33.025-96.197-18.181-7.099 2.812-19.619 7.772-27.965 17.631 5.823 7.725 12.073 15.11 18.715 22.119 1.82 1.921 8.467-1.525 10.346.339 1.69 1.677-1.394 8.668.342 10.297 21.59 20.263 46.696 36.825 74.304 48.67 2.757 1.183 7.423-.143 10.228.945 2.568.996 3.272 4.413 5.879 5.327 10.341 3.627 20.985 6.608 31.885 8.896.153-1.604.076-3.164-.261-4.655-3.811-16.864-40.46-12.247-45.644-32.675z" fill="#6dc54a"/><path d="m353.516 303.642c-16.003-5.454-32.752-9.413-49.033-1.934-29.754 13.667-21.887 48.971-62.575 71.144-7.525 4.101-25.391 13.837-46.018 10.199-38.298-6.755-69.839-56.748-61.251-92.199 11.569-47.755 94.718-64.011 90.118-80.54-2.857-10.268-34.701-3.113-42.4-18.034-4.372-8.473-.302-22.795 8.894-36.521 40.678 4.573 80.144 22.457 111.34 53.652 26.799 26.799 43.774 59.701 50.925 94.233zm-177.915 106.85c-7.251-22.742-58.715-33.025-96.197-18.181-1.796.711-3.939 1.561-6.274 2.591 22.97 28.449 51.29 52.398 83.432 70.317-1.756-21.017 24.906-36.327 19.039-54.727zm-70.934-59.825c7.75-1.64 9.786-18.254 10-20 2.097-17.109-6.473-37.891-16.333-38.333-7.742-.347-16.022 11.86-17.333 23-2.184 18.546 14.577 37.256 23.666 35.333zm-32.667-85.667c1.814 6.984-7.884 15.812-14 14-3.724-1.103-5.625-6.005-6-9.333-.403-3.573.533-9.05 4.667-11.333 5.543-3.063 13.921 1.231 15.333 6.666z" fill="#82cd64"/><path d="m307.894 204.106c-75.916-75.916-199.44-75.916-275.356 0-13.03 13.03-23.823 27.462-32.38 42.816-.105 3.013-.158 6.039-.158 9.078 0 8.366.402 16.639 1.186 24.8 4.491-12.509 10.41-24.615 17.758-36.064.473 13.477 4.139 28.958 11.014 45.959 2.966 7.335 6.465 14.808 10.455 22.362-9.208 8.009-18.432 15.728-27.611 23.107 1.656 5.027 3.464 9.986 5.418 14.87 9.867-7.838 19.792-16.071 29.702-24.636 14.991 25.113 35.047 50.709 58.678 74.658-12.174 10.754-24.353 21.117-36.443 31.008 3.458 3.649 7.022 7.195 10.687 10.635 12.113-9.936 24.307-20.333 36.492-31.114 22.496 21.347 46.25 39.498 69.557 53.259-10.588 9.223-21.198 18.088-31.747 26.524 5.28 2.266 10.652 4.359 16.109 6.272 9.846-8.022 19.726-16.396 29.577-25.065 6.911 3.582 13.751 6.75 20.474 9.468 17.001 6.874 32.482 10.54 45.959 11.014-11.449 7.348-23.555 13.267-36.064 17.758 8.161.784 16.433 1.186 24.8 1.186 3.039 0 6.065-.053 9.078-.158 15.354-8.557 29.786-19.35 42.816-32.38 75.915-75.917 75.915-199.441-.001-275.357zm35.876 91.197c-15.022 20.702-32.041 41.972-50.494 63.156-13.76-23.306-31.911-47.06-53.259-69.556 21.472-24.268 41.425-48.575 59.232-72.198 22.045 22.732 36.886 49.897 44.521 78.598zm-55.473-88.992c-17.638 23.486-37.454 47.681-58.809 71.856-23.949-23.631-49.545-43.687-74.658-58.678 15.952-18.456 30.753-36.966 43.995-55.055 32.274 5.163 63.401 19.122 89.472 41.877zm-106.721-43.792c-12.226 16.304-25.689 32.909-40.087 49.462-7.553-3.991-15.027-7.49-22.362-10.456-17.001-6.874-32.482-10.54-45.959-11.014 32.749-21.018 70.88-30.348 108.408-27.992zm-137.712 122.553c-13.006-32.165-13.268-57.81-.719-70.36s38.194-12.287 70.359.719c5.829 2.357 11.758 5.075 17.751 8.131-12.318 13.725-25.232 27.357-38.568 40.693s-26.968 26.25-40.693 38.568c-3.055-5.994-5.774-11.922-8.13-17.751zm15.523 31.262c14.816-13.204 29.533-27.099 43.907-41.473 14.373-14.373 28.268-29.091 41.472-43.906 24.993 14.594 50.674 34.609 74.716 58.413-15.841 17.537-32.443 35.004-49.56 52.122-17.117 17.117-34.585 33.719-52.122 49.56-23.803-24.042-43.818-49.723-58.413-74.716zm139.341 138.042c-23.342-13.246-47.37-31.301-70.176-52.826 17.494-15.823 34.909-32.386 51.976-49.453s33.63-34.482 49.453-51.976c21.525 22.805 39.581 46.833 52.827 70.175-13.07 14.559-26.769 29.018-40.916 43.165-14.145 14.145-28.605 27.845-43.164 40.915zm98.56 14.479c-12.549 12.549-38.194 12.287-70.359-.719-4.637-1.875-9.336-3.978-14.081-6.298 13.375-12.129 26.646-24.766 39.652-37.772s25.643-26.277 37.772-39.652c2.32 4.745 4.423 9.444 6.298 14.081 13.005 32.166 13.267 57.811.718 70.36zm13.187-75.983c-2.718-6.723-5.885-13.563-9.468-20.474 16.871-19.17 32.621-38.452 46.844-57.376 6.327 42.362-2.46 86.567-26.363 123.809-.473-13.476-4.139-28.957-11.013-45.959z" fill="#0a4499"/></g></svg>