<svg id="Layer_1" enable-background="new 0 0 256 256" height="512" viewBox="0 0 256 256" width="512" xmlns="http://www.w3.org/2000/svg"><g><g><path d="m185.9 73.485h-14.07c-4.721 9.956-12.576 17.683-21.78 22.4-4.64 2.37-9.71 4.02-15.06 4.79l-6.99 12.64-6.99-12.64c-5.36-.77-10.44-2.42-15.08-4.79-9.269-4.751-17.088-12.544-21.77-22.4h-14.06c-7 0-12.68 5.67-12.68 12.68v153.05c0 7 5.68 12.68 12.68 12.68h115.8c7 0 12.68-5.68 12.68-12.68v-153.05c0-7.01-5.68-12.68-12.68-12.68z" fill="#72c1e8"/><g fill="#efefef"><path d="m86.275 161.142c-4.672 0-8.46 3.787-8.46 8.459s3.788 8.46 8.46 8.46 8.46-3.788 8.46-8.46-3.788-8.459-8.46-8.459z"/><path d="m114.092 161.142c-4.672 0-8.46 3.787-8.46 8.459s3.788 8.46 8.46 8.46 8.46-3.788 8.46-8.46-3.788-8.459-8.46-8.459z"/><path d="m141.908 161.142c-4.672 0-8.46 3.787-8.46 8.459s3.788 8.46 8.46 8.46 8.46-3.788 8.46-8.46-3.787-8.459-8.46-8.459z"/><path d="m169.725 161.142c-4.672 0-8.46 3.787-8.46 8.459s3.788 8.46 8.46 8.46 8.46-3.788 8.46-8.46-3.788-8.459-8.46-8.459z"/><path d="m86.275 187.617c-4.672 0-8.46 3.788-8.46 8.46s3.788 8.46 8.46 8.46 8.46-3.788 8.46-8.46-3.788-8.46-8.46-8.46z"/><path d="m114.092 187.617c-4.672 0-8.46 3.788-8.46 8.46s3.788 8.46 8.46 8.46 8.46-3.788 8.46-8.46-3.788-8.46-8.46-8.46z"/><path d="m141.908 187.617c-4.672 0-8.46 3.788-8.46 8.46s3.788 8.46 8.46 8.46 8.46-3.788 8.46-8.46-3.787-8.46-8.46-8.46z"/><path d="m86.275 214.093c-4.672 0-8.46 3.788-8.46 8.46s3.788 8.46 8.46 8.46 8.46-3.788 8.46-8.46-3.788-8.46-8.46-8.46z"/><path d="m114.092 214.093c-4.672 0-8.46 3.788-8.46 8.46s3.788 8.46 8.46 8.46 8.46-3.788 8.46-8.46-3.788-8.46-8.46-8.46z"/><path d="m141.908 214.093c-4.672 0-8.46 3.788-8.46 8.46s3.788 8.46 8.46 8.46 8.46-3.788 8.46-8.46-3.787-8.46-8.46-8.46z"/><path d="m169.725 187.617c-4.672 0-8.46 3.788-8.46 8.46v26.476c0 4.672 3.788 8.459 8.46 8.459s8.46-3.787 8.46-8.459v-26.476c0-4.672-3.788-8.46-8.46-8.46z"/><path d="m88.497 136.3h-4.444c-3.445 0-6.238 2.793-6.238 6.238s2.793 6.238 6.238 6.238h4.444c3.445 0 6.238-2.793 6.238-6.238s-2.793-6.238-6.238-6.238z"/><path d="m116.314 136.3h-4.444c-3.445 0-6.238 2.793-6.238 6.238s2.793 6.238 6.238 6.238h4.444c3.445 0 6.238-2.793 6.238-6.238s-2.793-6.238-6.238-6.238z"/><path d="m144.13 136.3h-4.444c-3.445 0-6.238 2.793-6.238 6.238s2.793 6.238 6.238 6.238h4.444c3.445 0 6.238-2.793 6.238-6.238s-2.793-6.238-6.238-6.238z"/><path d="m167.503 148.776h4.444c3.445 0 6.238-2.793 6.238-6.238s-2.793-6.238-6.238-6.238h-4.444c-3.445 0-6.238 2.793-6.238 6.238s2.793 6.238 6.238 6.238z"/></g><path d="m66.58 243.887c-1.381 0-2.5-1.119-2.5-2.5v-157.409c0-1.381 1.119-2.5 2.5-2.5h31.144c1.381 0 2.5 1.119 2.5 2.5s-1.119 2.5-2.5 2.5h-28.644v154.909c0 1.381-1.119 2.5-2.5 2.5z" fill="#c5e5ff"/><path d="m178.19 95.885v28.03h-100.38v-28.03h28.12c4.64 2.37 9.72 4.02 15.08 4.79l6.99 12.64 6.99-12.64c5.35-.77 10.42-2.42 15.06-4.79z" fill="#f2e1d6"/><path d="m128 4.105c-26.8 0-48.53 21.73-48.53 48.56 0 7.46 1.68 14.52 4.69 20.82 4.683 9.858 12.503 17.65 21.77 22.4 4.64 2.37 9.72 4.02 15.08 4.79l6.99 12.64 6.99-12.64c5.35-.77 10.42-2.42 15.06-4.79 9.206-4.718 17.059-12.445 21.78-22.4 3.02-6.3 4.7-13.36 4.7-20.82 0-26.83-21.73-48.56-48.53-48.56z" fill="#f0c020"/><path d="m121.934 94.242c-20.503-2.95-35.964-20.824-35.964-41.576 0-23.192 18.854-42.061 42.03-42.061 18.158 0 34.197 11.6 39.911 28.864.435 1.311-.276 2.725-1.588 3.158-1.312.44-2.724-.276-3.158-1.588-5.035-15.212-19.167-25.434-35.165-25.434-20.419 0-37.03 16.625-37.03 37.061 0 18.282 13.618 34.028 31.677 36.627 1.366.196 2.314 1.464 2.118 2.831-.2 1.383-1.485 2.314-2.831 2.118zm45.596-39.076c-1.381 0-2.5-1.119-2.5-2.5 0-.814-.027-1.644-.081-2.463-.09-1.378.954-2.568 2.332-2.658 1.39-.074 2.568.954 2.658 2.332.061.929.091 1.866.091 2.789 0 1.381-1.119 2.5-2.5 2.5z" fill="#f9e5af"/><path d="m215.242 20.275c-4.34-1.434-8.822-2.688-11.339-13.528-2.318 9.984-6.031 11.774-11.339 13.528 8.657 2.86 9.963 7.597 11.339 13.528 2.372-10.224 6.296-11.862 11.339-13.528z" fill="#f0c020"/><path d="m240.564 55.623c-4.34-1.434-8.822-2.688-11.339-13.528-2.318 9.984-6.031 11.774-11.339 13.528 8.657 2.86 9.963 7.597 11.339 13.528 2.373-10.224 6.296-11.862 11.339-13.528z" fill="#f0c020"/><path d="m38.113 144.971c-4.34-1.434-8.822-2.688-11.339-13.528-2.318 9.984-6.031 11.774-11.339 13.528 8.657 2.86 9.963 7.597 11.339 13.528 2.372-10.224 6.296-11.861 11.339-13.528z" fill="#f0c020"/><path d="m86.27 158.64c-6.04 0-10.95 4.92-10.95 10.96s4.91 10.96 10.95 10.96c6.05 0 10.96-4.92 10.96-10.96s-4.911-10.96-10.96-10.96zm0 16.92c-3.279 0-5.95-2.68-5.96-5.96.01-3.28 2.681-5.95 5.96-5.96 3.29.01 5.96 2.68 5.96 5.96s-2.67 5.96-5.96 5.96z"/><path d="m114.09 158.64c-6.04 0-10.96 4.92-10.96 10.96s4.92 10.96 10.96 10.96 10.96-4.92 10.96-10.96-4.92-10.96-10.96-10.96zm0 16.92c-3.28 0-5.95-2.68-5.96-5.96.01-3.28 2.68-5.95 5.96-5.96 3.28.01 5.96 2.68 5.96 5.96s-2.68 5.96-5.96 5.96z"/><path d="m141.91 158.64c-6.04 0-10.96 4.92-10.96 10.96s4.92 10.96 10.96 10.96 10.96-4.92 10.96-10.96-4.92-10.96-10.96-10.96zm0 16.92c-3.28 0-5.96-2.68-5.96-5.96s2.68-5.95 5.96-5.96c3.279.01 5.949 2.68 5.96 5.96-.011 3.28-2.681 5.96-5.96 5.96z"/><path d="m169.729 158.64c-6.05 0-10.96 4.92-10.96 10.96s4.91 10.96 10.96 10.96c6.04 0 10.95-4.92 10.95-10.96s-4.909-10.96-10.95-10.96zm0 16.92c-3.29 0-5.96-2.68-5.96-5.96s2.67-5.95 5.96-5.96c3.28.01 5.95 2.68 5.95 5.96s-2.669 5.96-5.95 5.96z"/><path d="m86.27 185.12c-6.04 0-10.95 4.909-10.95 10.96 0 6.04 4.91 10.949 10.95 10.949 6.05 0 10.96-4.909 10.96-10.949-.001-6.051-4.911-10.96-10.96-10.96zm0 16.92c-3.279-.011-5.95-2.681-5.96-5.96.01-3.28 2.681-5.96 5.96-5.96 3.28 0 5.96 2.68 5.96 5.96-.001 3.279-2.68 5.949-5.96 5.96z"/><path d="m114.09 185.12c-6.04 0-10.96 4.909-10.96 10.96 0 6.04 4.92 10.949 10.96 10.949s10.96-4.909 10.96-10.949c0-6.051-4.92-10.96-10.96-10.96zm0 16.92c-3.28-.011-5.95-2.681-5.96-5.96.01-3.28 2.68-5.96 5.96-5.96s5.95 2.68 5.96 5.96c-.01 3.279-2.68 5.949-5.96 5.96z"/><path d="m141.91 185.12c-6.04 0-10.96 4.909-10.96 10.96 0 6.04 4.92 10.949 10.96 10.949s10.96-4.909 10.96-10.949c0-6.051-4.92-10.96-10.96-10.96zm0 16.92c-3.28-.011-5.96-2.681-5.96-5.96 0-3.28 2.68-5.96 5.96-5.96 3.279 0 5.949 2.68 5.96 5.96-.011 3.279-2.681 5.949-5.96 5.96z"/><path d="m75.319 222.55c0 6.05 4.91 10.96 10.961 10.96 6.039 0 10.949-4.91 10.949-10.96 0-6.04-4.91-10.96-10.949-10.96-6.051 0-10.961 4.92-10.961 10.96zm16.91 0c0 3.28-2.67 5.96-5.949 5.96-3.28 0-5.961-2.68-5.971-5.96.01-3.28 2.69-5.95 5.971-5.96 3.28.01 5.949 2.68 5.949 5.96z"/><path d="m114.09 211.59c-6.04 0-10.96 4.92-10.96 10.96 0 6.05 4.92 10.96 10.96 10.96s10.96-4.91 10.96-10.96c0-6.04-4.92-10.96-10.96-10.96zm0 16.92c-3.28 0-5.95-2.68-5.96-5.96.01-3.28 2.68-5.95 5.96-5.96 3.28.01 5.96 2.68 5.96 5.96s-2.68 5.96-5.96 5.96z"/><path d="m141.91 211.59c-6.04 0-10.96 4.92-10.96 10.96 0 6.05 4.909 10.96 10.96 10.96 6.04 0 10.96-4.91 10.96-10.96 0-6.04-4.92-10.96-10.96-10.96zm0 16.92c-3.28 0-5.96-2.68-5.96-5.96s2.68-5.95 5.96-5.96c3.279.01 5.949 2.68 5.96 5.96-.011 3.28-2.681 5.96-5.96 5.96z"/><path d="m169.729 185.12c-6.05 0-10.96 4.909-10.96 10.96v26.47c0 6.05 4.91 10.96 10.96 10.96 6.04 0 10.95-4.91 10.95-10.96v-26.47c.001-6.051-4.909-10.96-10.95-10.96zm5.96 37.43c-.01 3.28-2.68 5.96-5.96 5.96-3.29 0-5.96-2.68-5.96-5.96v-26.47c0-3.28 2.67-5.96 5.96-5.96 3.28 0 5.95 2.68 5.96 5.96z"/><path d="m88.5 133.8h-4.45c-4.82 0-8.74 3.92-8.74 8.74 0 4.819 3.92 8.729 8.74 8.739h4.45c4.81-.01 8.729-3.92 8.729-8.739 0-4.82-3.919-8.74-8.729-8.74zm0 12.479h-4.45c-2.05-.01-3.73-1.68-3.74-3.739.01-2.061 1.69-3.74 3.74-3.74h4.45c2.06 0 3.729 1.68 3.729 3.74s-1.669 3.73-3.729 3.739z"/><path d="m116.31 133.8h-4.439c-4.82 0-8.74 3.92-8.74 8.74 0 4.819 3.92 8.729 8.74 8.739h4.439c4.82-.01 8.74-3.92 8.74-8.739 0-4.82-3.92-8.74-8.74-8.74zm0 12.479h-4.439c-2.061-.01-3.74-1.68-3.74-3.739 0-2.061 1.68-3.74 3.74-3.74h4.439c2.061 0 3.74 1.68 3.74 3.74s-1.68 3.73-3.74 3.739z"/><path d="m144.13 133.8h-4.44c-4.819 0-8.739 3.92-8.739 8.74 0 4.819 3.92 8.729 8.739 8.739h4.44c4.82-.01 8.74-3.92 8.74-8.739 0-4.82-3.92-8.74-8.74-8.74zm0 12.479h-4.44c-2.06-.01-3.739-1.68-3.739-3.739 0-2.061 1.68-3.74 3.739-3.74h4.44c2.06 0 3.729 1.68 3.74 3.74-.011 2.06-1.681 3.73-3.74 3.739z"/><path d="m171.95 133.8h-4.45c-4.811 0-8.73 3.92-8.74 8.74.01 4.819 3.93 8.729 8.74 8.739h4.45c4.81-.01 8.729-3.92 8.729-8.739.001-4.82-3.919-8.74-8.729-8.74zm0 12.479h-4.45c-2.05-.01-3.73-1.68-3.73-3.739 0-2.061 1.681-3.74 3.73-3.74h4.45c2.05 0 3.729 1.68 3.739 3.74-.009 2.06-1.689 3.73-3.739 3.739z"/><path d="m128 83.585c1.381 0 2.5-1.119 2.5-2.5v-6.792h2.835c6.654 0 12.076-5.384 12.076-12.078 0-6.66-5.418-12.078-12.078-12.078h-10.666c-3.903 0-7.078-3.175-7.078-7.078 0-3.889 3.136-7.078 7.095-7.078h10.271c3.096.023 6.083 1.702 7.8 4.388l.055.085c.749 1.162 2.296 1.496 3.456.749 1.16-.748 1.496-2.295.749-3.456l-.051-.078c-2.654-4.151-7.13-6.65-11.99-6.688h-2.474v-6.792c0-1.381-1.119-2.5-2.5-2.5s-2.5 1.119-2.5 2.5v6.792h-2.743c-7.022 0-12.168 5.625-12.168 12.078 0 6.66 5.418 12.078 12.078 12.078h10.666c3.903 0 7.078 3.175 7.078 7.078 0 3.81-3.036 7.078-7.149 7.078h-11.146c-2.71-.021-5.301-1.275-7.106-3.443-.884-1.063-2.462-1.205-3.521-.321-1.062.884-1.205 2.46-.321 3.521 2.749 3.301 6.726 5.212 10.93 5.244h3.402v6.792c0 1.38 1.119 2.499 2.5 2.499z"/><circle cx="198.58" cy="190.229" r="2.5"/><path d="m54.92 86.17v153.05c0 8.36 6.81 15.17 15.18 15.17h115.8c8.37 0 15.181-6.81 15.181-15.17v-38.99c0-1.37-1.12-2.5-2.5-2.5s-2.5 1.13-2.5 2.5v38.99c-.011 5.6-4.58 10.16-10.181 10.18h-115.8c-5.6-.02-10.17-4.58-10.18-10.18v-153.05c.01-5.61 4.58-10.18 10.18-10.19h12.51c3.378 6.563 8.3 12.589 14.689 17.41h-19.489c-1.41 0-2.5 1.145-2.5 2.49v28.03c0 1.354 1.078 2.5 2.5 2.5h10.41c1.38 0 2.5-1.12 2.5-2.5 0-1.37-1.12-2.49-2.5-2.49h-7.91v-23.04h25.021c4.195 2.085 9.097 3.735 14.08 4.58l6.399 11.56c.947 1.719 3.437 1.717 4.38 0l6.4-11.56c5.021-.854 9.807-2.468 14.05-4.58h25.05v23.03l-67.47.01c-1.38 0-2.5 1.12-2.5 2.49 0 1.38 1.12 2.5 2.5 2.5h69.97c1.344 0 2.5-1.087 2.5-2.5v-28.03c0-1.36-1.099-2.49-2.5-2.49h-19.496c6.009-4.521 11.011-10.256 14.687-17.41h12.52c5.601.011 10.17 4.58 10.181 10.19v94.06c0 1.38 1.12 2.5 2.5 2.5s2.5-1.12 2.5-2.5v-94.06c0-8.37-6.811-15.18-15.181-15.19h-10.28c2.255-5.813 3.411-11.951 3.411-18.319 0-9.33-2.54-18.471-7.351-26.41-.711-1.175-2.212-1.568-3.43-.851-1.212.745-1.554 2.26-.851 3.44 4.341 7.16 6.631 15.4 6.631 23.82 0 22.855-16.84 42.275-39.4 45.54-.78.109-1.45.569-1.83 1.26l-4.8 8.689-4.8-8.689c-.381-.69-1.051-1.15-1.83-1.26-22.469-3.249-39.4-22.557-39.4-45.54 0-25.458 20.582-46.051 46.03-46.051 9.58 0 18.77 2.91 26.569 8.44 1.091.77 2.721.48 3.49-.6.796-1.155.519-2.694-.6-3.48-8.641-6.13-18.83-9.36-29.46-9.36-28.19 0-51.03 22.847-51.03 51.051 0 6.36 1.157 12.503 3.405 18.319h-10.275c-8.371.011-15.18 6.821-15.18 15.191z"/><path d="m100.72 123.91c0-1.37-1.12-2.49-2.5-2.49s-2.5 1.12-2.5 2.49c0 1.38 1.12 2.5 2.5 2.5s2.5-1.12 2.5-2.5z"/><path d="m165.229 21.41c1.011-.94 1.07-2.53.13-3.54-.01 0-.01 0-.01 0-.91-.971-2.56-1.021-3.53-.12-1 .939-1.06 2.51-.13 3.52v.011c.971 1.03 2.55 1.055 3.54.129z"/><path d="m206.485 34.402c2.121-9.143 5.253-10.178 9.588-11.611 2.416-.798 2.421-4.233 0-5.033-4.169-1.372-7.42-2.269-9.588-11.61-.635-2.728-4.531-2.72-5.164 0-2.122 9.143-5.254 10.178-9.588 11.611-2.416.798-2.421 4.232 0 5.032 7.466 2.468 8.357 6.303 9.588 11.611.633 2.727 4.533 2.721 5.164 0zm-7.571-14.062c1.904-1.232 3.587-2.953 4.999-5.644 1.437 2.736 3.111 4.446 4.835 5.607-1.813 1.204-3.423 2.868-4.783 5.413-1.081-1.952-2.643-3.798-5.051-5.376z"/><path d="m217.056 58.139c7.466 2.467 8.357 6.303 9.588 11.611.632 2.728 4.533 2.721 5.164 0 2.121-9.144 5.253-10.178 9.588-11.611 2.416-.798 2.421-4.233 0-5.033-4.169-1.372-7.42-2.269-9.588-11.61-.635-2.728-4.531-2.72-5.164 0-2.122 9.143-5.254 10.179-9.588 11.611-2.416.797-2.421 4.232 0 5.032zm12.18-8.096c1.437 2.736 3.111 4.447 4.835 5.608-1.813 1.204-3.423 2.868-4.783 5.413-1.082-1.952-2.643-3.798-5.051-5.376 1.904-1.232 3.587-2.953 4.999-5.645z"/><path d="m14.605 147.487c7.466 2.468 8.357 6.303 9.588 11.611.633 2.728 4.533 2.721 5.164 0 2.121-9.143 5.253-10.178 9.588-11.611 2.416-.798 2.421-4.233 0-5.033-4.169-1.372-7.42-2.268-9.588-11.61-.635-2.728-4.531-2.72-5.164 0-2.122 9.143-5.254 10.178-9.588 11.611-2.416.798-2.422 4.233 0 5.032zm12.18-8.095c1.437 2.736 3.111 4.446 4.835 5.607-1.813 1.204-3.423 2.868-4.783 5.413-1.082-1.952-2.643-3.798-5.051-5.376 1.903-1.232 3.587-2.953 4.999-5.644z"/></g><g><path d="m189.084 243.887h-16.591c-1.381 0-2.5-1.119-2.5-2.5s1.119-2.5 2.5-2.5h14.091v-154.909c0-1.381 1.119-2.5 2.5-2.5s2.5 1.119 2.5 2.5v157.409c0 1.381-1.119 2.5-2.5 2.5zm-26.591 0h-5.999c-1.381 0-2.5-1.119-2.5-2.5s1.119-2.5 2.5-2.5h5.999c1.381 0 2.5 1.119 2.5 2.5s-1.119 2.5-2.5 2.5z" fill="#c5e5ff"/></g></g></svg>