<svg id="Capa_1" enable-background="new 0 0 512 512" height="512" viewBox="0 0 512 512" width="512" xmlns="http://www.w3.org/2000/svg"><g><path d="m512 256c0 141.385-114.615 256-256 256s-256-114.615-256-256 114.615-256 256-256 256 114.615 256 256z" fill="#72d1fb"/><path d="m224.747 329.504c0 50.556-40.984 91.54-91.54 91.54s-91.54-40.984-91.54-91.54 40.984-91.54 91.54-91.54 91.54 40.984 91.54 91.54z" fill="#fff5f5"/><path d="m474 128c1.276 0 2.545.032 3.806.094 21.748 37.633 34.194 81.316 34.194 127.906 0 4.714-.127 9.399-.379 14.05-11.093 6.332-23.934 9.95-37.621 9.95-23.107 0-43.806-10.313-57.745-26.586-10.356 32.804-41.028 56.586-77.255 56.586-13.994 0-27.158-3.549-38.644-9.795 1.077 5.095 1.644 10.379 1.644 15.795 0 29.984-17.364 55.912-42.584 68.279 1.685 6.289 2.584 12.9 2.584 19.721 0 41.974-34.026 76-76 76-10.926 0-21.314-2.306-30.703-6.458-3.633 4.525-7.772 8.625-12.333 12.214-63.288-31.196-111.82-87.771-132.31-156.439 3.305-.859 6.772-1.317 10.346-1.317 19.08 0 35.116 13.034 39.691 30.683 10.55-5.545 22.563-8.683 35.309-8.683 10.926 0 21.314 2.306 30.703 6.458 6.965-8.676 15.794-15.791 25.881-20.736-1.685-6.29-2.584-12.901-2.584-19.722 0-41.974 34.026-76 76-76 12.333 0 23.979 2.938 34.278 8.151-1.489-6.14-2.278-12.553-2.278-19.151 0-44.735 36.265-81 81-81 11.028 0 21.541 2.204 31.123 6.195-.082-1.054-.123-2.12-.123-3.195 0-22.644 18.356-41 41-41 16.058 0 29.96 9.232 36.688 22.678 8.199-3.025 17.062-4.678 26.312-4.678z" fill="#489160"/><path d="m511.995 257.562c-.432 72.359-30.885 137.601-79.531 183.901-19.652-10.35-33.426-30.359-35.004-53.714-11.421 19.446-32.553 32.5-56.735 32.5-36.313 0-65.75-29.437-65.75-65.75 0-32.252 23.222-59.08 53.858-64.677 6.483-29.498 32.772-51.573 64.218-51.573 15.055 0 28.928 5.06 40.011 13.572 10.273-6.645 22.518-10.503 35.663-10.503 16.569 0 31.707 6.13 43.27 16.244zm-254.168 172.088c.588-2.709.897-5.523.897-8.409 0-21.815-17.685-39.5-39.5-39.5s-39.5 17.685-39.5 39.5c0 4.952.912 9.691 2.576 14.059-4.408 3.313-8.413 7.133-11.93 11.373-7.246-8.549-18.062-13.975-30.146-13.975-17.856 0-32.945 11.849-37.833 28.114 42.787 32.142 95.974 51.188 153.609 51.188 1.542 0 3.08-.014 4.615-.041 10.776-.191 34.11-14.265 34.11-20.464 0-26.727-14.926-49.969-36.898-61.845z" fill="#3d7a51"/><path d="m473.487 200h-434.974l217.487-164.76z" fill="#eac23f"/><path d="m355.5 200h-199l99.5-164.76z" fill="#e9cc5a"/><path d="m71 190h20v200h-20zm350 0v180h20v-180zm-301 200h-20v68.994c9.495 7.308 19.517 13.964 30 19.903v-88.897h10v-100h-20zm50 0h20v-100h-20zm50 0h20v-100h-20zm50 0h20v-100h-20zm50 0h20v-100h-20zm-42.787-387.071-21.213 21.213-21.213-21.213c-3.905-3.905-10.237-3.905-14.142 0s-3.905 10.237 0 14.142l21.213 21.213 14.142 14.142 14.142-14.142 21.213-21.213c3.905-3.905 3.905-10.237 0-14.142-3.905-3.905-10.237-3.905-14.142 0z" fill="#c88a1d"/><path d="m266 200v40c0 5.523-4.477 10-10 10s-10-4.477-10-10v-40c0-5.523 4.477-10 10-10s10 4.477 10 10zm-56-10c-5.523 0-10 4.477-10 10v30c0 5.523 4.477 10 10 10s10-4.477 10-10v-30c0-5.523-4.477-10-10-10zm-46 0c-5.523 0-10 4.477-10 10v30c0 5.523 4.477 10 10 10s10-4.477 10-10v-30c0-5.523-4.477-10-10-10zm-46 0c-5.523 0-10 4.477-10 10v40c0 5.523 4.477 10 10 10s10-4.477 10-10v-40c0-5.523-4.477-10-10-10zm-46 0c-5.523 0-10 4.477-10 10v30c0 5.523 4.477 10 10 10s10-4.477 10-10v-30c0-5.523-4.477-10-10-10zm-46 0c-5.523 0-10 4.477-10 10v30c0 5.523 4.477 10 10 10s10-4.477 10-10v-30c0-5.523-4.477-10-10-10zm322 0c-5.523 0-10 4.477-10 10v30c0 5.523 4.477 10 10 10s10-4.477 10-10v-30c0-5.523-4.477-10-10-10zm-46 0c-5.523 0-10 4.477-10 10v30c0 5.523 4.477 10 10 10s10-4.477 10-10v-30c0-5.523-4.477-10-10-10zm138 0c-5.523 0-10 4.477-10 10v30c0 5.523 4.477 10 10 10s10-4.477 10-10v-30c0-5.523-4.477-10-10-10zm46 0c-5.523 0-10 4.477-10 10v30c0 5.523 4.477 10 10 10s10-4.477 10-10v-30c0-5.523-4.477-10-10-10zm-92 0c-5.523 0-10 4.477-10 10v40c0 5.523 4.477 10 10 10s10-4.477 10-10v-40c0-5.523-4.477-10-10-10z" fill="#e9cc5a"/><path d="m481.458 206.038c-1.966 2.596-4.955 3.962-7.979 3.962-2.104 0-4.225-.661-6.03-2.029l-168.628-127.747c-1.755-1.329-4.056.738-2.922 2.625l60.767 101.075c2.744 4.565 1.696 10.622-2.682 13.655-4.797 3.324-11.323 1.866-14.282-3.056l-69.988-116.413c-1.045-1.738-3.714-.997-3.714 1.03v120.517c0 5.326-4.019 9.977-9.335 10.321-5.824.377-10.665-4.235-10.665-9.978v-120.86c0-2.028-2.669-2.768-3.714-1.031l-70.519 117.296c-2.846 4.733-8.99 6.263-13.723 3.418-5.132 0-8.301-5.601-5.656-10l63.713-105.975c1.134-1.887-1.167-3.954-2.922-2.625l-168.628 127.747c-4.402 3.335-10.674 2.47-14.009-1.933s-2.47-10.674 1.933-14.01l217.487-164.76c3.57-2.706 8.506-2.706 12.076 0l217.487 164.76c4.403 3.337 5.268 9.608 1.933 14.011z" fill="#fff36c"/><path d="m327.464 75.696c-1.503.83-3.306.918-4.882.236l-42.249-18.266-17.103 11.269c-1.94 1.278-4.472 1.211-6.342-.168l-18.888-13.934-37.268 14.444c-1.277.495-2.693.5-3.973.013l-.241-.091c-4.318-1.641-4.854-7.532-.903-9.926l52.834-32.005c4.465-2.706 10.637-2.706 15.102 0l64.105 38.832c3.646 2.209 3.54 7.534-.192 9.596z" fill="#eac23f"/><path d="m415 400h-340c-8.284 0-15-6.716-15-15 0-8.284 6.716-15 15-15h340c8.284 0 15 6.716 15 15 0 8.284-6.716 15-15 15zm55.333-105c0-8.284-6.716-15-15-15h-398.666c-8.284 0-15 6.716-15 15 0 8.284 6.716 15 15 15h398.667c8.284 0 14.999-6.716 14.999-15z" fill="#e9cc5a"/><path d="m102.667 310h-46c-8.284 0-15-6.716-15-15s6.716-15 15-15h46c-8.284 0-15 6.716-15 15s6.715 15 15 15zm3.333 75c0-8.284 6.716-15 15-15h-46c-8.284 0-15 6.716-15 15s6.716 15 15 15h46c-8.284 0-15-6.716-15-15z" fill="#eac23f"/><path d="m497 210h-482c-8.284 0-15-6.716-15-15 0-8.284 6.716-15 15-15h482c8.284 0 15 6.716 15 15 0 8.284-6.716 15-15 15z" fill="#fff36c"/><path d="m497 210h-379c-8.284 0-15-6.716-15-15 0-8.284 6.716-15 15-15h379c8.284 0 15 6.716 15 15 0 8.284-6.716 15-15 15z" fill="#fff68e"/><path d="m413.539 428.857c-1.065 7.233-34.953-.894-30.131-10.092-10.007-15.792-18.45-34.751-24.252-55.787-10.277-37.258-10.105-73.171-1.502-99.462 18.16 15.807 34.573 41.148 45.299 72.017 2.698-5.402 5.67-10.799 8.917-16.155 20.033-33.052 46.263-57.583 71.286-69.378 1.072 26.454-7.688 59.285-26.005 91.031 13.302-8.356 26.739-14.661 39.599-18.757-17.786 42.579-46.744 79.328-83.211 106.583z" fill="#9bcf1b"/><path d="m422.491 450.471c-43.676 37.427-100.108 60.396-161.877 61.488-13.857-8.985-26.398-19.791-37.446-37.561-.576-.926-1.136-1.856-1.681-2.789-27.949-47.871-2.516-109.013 50.519-125.14 13.573-4.127 28.134-6.401 43.487-6.465.702-.003 1.404-.004 2.106-.004.703 0 1.405.001 2.106.004 15.353.064 29.914 2.338 43.487 6.465 45.467 13.826 70.646 60.734 59.299 104.002z" fill="#b9e746"/><path d="m300.89 508.076c-13.108 2.318-26.56 3.64-40.275 3.883-13.857-8.985-26.398-19.791-37.446-37.561-.576-.926-1.136-1.856-1.681-2.789-27.949-47.871-2.516-109.013 50.519-125.14 13.573-4.127 28.134-6.401 43.487-6.465.702-.003 1.404-.004 2.106-.004.703 0 1.405.001 2.106.004 7.143.03 14.114.538 20.894 1.489-7.794 1.093-15.335 2.77-22.594 4.977-53.035 16.127-78.468 77.269-50.519 125.14.545.933 1.105 1.862 1.681 2.789 9.507 15.289 20.118 25.423 31.722 33.677z" fill="#9bcf1b"/><path d="m355.581 434.843c-1.645 3.763-6.148 5.365-9.959 3.833l-29.257-11.761c-3.285-1.321-6.865 1.098-6.865 4.639v34.632c0 4.107-3.165 7.688-7.27 7.811-4.247.127-7.73-3.278-7.73-7.497v-30.718c0-4.21-4.886-6.536-8.153-3.88l-19.582 15.914c-3.187 2.59-7.962 2.392-10.646-.716-2.777-3.216-2.331-8.066.943-10.727l20.826-16.924c2.957-2.403 2.247-7.098-1.288-8.519l-19.93-8.011c-3.811-1.532-5.953-5.804-4.535-9.659 1.467-3.988 5.925-5.949 9.839-4.376l25.663 10.316c3.285 1.321 6.865-1.098 6.865-4.639v-24.246c0-4.107 3.165-7.688 7.27-7.811 4.247-.127 7.73 3.278 7.73 7.497v13.251c0 4.21 4.886 6.536 8.153 3.88l14.053-11.42c3.187-2.59 7.962-2.392 10.646.716 2.777 3.216 2.331 8.066-.943 10.727l-21.126 17.168c-2.957 2.403-2.247 7.098 1.289 8.519l29.936 12.034c3.912 1.573 5.773 6.073 4.071 9.967z" fill="#84b017"/><path d="m506.696 440.778c-3.792 14.312-8.724 29.034-11.659 47.095-.139.853-.81 1.525-1.663 1.663-18.061 2.935-32.782 7.867-47.095 11.659-1.194.316-2.392-.523-2.497-1.754-2.058-24.075-8.594-41.671-16.339-41.671-8.285 0-15.186 20.134-16.702 46.795-.061 1.076-.954 1.929-2.031 1.899-6.626-.184-13.623-1.044-21.207-2.813-.273-.064-.545-.128-.817-.194-9.73-2.35-18.241-6.769-25.287-12.622-.888-.737-.98-2.06-.2-2.911 18.851-20.575 28.976-40.697 22.939-46.735-5.41-5.41-22.13 2.157-40.351 17.353-1.127.94-2.864.38-3.218-1.044-3.997-16.092-1.738-33.883 8.344-49.381 7.586-11.661 16.806-23.13 27.696-34.082.487-.49.974-.979 1.463-1.467s.978-.976 1.467-1.463c10.952-10.89 22.421-20.11 34.082-27.696 16.487-10.725 35.57-12.597 52.442-7.502-16.533 19.127-25.015 37.082-19.371 42.727 6.038 6.038 26.159-4.086 46.733-22.936.852-.781 2.177-.688 2.916.201 5.853 7.045 10.271 15.555 12.62 25.284.066.272.13.544.194.817 1.769 7.585 2.629 14.582 2.813 21.209.03 1.077-.822 1.969-1.898 2.03-26.662 1.516-46.796 8.418-46.796 16.703 0 7.745 17.596 14.281 41.671 16.339 1.228.105 2.067 1.304 1.751 2.497z" fill="#489160"/><path d="m381.876 388.857c-7.837-8.298 4.183-20.317 12.481-12.481 6.205 5.86 12.513 11.989 18.867 18.342 31.092 31.092 56.784 61.095 72.119 83.232.86 1.241-.652 2.753-1.893 1.893-22.137-15.335-52.14-41.027-83.232-72.119-6.353-6.354-12.481-12.662-18.342-18.867z" fill="#356845"/></g></svg>