<svg id="Capa_1" enable-background="new 0 0 512 512" height="512" viewBox="0 0 512 512" width="512" xmlns="http://www.w3.org/2000/svg"><g><path d="m502 344.67v27l10 6.34v32.39c0 3.87-3.13 7-7 7h-308.08v-39.39l10-6.68v-27l-10-5.7v-181.47c0-8.53 6.92-15.45 15.45-15.45h284.17c8.54 0 15.46 6.92 15.46 15.45v181.47z" fill="#eaf6ff"/><path d="m157.54 160.823v20.27l-7.54 10h-25l-6.84-10v-20.27c0-10.55 8.55-19.11 19.11-19.11h1.16c3.56 0 6.9.98 9.76 2.69 5.6 3.32 9.35 9.439 9.35 16.42z" fill="#f07281"/><path d="m148.19 144.402c-.01.07-.02.15-.04.22-5.63 3.45-9.39 9.68-9.39 16.78v19.69h-20.6v-20.27c0-10.55 8.55-19.11 19.11-19.11h1.16c3.56.001 6.9.981 9.76 2.69z" fill="#eb5569"/><path d="m186.92 345.022v26.25l10 6.74v39.39h-189.92c-3.87 0-7-3.13-7-7v-32.38l10-5.25v-28.25l-10-5.89v-16.79c0-1.86.74-3.64 2.05-4.95l37.33-37.34 41.62-69.029c6.67-11.75 13.5-18.08 18.7-19.43l57.84-10h39.38v157.54z" fill="#eaf6ff"/><g fill="#d8ecfe"><path d="m70.29 279.552-37.33 37.34c-1.32 1.31-2.05 3.09-2.05 4.95v95.56h-23.91c-3.87 0-7-3.13-7-7v-32.38l10-5.25v-28.25l-10-5.89v-16.79c0-1.86.74-3.64 2.05-4.95l37.33-37.34z"/><path d="m196.919 396.8v20.604h-189.919c-3.866 0-7-3.134-7-7v-13.604z"/><path d="m512 396.8v13.6c0 3.87-3.13 7-7 7h-308.08v-39.39l10-6.68v-27l-10-5.7v-181.47c0-8.53 6.92-15.45 15.45-15.45h15.45v255.09z"/></g><path d="m157.535 181.09v67.559c0 17.07-13.835 30.905-30.905 30.905h-87.246l31.616-79.035c4.698-11.734 16.061-19.429 28.701-19.429z" fill="#8ac9fe"/><path d="m130.606 181.09c-12.64 0-24.003 7.695-28.701 19.429l-31.616 79.036h-30.905l31.616-79.036c4.698-11.734 16.061-19.429 28.701-19.429z" fill="#60b7ff"/><path d="m.004 338.631h196.919v39.384h-196.919z" fill="#f07281"/><path d="m0 338.636h30.905v39.384h-30.905z" fill="#eb5569"/><path d="m196.924 338.631h315.071v39.384h-315.071z" fill="#f07281"/><path d="m196.919 338.636h30.906v39.384h-30.906z" fill="#eb5569"/><path d="m401.954 220.479h-25.384c-3.866 0-7-3.134-7-7v-25.384c0-3.866-3.134-7-7-7h-25.384c-3.866 0-7 3.134-7 7v25.384c0 3.866-3.134 7-7 7h-25.384c-3.866 0-7 3.134-7 7v25.384c0 3.866 3.134 7 7 7h25.384c3.866 0 7 3.134 7 7v25.384c0 3.866 3.134 7 7 7h25.384c3.866 0 7-3.134 7-7v-25.384c0-3.866 3.134-7 7-7h25.384c3.866 0 7-3.134 7-7v-25.384c0-3.866-3.134-7-7-7z" fill="#f07281"/><g><path d="m137.848 110.054c-4.267 0-7.726-3.459-7.726-7.726v-39.384c0-4.267 3.459-7.726 7.726-7.726s7.726 3.459 7.726 7.726v39.384c0 4.267-3.459 7.726-7.726 7.726z" fill="#92a0b5"/></g><g><path d="m169.076 118.21c-1.977 0-3.955-.755-5.463-2.263-3.018-3.017-3.018-7.91 0-10.927l27.849-27.849c3.017-3.017 7.909-3.017 10.926 0 3.018 3.017 3.018 7.91 0 10.927l-27.849 27.849c-1.509 1.509-3.486 2.263-5.463 2.263z" fill="#92a0b5"/></g><g><path d="m106.621 118.21c-1.977 0-3.955-.754-5.463-2.263l-27.849-27.848c-3.018-3.017-3.018-7.91 0-10.927 3.017-3.017 7.909-3.018 10.926 0l27.848 27.849c3.018 3.017 3.018 7.91 0 10.927-1.507 1.508-3.485 2.262-5.462 2.262z" fill="#92a0b5"/></g><ellipse cx="413.399" cy="410.425" fill="#92a0b5" rx="46.358" ry="46.358" transform="matrix(.35 -.937 .937 .35 -115.664 654.227)"/><circle cx="413.399" cy="410.425" fill="#eaf6ff" r="17.513"/><ellipse cx="98.464" cy="410.425" fill="#92a0b5" rx="46.358" ry="46.358" transform="matrix(.707 -.707 .707 .707 -261.375 189.835)"/><circle cx="98.465" cy="410.425" fill="#eaf6ff" r="17.513"/></g></svg>