<svg id="Capa_1" enable-background="new 0 0 512 512" height="512" viewBox="0 0 512 512" width="512" xmlns="http://www.w3.org/2000/svg" xmlns:xlink="http://www.w3.org/1999/xlink"><linearGradient id="SVGID_1_" gradientUnits="userSpaceOnUse" x1="-9.013" x2="466.018" y1="155.285" y2="383.575"><stop offset="0" stop-color="#c6d1ff"/><stop offset=".5834" stop-color="#e6d5f4"/><stop offset=".997" stop-color="#ffd9ec"/></linearGradient><linearGradient id="SVGID_2_" gradientUnits="userSpaceOnUse" x1="256" x2="256" y1="35.629" y2="460.947"><stop offset=".0028" stop-color="#ff7eb8" stop-opacity="0"/><stop offset="1" stop-color="#ff7eb8" stop-opacity=".6"/></linearGradient><g><g><path d="m471.476 135.605c-65.417-50.293-128.867-9.306-199.64-23.797-71.285-14.597-99.685-63.201-180.876-40.766-71.922 19.874-115.562 99.551-76.024 166.258 11.267 19.009 30.461 33.35 38.305 54.619 12.653 34.311-6.607 60.653-2.85 94.372 15.612 140.101 229.574 85.834 308.303 42.245 123.47-68.359 206.998-220.496 112.782-292.931z" fill="url(#SVGID_1_)"/></g><g><g><path d="m373.55 45.629v407.76c0 3.74-3.94 6.16-7.27 4.46l-13.96-7.13c-1.43-.73-3.12-.73-4.55 0l-18.96 9.68c-1.43.73-3.12.73-4.54 0l-18.97-9.68c-1.42-.73-3.11-.73-4.54 0l-18.96 9.68c-1.43.73-3.12.73-4.55 0l-18.96-9.68c-1.43-.73-3.12-.73-4.55 0l-18.97 9.68c-1.42.73-3.11.73-4.54 0l-18.97-9.68c-1.42-.73-3.12-.73-4.54 0l-18.97 9.68c-1.43.73-3.12.73-4.55 0l-18.96-9.68c-1.43-.73-3.12-.73-4.55 0l-13.97 7.13c-3.33 1.7-7.27-.72-7.27-4.45v-407.77c0-5.52 4.47-10 10-10h215.1c5.53 0 10 4.48 10 10z" fill="#fff"/><path d="m373.55 146.889v106.54c-29.42 0-53.27-23.85-53.27-53.27s23.85-53.27 53.27-53.27z" fill="#dcfdee"/></g><g><g><g><path d="m261 220.194h-86.52c-2.762 0-5-2.239-5-5s2.238-5 5-5h86.52c2.762 0 5 2.239 5 5s-2.238 5-5 5z" fill="#8399fe"/></g><g><path d="m186 200.162h-11.52c-2.762 0-5-2.239-5-5s2.238-5 5-5h11.52c2.762 0 5 2.239 5 5s-2.238 5-5 5z" fill="#01eca5"/></g></g><g><g><path d="m281 265.601h-106.52c-2.762 0-5-2.239-5-5s2.238-5 5-5h106.52c2.762 0 5 2.239 5 5 0 2.762-2.238 5-5 5z" fill="#8399fe"/></g><g><path d="m186 245.57h-11.52c-2.762 0-5-2.239-5-5s2.238-5 5-5h11.52c2.762 0 5 2.239 5 5s-2.238 5-5 5z" fill="#01eca5"/></g></g><g><g><path d="m271 311.009h-96.52c-2.762 0-5-2.239-5-5s2.238-5 5-5h96.52c2.762 0 5 2.239 5 5s-2.238 5-5 5z" fill="#8399fe"/></g><g><path d="m186 290.977h-11.52c-2.762 0-5-2.239-5-5s2.238-5 5-5h11.52c2.762 0 5 2.239 5 5s-2.238 5-5 5z" fill="#01eca5"/></g></g><g><g><path d="m231 356.416h-56.52c-2.762 0-5-2.239-5-5s2.238-5 5-5h56.52c2.762 0 5 2.239 5 5s-2.238 5-5 5z" fill="#8399fe"/></g><g><path d="m276.76 356.416h-21.52c-2.762 0-5-2.239-5-5s2.238-5 5-5h21.52c2.762 0 5 2.239 5 5s-2.238 5-5 5z" fill="#8399fe"/></g><g><path d="m186 336.384h-11.52c-2.762 0-5-2.239-5-5s2.238-5 5-5h11.52c2.762 0 5 2.239 5 5s-2.238 5-5 5z" fill="#01eca5"/></g></g><g><g><g><path d="m334.616 220.194h-16.52c-2.762 0-5-2.239-5-5s2.238-5 5-5h16.52c2.762 0 5 2.239 5 5s-2.239 5-5 5z" fill="#8399fe"/></g></g><g><g><path d="m339.62 215.189c0 2.77-2.24 5-5 5h-10.45c-1.29-3.19-2.29-6.54-2.95-10h13.4c2.76 0 5 2.24 5 5z" fill="#6583fe"/></g></g><g><g><path d="m334.616 265.601h-16.52c-2.762 0-5-2.239-5-5s2.238-5 5-5h16.52c2.762 0 5 2.239 5 5 0 2.762-2.239 5-5 5z" fill="#8399fe"/></g></g><g><g><path d="m334.616 311.009h-16.52c-2.762 0-5-2.239-5-5s2.238-5 5-5h16.52c2.762 0 5 2.239 5 5s-2.239 5-5 5z" fill="#8399fe"/></g></g><g><g><path d="m334.616 356.416h-16.52c-2.762 0-5-2.239-5-5s2.238-5 5-5h16.52c2.762 0 5 2.239 5 5s-2.239 5-5 5z" fill="#8399fe"/></g></g></g><g><path d="m332.961 336.442c-2.761 0-5-2.239-5-5v-.115c0-2.761 2.239-5 5-5s5 2.239 5 5v.115c0 2.761-2.238 5-5 5z" fill="#01eca5"/></g><g><g><path d="m334.616 414.289h-24.14c-2.762 0-5-2.239-5-5s2.238-5 5-5h24.14c2.762 0 5 2.239 5 5s-2.239 5-5 5z" fill="#8399fe"/></g></g><g><g><path d="m208.621 414.289h-34.14c-2.762 0-5-2.239-5-5s2.238-5 5-5h34.14c2.762 0 5 2.239 5 5s-2.239 5-5 5z" fill="#8399fe"/></g></g><g><path d="m332.961 291.035c-2.761 0-5-2.239-5-5v-.115c0-2.761 2.239-5 5-5s5 2.239 5 5v.115c0 2.761-2.238 5-5 5z" fill="#01eca5"/></g><g><path d="m332.961 245.627c-2.761 0-5-2.239-5-5v-.115c0-2.761 2.239-5 5-5s5 2.239 5 5v.115c0 2.761-2.238 5-5 5z" fill="#01eca5"/></g><g><path d="m332.961 200.22c-2.761 0-5-2.239-5-5v-.115c0-2.761 2.239-5 5-5s5 2.239 5 5v.115c0 2.761-2.238 5-5 5z" fill="#01eca5"/></g></g><g><path d="m276.76 161.009h-41.52c-2.762 0-5-2.239-5-5s2.238-5 5-5h41.52c2.762 0 5 2.239 5 5s-2.238 5-5 5z" fill="#8399fe"/></g><g><path d="m304.26 124.063h-96.52c-2.762 0-5-2.239-5-5s2.238-5 5-5h96.52c2.762 0 5 2.239 5 5 0 2.762-2.238 5-5 5z" fill="#4369fd"/></g><g><path d="m329.26 102.118h-146.52c-2.762 0-5-2.239-5-5s2.238-5 5-5h146.52c2.762 0 5 2.239 5 5s-2.238 5-5 5z" fill="#4369fd"/></g><g><path d="m186 80.172h-11.52c-2.762 0-5-2.239-5-5s2.238-5 5-5h11.52c2.762 0 5 2.239 5 5 0 2.762-2.238 5-5 5z" fill="#01eca5"/></g><path d="m373.55 45.629v407.76c0 3.74-3.94 6.16-7.27 4.46l-13.96-7.13c-1.43-.73-3.12-.73-4.55 0l-18.96 9.68c-1.43.73-3.12.73-4.54 0l-18.97-9.68c-1.42-.73-3.11-.73-4.54 0l-18.96 9.68c-1.43.73-3.12.73-4.55 0l-18.96-9.68c-1.43-.73-3.12-.73-4.55 0l-18.97 9.68c-1.42.73-3.11.73-4.54 0l-18.97-9.68c-1.42-.73-3.12-.73-4.54 0l-18.97 9.68c-1.43.73-3.12.73-4.55 0l-18.96-9.68c-1.43-.73-3.12-.73-4.55 0l-13.97 7.13c-3.33 1.7-7.27-.72-7.27-4.45v-407.77c0-5.52 4.47-10 10-10h215.1c5.53 0 10 4.48 10 10z" fill="url(#SVGID_2_)"/><g><g><circle cx="373.553" cy="177.333" fill="#01eca5" r="53.269"/></g><path d="m380.069 172.333h-1.516v-10.18h9.454c2.761 0 5-2.239 5-5s-2.239-5-5-5h-9.454v-2.514c0-2.761-2.239-5-5-5s-5 2.239-5 5v2.514h-1.516c-8.321 0-15.09 6.769-15.09 15.09s6.769 15.09 15.09 15.09h1.516v10.18h-9.453c-2.761 0-5 2.239-5 5s2.239 5 5 5h9.453v2.514c0 2.761 2.239 5 5 5s5-2.239 5-5v-2.514h1.516c8.32 0 15.089-6.769 15.089-15.09s-6.769-15.09-15.089-15.09zm-13.032 0c-2.807 0-5.09-2.283-5.09-5.09s2.283-5.09 5.09-5.09h1.516v10.18zm13.032 20.179h-1.516v-10.18h1.516c2.806 0 5.089 2.283 5.089 5.09.001 2.807-2.283 5.09-5.089 5.09z" fill="#fff"/></g></g><path d="m411.18 84.666c-3.713 0-7.426-1.414-10.253-4.24-5.653-5.653-5.653-14.852 0-20.506s14.853-5.654 20.506 0c5.653 5.654 5.653 14.853 0 20.506-2.826 2.826-6.539 4.24-10.253 4.24zm.001-18.992c-1.153 0-2.305.438-3.182 1.316-1.754 1.754-1.754 4.609 0 6.364 1.754 1.754 4.609 1.755 6.364 0 1.754-1.754 1.754-4.609 0-6.364-.878-.877-2.03-1.316-3.182-1.316z" fill="#00eca2"/><path d="m436.322 133.556c-3.713.001-7.426-1.413-10.253-4.24-2.739-2.739-4.247-6.38-4.247-10.253s1.508-7.514 4.247-10.253c5.652-5.653 14.851-5.654 20.505 0 2.739 2.739 4.247 6.38 4.247 10.253 0 3.874-1.508 7.515-4.248 10.253-2.824 2.827-6.538 4.24-10.251 4.24zm0-18.99c-1.152 0-2.305.438-3.182 1.316-.851.85-1.318 1.98-1.318 3.182s.468 2.332 1.318 3.182c1.755 1.755 4.61 1.755 6.364 0 .851-.85 1.318-1.98 1.318-3.182s-.468-2.331-1.318-3.182c-.877-.878-2.029-1.316-3.182-1.316z" fill="#ff7eb8"/><path d="m105.379 239.048c-3.713 0-7.427-1.414-10.253-4.24-5.653-5.654-5.653-14.852 0-20.506 5.653-5.652 14.853-5.653 20.506 0 5.653 5.654 5.653 14.853 0 20.506-2.826 2.827-6.54 4.24-10.253 4.24zm0-18.991c-1.152 0-2.305.438-3.182 1.316-1.755 1.754-1.755 4.609 0 6.364 1.754 1.755 4.61 1.754 6.364 0 1.755-1.754 1.755-4.609 0-6.364-.877-.877-2.029-1.316-3.182-1.316z" fill="#ff7eb8"/><path d="m98.933 283.989c-1.28 0-2.559-.488-3.536-1.464l-5.964-5.964-5.964 5.964c-1.953 1.952-5.118 1.952-7.071 0-1.953-1.953-1.953-5.119 0-7.071l9.5-9.5c1.953-1.952 5.118-1.952 7.071 0l9.5 9.5c1.953 1.953 1.953 5.119 0 7.071-.977.976-2.256 1.464-3.536 1.464z" fill="#6583fe"/><path d="m426.822 428.789c-1.28 0-2.559-.488-3.536-1.464l-5.964-5.964-5.964 5.964c-1.953 1.952-5.118 1.952-7.071 0-1.953-1.953-1.953-5.119 0-7.071l9.5-9.5c1.953-1.952 5.118-1.952 7.071 0l9.5 9.5c1.953 1.953 1.953 5.119 0 7.071-.977.976-2.256 1.464-3.536 1.464z" fill="#00eca2"/></g></svg>