<svg id="Capa_1" enable-background="new 0 0 512 512" height="512" viewBox="0 0 512 512" width="512" xmlns="http://www.w3.org/2000/svg"><g><g clip-rule="evenodd" fill-rule="evenodd"><path d="m17.958 163.406c-5.489 0-8.02 2.474-8.02 8.049v105.789c0 27.386 22.21 49.597 49.596 49.597l80.168-1.679v-161.756z" fill="#bed8fb"/><path d="m47.932 325.476c3.1.739 6.313 1.194 9.612 1.309h4.067l78.092-1.622v-161.757h-53.579v113.781c0 23.461-16.295 43.114-38.192 48.289z" fill="#9dc6fb"/><path d="m223.339 326.841h-163.805c27.387 0 49.568-22.211 49.568-49.597v-227.647c0-27.387 22.211-49.597 49.597-49.597l49.624.682z" fill="#ddeafb"/><path d="m223.339 326.841h-40.127v-277.244c0-23.063-15.727-42.431-37.055-48.005 4.011-1.024 8.219-1.592 12.542-1.592l49.624.682z" fill="#cbe2ff"/><path d="m502.062 505.632v-456.035c0-27.387-22.21-49.597-49.596-49.597h-293.767c27.386 0 49.596 22.21 49.596 49.597v456.035c0 5.488 2.702 6.797 7.309 4.692l22.097-10.095c4.778-2.19 9.811-2.219 14.617 0l22.126 10.095c5.033 2.304 9.896 2.134 14.588 0l22.126-10.095c4.891-2.247 10.01-2.105 14.588 0l22.126 10.095c4.976 2.274 9.981 2.105 14.617 0l22.096-10.095c5.176-2.36 9.869-2.19 14.618 0l22.124 10.095c5.233 2.389 10.039 2.075 14.589 0l22.124-10.095c4.863-2.247 9.897-2.162 14.589 0l22.125 10.095c5.346 2.447 7.308.967 7.308-4.692z" fill="#f5faff"/><path d="m502.062 505.632v-456.035c0-27.387-22.21-49.597-49.596-49.597h-25.082c27.386 0 49.596 22.21 49.596 49.597v452.595l17.773 8.133c5.347 2.446 7.309.966 7.309-4.693z" fill="#ecf4ff"/></g><path d="m347.784 33.699c0-4.18 3.384-7.536 7.536-7.536s7.508 3.356 7.508 7.536v8.93c13.622 1.849 21.898 9.47 21.926 9.498 3.071 2.759 3.298 7.508.511 10.579-2.758 3.071-7.507 3.299-10.579.513 0 0-4.323-3.982-11.859-5.433v41.607c2.531.966 5.204 1.961 8.048 2.957 12.285 4.321 19.707 12.626 22.978 22.238 2.076 6.086 2.417 12.654 1.194 18.996-1.194 6.258-3.867 12.314-7.877 17.518-5.688 7.366-13.991 12.968-24.343 14.846v10.578c0 4.152-3.355 7.536-7.508 7.536-4.152 0-7.536-3.384-7.536-7.536v-9.982c-3.811-.17-7.195-.568-10.579-1.393-5.603-1.394-10.806-3.839-17.433-8.162-3.47-2.275-4.436-6.939-2.161-10.409 2.275-3.469 6.911-4.436 10.409-2.161 5.147 3.357 8.958 5.204 12.769 6.143 2.133.541 4.408.826 6.996.968v-52.042c-.768-.342-1.536-.682-2.274-1.023-6.086-2.815-11.234-5.774-15.443-9.071-4.407-3.442-7.336-8.077-8.872-13.254-1.507-5.005-1.706-10.55-.655-15.896 1.052-5.317 3.328-10.523 6.797-14.93 3.925-5.005 9.3-8.986 16.04-11.005 1.507-.456 2.957-.825 4.407-1.111zm15.044 81.732v45.103c5.204-1.564 9.441-4.691 12.456-8.616 2.559-3.299 4.266-7.138 5.005-11.09.739-3.868.569-7.821-.683-11.433-1.848-5.46-6.256-10.239-13.735-12.883-1.024-.37-2.048-.74-3.043-1.081zm-15.044-22.579v-34.184l-.142.028c-3.555 1.081-6.427 3.186-8.475 5.83-1.962 2.502-3.271 5.488-3.868 8.588-.597 3.015-.512 6.058.285 8.731.711 2.331 1.934 4.321 3.697 5.715 2.332 1.822 5.177 3.585 8.503 5.292z" fill="#80b4fb"/><path d="m326.598 278.24c-4.152 0-7.536-3.384-7.536-7.537 0-4.151 3.384-7.536 7.536-7.536h113.127c4.152 0 7.536 3.385 7.536 7.536 0 4.153-3.384 7.537-7.536 7.537zm0-28.098c-4.152 0-7.536-3.383-7.536-7.535s3.384-7.508 7.536-7.508h138.21c4.152 0 7.536 3.355 7.536 7.508 0 4.152-3.384 7.535-7.536 7.535z" fill="#e28086"/><path d="m326.598 358.492c-4.152 0-7.536-3.385-7.536-7.536 0-4.152 3.384-7.508 7.536-7.508h113.127c4.152 0 7.536 3.355 7.536 7.508 0 4.151-3.384 7.536-7.536 7.536zm0-28.096c-4.152 0-7.536-3.355-7.536-7.536 0-4.152 3.384-7.508 7.536-7.508h138.21c4.152 0 7.536 3.355 7.536 7.508 0 4.181-3.384 7.536-7.536 7.536z" fill="#e28086"/><path d="m326.598 438.745c-4.152 0-7.536-3.355-7.536-7.536 0-4.152 3.384-7.508 7.536-7.508h113.127c4.152 0 7.536 3.355 7.536 7.508 0 4.181-3.384 7.536-7.536 7.536zm0-28.097c-4.152 0-7.536-3.356-7.536-7.509 0-4.151 3.384-7.536 7.536-7.536h138.21c4.152 0 7.536 3.385 7.536 7.536 0 4.152-3.384 7.509-7.536 7.509z" fill="#e28086"/><path clip-rule="evenodd" d="m259.768 394.608h29.092c4.408 0 8.02 3.612 8.02 8.02v29.093c0 4.408-3.612 8.021-8.02 8.021h-29.092c-4.437 0-8.048-3.612-8.048-8.021v-29.093c0-4.407 3.612-8.02 8.048-8.02zm0-160.534h29.092c4.408 0 8.02 3.612 8.02 8.049v29.092c0 4.408-3.612 8.02-8.02 8.02h-29.092c-4.437 0-8.048-3.611-8.048-8.02v-29.092c0-4.437 3.612-8.049 8.048-8.049zm0 80.282h29.092c4.408 0 8.02 3.611 8.02 8.02v29.093c0 4.407-3.612 8.018-8.02 8.018h-29.092c-4.437 0-8.048-3.611-8.048-8.018v-29.093c0-4.408 3.612-8.02 8.048-8.02z" fill="#77c9a5" fill-rule="evenodd"/></g></svg>