<?xml version="1.0" encoding="iso-8859-1"?>
<!-- Generator: Adobe Illustrator 19.0.0, SVG Export Plug-In . SVG Version: 6.00 Build 0)  -->
<svg version="1.1" id="Capa_1" xmlns="http://www.w3.org/2000/svg" xmlns:xlink="http://www.w3.org/1999/xlink" x="0px" y="0px"
	 viewBox="0 0 480 480" style="enable-background:new 0 0 480 480;" xml:space="preserve">
<rect x="67.71" y="51.721" transform="matrix(-0.7071 0.7071 -0.7071 -0.7071 220.4347 68.6947)" style="fill:#D4C8B8;" width="56.56" height="56.56"/>
<polygon style="fill:#1E81CE;" points="136,80 96,120 56,80 0,136 192,136 "/>
<rect x="355.703" y="51.744" transform="matrix(-0.7071 0.7071 -0.7071 -0.7071 712.0858 -134.9079)" style="fill:#D4C8B8;" width="56.56" height="56.56"/>
<polygon style="fill:#1E81CE;" points="344,80 384,120 424,80 480,136 288,136 "/>
<polygon style="fill:#EBE5DD;" points="240,104 280,144 320,104 240,24 160,104 200,144 "/>
<polygon style="fill:#5AAAE7;" points="320,104 280,144 240,104 200,144 160,104 96,168 384,168 "/>
<path style="fill:#69C229;" d="M385.21,257.248C379.542,250.345,376,241.629,376,232c0-22.091,17.909-40,40-40s40,17.909,40,40
	c0,9.629-3.542,18.345-9.21,25.248C461.969,267.265,472,284.452,472,304c0,30.928-25.072,56-56,56s-56-25.072-56-56
	C360,284.452,370.031,267.265,385.21,257.248z"/>
<polygon style="fill:#806749;" points="424,216 424,228.688 426.344,226.344 437.656,237.656 424,251.313 424,300.688 
	442.344,282.344 453.656,293.656 424,323.313 424,408 408,408 408,216 "/>
<path style="fill:#69C229;" d="M94.79,257.248c5.668-6.903,9.21-15.618,9.21-25.248c0-22.091-17.909-40-40-40s-40,17.909-40,40
	c0,9.629,3.542,18.345,9.21,25.248C18.031,267.265,8,284.452,8,304c0,30.928,25.072,56,56,56s56-25.072,56-56
	C120,284.452,109.969,267.265,94.79,257.248z"/>
<g>
	<polygon style="fill:#E7B900;" points="144,272 192,224 144,224 	"/>
	<polygon style="fill:#E7B900;" points="336,272 288,224 336,224 	"/>
</g>
<polygon style="fill:#FFD422;" points="376,408 376,312 240,176 104,312 104,408 "/>
<rect y="400" style="fill:#47821B;" width="480" height="16"/>
<rect x="224" y="232" style="fill:#5AAAE7;" width="32" height="40"/>
<rect x="224" y="344" style="fill:#884D00;" width="32" height="64"/>
<g>
	<rect x="320" y="344" style="fill:#5AAAE7;" width="24" height="32"/>
	<rect x="136" y="344" style="fill:#5AAAE7;" width="24" height="32"/>
</g>
<polygon style="fill:#A6001E;" points="256,192 352,192 352,224 288,224 "/>
<g>
	<rect x="184" y="312" style="fill:#693B00;" width="16" height="96"/>
	<rect x="280" y="312" style="fill:#693B00;" width="16" height="96"/>
</g>
<g>
	<polygon style="fill:#A6001E;" points="224,192 128,192 128,224 192,224 	"/>
	<polygon style="fill:#A6001E;" points="144,272 104,272 104,312 	"/>
	<polygon style="fill:#A6001E;" points="336,272 376,272 376,312 	"/>
</g>
<polygon style="fill:#806749;" points="56,216 56,228.688 53.656,226.344 42.344,237.656 56,251.313 56,300.688 37.656,282.344 
	26.344,293.656 56,323.313 56,408 72,408 72,216 "/>
<path style="fill:#F40E34;" d="M386.344,333.656L240,187.313L93.656,333.656l-11.313-11.313l152-152
	c3.125-3.125,8.188-3.125,11.313,0l152,152L386.344,333.656z"/>
<path style="fill:#884D00;" d="M288,264h-96c-4.418,0-8,3.578-8,8v40c0,4.422,3.582,8,8,8h96c4.418,0,8-3.578,8-8v-40
	C296,267.578,292.418,264,288,264z M248,280v24h-16v-24H248z M200,280h16v24h-16V280z M280,304h-16v-24h16V304z"/>
<rect y="416" style="fill:#CA7300;" width="480" height="40"/>
<g>
</g>
<g>
</g>
<g>
</g>
<g>
</g>
<g>
</g>
<g>
</g>
<g>
</g>
<g>
</g>
<g>
</g>
<g>
</g>
<g>
</g>
<g>
</g>
<g>
</g>
<g>
</g>
<g>
</g>
</svg>
