<svg height="480pt" viewBox="-4 0 480 480.00002" width="480pt" xmlns="http://www.w3.org/2000/svg" xmlns:xlink="http://www.w3.org/1999/xlink"><linearGradient id="a" gradientUnits="userSpaceOnUse" x1="-5.640184" x2="420.295816" y1="437.656002" y2="11.720002"><stop offset="0" stop-color="#41dfd0"/><stop offset="1" stop-color="#ee83ef"/></linearGradient><path d="m280.566406 50.753906c.074219.175782.113282.351563.183594.527344.074219.175781.058594.199219.105469.292969l11.585937 23.203125c4.050782 8.132812 12.375 13.261718 21.460938 13.222656h30.402344l-22.402344 26.878906c-1.980469 2.382813-2.410156 5.691406-1.101563 8.5 1.304688 2.808594 4.117188 4.609375 7.214844 4.621094h32c2.121094 0 4.15625-.84375 5.65625-2.34375l37.65625-37.65625h52.6875c6.058594 0 11.601563-3.425781 14.3125-8.84375 2.707031-5.421875 2.125-11.90625-1.511719-16.757812l-4.800781-6.398438c-7.574219-10.046875-19.417969-15.96875-32-16h-106.582031l-13.984375-34.976562c-1.21875-3.035157-4.160157-5.02734425-7.433594-5.023438h-16c-4.417969 0-8 3.582031-8 8v40c0 .113281.054687.199219.0625.3125.035156.832031.199219 1.65625.488281 2.441406zm76.136719 61.246094h-11.605469l26.664063-32h16.941406zm94.511719-46.398438 4.800781 6.398438h-40.070313c.058594-2.125-.753906-4.183594-2.253906-5.695312-1.496094-1.511719-3.546875-2.34375-5.675781-2.304688h-40c-2.375 0-4.625 1.054688-6.144531 2.878906l-4.253906 5.121094h-43.714844c-3.03125.007812-5.804688-1.707031-7.152344-4.425781l-5.789062-11.574219h131.054687c7.550781.019531 14.65625 3.570312 19.199219 9.601562zm-152.613282-49.601562 9.597657 24h-12.183594v-24zm-290.585937 216h296c4.417969 0 8-3.582031 8-8v-8c-.039063-35.328125-28.671875-63.960938-64-64h-240c-4.417969 0-8 3.582031-8 8v64c0 4.417969 3.582031 8 8 8zm8-64h232c13.628906.011719 26.605469 5.832031 35.679687 16h-59.679687v16h69.199219c1.839844 5.132812 2.789062 10.546875 2.800781 16h-280zm16 16h16v16h-16zm32 0h16v16h-16zm32 0h16v16h-16zm32 0h16v16h-16zm32 0h16v16h-16zm32 0h16v16h-16zm32 184c5.691406-.015625 10.941406-3.066406 13.777344-8h60.445312c2.824219 4.945312 8.082031 7.996094 13.777344 7.996094s10.953125-3.050782 13.777344-7.996094h18.222656c4.417969 0 8-3.582031 8-8v-40c-.003906-1.578125-.46875-3.125-1.34375-4.441406l-16-24c-1.484375-2.222656-3.980469-3.558594-6.65625-3.558594h-48v-8c0-4.417969-3.582031-8-8-8h-80c-4.417969 0-8 3.582031-8 8v80c0 4.417969 3.582031 8 8 8h18.222656c2.835938 4.933594 8.085938 7.984375 13.777344 8zm99.71875-72 10.679687 16h-22.398437v-16zm-27.71875 0v24c0 4.417969 3.582031 8 8 8h32v16h-10.222656c-2.824219-4.945312-8.082031-7.996094-13.777344-7.996094s-10.953125 3.050782-13.777344 7.996094h-18.222656v-48zm-96-16h64v64h-26.222656c-2.824219-4.945312-8.082031-7.996094-13.777344-7.996094s-10.953125 3.050782-13.777344 7.996094h-10.222656zm-144 64h-32c-4.417969 0-8 3.582031-8 8v56h-8c-2.859375-.003906-5.507813 1.515625-6.941406 3.992188-1.429688 2.476562-1.433594 5.53125-.003907 8.007812l32 56c1.433594 2.480469 4.082032 4.003906 6.945313 4h120c2.863281.003906 5.511719-1.519531 6.945313-4l32-56c1.429687-2.476562 1.429687-5.53125-.003907-8.007812-1.433593-2.476563-4.082031-3.996094-6.941406-3.992188h-24c-1.238281-.011719-2.460937.261719-3.574219.800781l-14.3125 7.199219h-6.113281v-24c0-4.417969-3.582031-8-8-8h-40c0-4.417969-3.582031-8-8-8h-24v-24c0-4.417969-3.582031-8-8-8zm-24 16h16v48h-16zm120 72c1.238281.011719 2.460937-.261719 3.578125-.800781l14.308594-7.199219h8.328125l-22.855469 40h-110.71875l-22.855469-40h32.328125l14.3125 7.199219c1.113282.539062 2.335938.8125 3.574219.800781zm-24-32v16h-32v-16zm-48-8v24h-6.113281l-9.886719-4.945312v-19.054688zm184-376h-32v-16h32zm-32 64v-16h32v16zm32-32h-56v-16h56zm-96 240h-32v-16h32zm-32 64v-16h32v16zm-24-48h56v16h-56zm0 0" fill="url(#a)"/></svg>