<svg height="472pt" viewBox="-8 0 472 472" width="472pt" xmlns="http://www.w3.org/2000/svg"><path d="m256 288h64l16 24v40h-80zm0 0" fill="#f3af3e"/><path d="m296 288v32h40v-8l-16-24zm0 0" fill="#c0f5f9"/><path d="m312 288h-16v32h32v-8zm0 0" fill="#b3e4e8"/><path d="m320 352c0 8.835938-7.164062 16-16 16s-16-7.164062-16-16 7.164062-16 16-16 16 7.164062 16 16zm0 0" fill="#cbcbcb"/><path d="m312 352c0 4.417969-3.582031 8-8 8s-8-3.582031-8-8 3.582031-8 8-8 8 3.582031 8 8zm0 0" fill="#ebebeb"/><path d="m312 48v8h-24l-8-8v-40h16zm0 0" fill="#f55648"/><path d="m296 224h-296v-64h240c30.929688 0 56 25.070312 56 56zm0 0" fill="#e4e4e2"/><path d="m285.921875 184h-69.921875v16h77.648438c-1.703126-5.714844-4.3125-11.117188-7.726563-16zm0 0" fill="#8aced8"/><g fill="#6fbbc6"><path d="m216 184v16h64c-1.703125-5.714844-4.3125-11.117188-7.726562-16zm0 0"/><path d="m24 184h16v16h-16zm0 0"/><path d="m56 184h16v16h-16zm0 0"/><path d="m88 184h16v16h-16zm0 0"/><path d="m120 184h16v16h-16zm0 0"/><path d="m152 184h16v16h-16zm0 0"/><path d="m184 184h16v16h-16zm0 0"/></g><path d="m72 392h56v40h-56zm0 0" fill="#f3af3e"/><path d="m224 0h32v16h-32zm0 0" fill="#ebebeb"/><path d="m224 64h32v16h-32zm0 0" fill="#ebebeb"/><path d="m200 32h56v16h-56zm0 0" fill="#ebebeb"/><path d="m128 272h32v16h-32zm0 0" fill="#ebebeb"/><path d="m128 336h32v16h-32zm0 0" fill="#ebebeb"/><path d="m104 304h56v16h-56zm0 0" fill="#ebebeb"/><path d="m448 80h-142.113281c-6.058594 0-11.601563-3.425781-14.3125-8.847656l-11.574219-23.152344h144c10.070312 0 19.558594 4.742188 25.601562 12.800781l4.796876 6.398438c1.820312 2.425781 2.113281 5.667969.757812 8.378906s-4.125 4.421875-7.15625 4.421875zm0 0" fill="#e4e4e2"/><path d="m256 288h24v64h-24zm0 0" fill="#ea9d2d"/><path d="m184 272h80v80h-80zm0 0" fill="#e06661"/><path d="m232 352c0 8.835938-7.164062 16-16 16s-16-7.164062-16-16 7.164062-16 16-16 16 7.164062 16 16zm0 0" fill="#cbcbcb"/><path d="m224 352c0 4.417969-3.582031 8-8 8s-8-3.582031-8-8 3.582031-8 8-8 8 3.582031 8 8zm0 0" fill="#ebebeb"/><path d="m72 416h56v16h-56zm0 0" fill="#ea9d2d"/><path d="m80 432h-40v-48h40zm0 0" fill="#8dc79d"/><path d="m80 432v-16h-16l-16-8h-8v24zm0 0" fill="#85bc94"/><path d="m16 352h32v72h-32zm0 0" fill="#e06661"/><path d="m16 408h32v16h-32zm0 0" fill="#b6534f"/><path d="m152 472h-120l-32-56h48l16 8h80l16-8h24zm0 0" fill="#8aced8"/><path d="m280 40v8h32l-3.199219-8zm0 0" fill="#dc4d41"/><path d="m360 72h40v8h-40zm0 0" fill="#dbdbdb"/><path d="m360 72h40l-56 48h-24zm0 0" fill="#f55648"/></svg>