<svg id="Capa_1" enable-background="new 0 0 512 512" height="512" viewBox="0 0 512 512" width="512" xmlns="http://www.w3.org/2000/svg"><g><path d="m100.832 477.541h-39.348c-7.855 0-14.222-6.368-14.222-14.222v-82.173c0-7.855 6.368-14.222 14.222-14.222h39.348c7.855 0 14.222 6.367 14.222 14.222v82.173c0 7.855-6.367 14.222-14.222 14.222z" fill="#5a5a5a"/><path d="m450.229 477.541h-39.349c-7.855 0-14.222-6.368-14.222-14.222v-82.173c0-7.855 6.368-14.222 14.222-14.222h39.348c7.855 0 14.222 6.367 14.222 14.222v82.173c.001 7.855-6.367 14.222-14.221 14.222z" fill="#5a5a5a"/><path d="m100.832 366.924h-29.202c7.855 0 14.222 6.368 14.222 14.222v82.173c0 7.855-6.367 14.222-14.222 14.222h29.202c7.855 0 14.222-6.367 14.222-14.222v-82.173c0-7.854-6.367-14.222-14.222-14.222z" fill="#444"/><path d="m450.228 366.924h-29.202c7.855 0 14.222 6.368 14.222 14.222v82.173c0 7.855-6.367 14.222-14.222 14.222h29.202c7.855 0 14.222-6.367 14.222-14.222v-82.173c.001-7.854-6.367-14.222-14.222-14.222z" fill="#444"/><path d="m344.09 172.977h-176.18c-7.756 0-14.043-6.287-14.043-14.043v-103.669c0-11.491 9.316-20.807 20.807-20.807h162.653c11.491 0 20.807 9.316 20.807 20.807v103.668c-.001 7.756-6.288 14.044-14.044 14.044z" fill="#ebebeb"/><path d="m337.326 34.458h-162.652c-11.491 0-20.807 9.316-20.807 20.807v2.785h136.275c11.491 0 20.807 9.315 20.807 20.807v94.119h33.141c7.756 0 14.043-6.287 14.043-14.043v-103.668c0-11.491-9.316-20.807-20.807-20.807z" fill="#e2e2e2"/><g fill="#5a5a5a"><path d="m209.493 49.809h-25.091c-4.268 0-7.726 3.459-7.726 7.726s3.459 7.726 7.726 7.726h4.819v18.634c0 4.267 3.459 7.726 7.726 7.726 4.268 0 7.726-3.459 7.726-7.726v-18.633h4.819c4.268 0 7.726-3.459 7.726-7.726s-3.457-7.727-7.725-7.727z"/><path d="m247.822 54.285c-1.266-2.73-4-4.476-7.009-4.476s-5.743 1.746-7.009 4.476l-12.224 26.361c-1.796 3.871-.113 8.465 3.759 10.26 3.869 1.794 8.464.112 10.26-3.759l5.214-11.244 5.214 11.244c1.307 2.819 4.099 4.478 7.014 4.478 1.088 0 2.193-.231 3.245-.719 3.871-1.795 5.554-6.389 3.759-10.26z"/><path d="m308.812 51.914c-3.104-2.927-7.993-2.783-10.922.321l-6.805 7.218-6.805-7.218c-2.928-3.105-7.818-3.248-10.922-.321-3.106 2.927-3.25 7.817-.322 10.922l7.429 7.88-7.429 7.88c-2.928 3.105-2.784 7.995.322 10.922 1.492 1.407 3.397 2.105 5.299 2.105 2.053 0 4.103-.814 5.623-2.426l6.805-7.218 6.805 7.218c1.52 1.612 3.569 2.426 5.623 2.426 1.901 0 3.807-.697 5.299-2.105 3.106-2.927 3.25-7.817.322-10.922l-7.429-7.88 7.429-7.88c2.927-3.105 2.784-7.995-.322-10.922z"/><path d="m327.598 49.809c-4.268 0-7.726 3.459-7.726 7.726v26.361c0 4.267 3.459 7.726 7.726 7.726s7.726-3.459 7.726-7.726v-26.361c0-4.267-3.459-7.726-7.726-7.726z"/></g><path d="m378.048 106.972h-257.117c-16.178 0-29.999 11.666-32.714 27.615l-23.743 139.436h370.03l-23.742-139.436c-2.715-15.949-16.536-27.615-32.714-27.615z" fill="#fdb441"/><path d="m413.682 134.587c-2.716-15.949-16.536-27.615-32.714-27.615h-40.883c16.178 0 29.999 11.666 32.714 27.615l23.742 139.436h40.883z" fill="#fea613"/><path d="m461.962 242.557h-414.844c-11.66 0-21.258 9.173-21.785 20.821l-4.948 109.297h468.309l-4.948-109.297c-.526-11.648-10.124-20.821-21.784-20.821z" fill="#fec165"/><path d="m486.667 263.379c-.527-11.649-10.125-20.821-21.785-20.821h-40.883c11.66 0 21.258 9.173 21.785 20.821l4.948 109.297h40.883z" fill="#fdb441"/><path d="m509.08 394.564v-36.905c0-6.827-5.535-12.362-12.362-12.362h-484.356c-6.827-.001-12.362 5.534-12.362 12.362v36.905c0 6.827 5.535 12.362 12.362 12.362h484.355c6.828 0 12.363-5.535 12.363-12.362z" fill="#9c9c9c"/><path d="m115.385 205.692 9.434-63.526c.414-2.789 2.808-4.853 5.627-4.853h241.006c2.819 0 5.213 2.065 5.627 4.853l9.434 63.526c.51 3.437-2.152 6.525-5.627 6.525h-259.874c-3.475 0-6.138-3.088-5.627-6.525z" fill="#c0d6f2"/><circle cx="118.697" cy="293.758" fill="#fedba6" r="27.022"/><circle cx="393.303" cy="293.758" fill="#fedba6" r="27.022"/><path d="m327.427 314.301h-142.222c-5.236 0-9.481-4.245-9.481-9.481v-21.315c0-5.236 4.245-9.481 9.481-9.481h142.222c5.236 0 9.481 4.245 9.481 9.481v21.315c.001 5.236-4.244 9.481-9.481 9.481z" fill="#ffefd2"/><path d="m386.513 205.692-9.434-63.526c-.414-2.788-2.808-4.853-5.627-4.853h-35.042c2.819 0 5.213 2.065 5.627 4.853l9.434 63.526c.51 3.437-2.153 6.525-5.627 6.525h35.043c3.474 0 6.137-3.088 5.626-6.525z" fill="#b2caec"/><path d="m499.638 345.296h-37.963c6.827 0 12.362 5.535 12.362 12.362v36.905c0 6.827-5.535 12.362-12.362 12.362h37.963c6.827 0 12.362-5.535 12.362-12.362v-36.905c0-6.827-5.535-12.362-12.362-12.362z" fill="#838383"/><path d="m330.103 430.027h-148.206c-3.168 0-5.736-2.568-5.736-5.736v-42.098c0-3.168 2.568-5.736 5.736-5.736h148.207c3.168 0 5.736 2.568 5.736 5.736v42.098c-.001 3.168-2.569 5.736-5.737 5.736z" fill="#5a5a5a"/></g></svg>