<svg id="Layer_2" enable-background="new 0 0 64 64" height="512" viewBox="0 0 64 64" width="512" xmlns="http://www.w3.org/2000/svg"><path d="m2 12h60v50h-60z" fill="#edeff1"/><path d="m6 12h52v26h-52z" fill="#80d6fb"/><path d="m2 38h60v4h-60z" fill="#6e83b7"/><path d="m25 38h-16v-5c0-2.209 1.791-4 4-4h8c2.209 0 4 1.791 4 4z" fill="#ffe352"/><path d="m20 29c0 1.657-1.343 3-3 3s-3-1.343-3-3z" fill="#ffb236"/><path d="m22 35h3v3h-3z" fill="#fcb98b"/><path d="m9 35h3v3h-3z" fill="#fcb98b"/><path d="m22 34h3v1h-3z" fill="#ffb236"/><path d="m9 34h3v1h-3z" fill="#ffb236"/><path d="m15 28v1c0 1.105.895 2 2 2s2-.895 2-2v-1z" fill="#fcb98b"/><path d="m22 24c0 2.761-2.239 5-5 5s-5-2.239-5-5v-3h10z" fill="#ffd3b3"/><path d="m12 24 1-3h8l1 3v-4c0-1.105-.895-2-2-2 0-1.105-.895-2-2-2h-3c-1.657 0-3 1.343-3 3z" fill="#6e83b7"/><path d="m22 22v-1c.552 0 1 .448 1 1v1c0 .552-.448 1-1 1v-1z" fill="#fcb98b"/><path d="m12 22v-1c-.552 0-1 .448-1 1v1c0 .552.448 1 1 1v-1z" fill="#fcb98b"/><path d="m2 12c0 3.314 2.686 6 6 6s6-2.686 6-6v-8h-12z" fill="#ffb0aa"/><path d="m14 12c0 3.314 2.686 6 6 6s6-2.686 6-6v-8h-12z" fill="#edeff1"/><path d="m26 12c0 3.314 2.686 6 6 6s6-2.686 6-6v-8h-12z" fill="#ffb0aa"/><path d="m38 12c0 3.314 2.686 6 6 6s6-2.686 6-6v-8h-12z" fill="#edeff1"/><path d="m50 12c0 3.314 2.686 6 6 6s6-2.686 6-6v-8h-12z" fill="#ffb0aa"/><path d="m2 2h60v4h-60z" fill="#6e83b7"/><path d="m41.11 29c.24-.266.39-.614.39-1 0-.827-.673-1.5-1.5-1.5-.386 0-.734.15-1 .39-.266-.24-.614-.39-1-.39-.827 0-1.5.673-1.5 1.5 0 .386.15.734.39 1zm-1.11-1.5c.275 0 .5.224.5.5s-.225.5-.5.5-.5-.224-.5-.5.225-.5.5-.5zm-2 0c.275 0 .5.224.5.5s-.225.5-.5.5-.5-.224-.5-.5.225-.5.5-.5z" fill="#ffe352"/><path d="m33 29h12v2h-12z" fill="#ffb0aa"/><path d="m34 31h10v7h-10z" fill="#ffb0aa"/><path d="m34 31h10v1h-10z" fill="#ff7b7b"/><path d="m38 29h2v2h-2z" fill="#ffe352"/><path d="m38 31h2v7h-2z" fill="#ffe352"/><path d="m38 31h2v1h-2z" fill="#ffb236"/><path d="m53.11 24c.24-.266.39-.614.39-1 0-.827-.673-1.5-1.5-1.5-.386 0-.734.15-1 .39-.266-.24-.614-.39-1-.39-.827 0-1.5.673-1.5 1.5 0 .386.15.734.39 1zm-1.11-1.5c.275 0 .5.224.5.5s-.225.5-.5.5-.5-.224-.5-.5.225-.5.5-.5zm-2 0c.275 0 .5.224.5.5s-.225.5-.5.5-.5-.224-.5-.5.225-.5.5-.5z" fill="#ffe352"/><path d="m45 24h12v2h-12z" fill="#98ca69"/><path d="m46 26h10v12h-10z" fill="#98ca69"/><path d="m46 26h10v1h-10z" fill="#75aa40"/><path d="m50 24h2v2h-2z" fill="#ffe352"/><path d="m50 26h2v12h-2z" fill="#ffe352"/><path d="m50 26h2v1h-2z" fill="#ffb236"/><g fill="#6e83b7"><path d="m11 47h-2c-1.103 0-2 .897-2 2v2c0 1.103.897 2 2 2h2v2h-2v-1h-2v1c0 1.103.897 2 2 2h2c1.103 0 2-.897 2-2v-2c0-1.103-.897-2-2-2h-2v-2h2v1h2v-1c0-1.103-.897-2-2-2z"/><path d="m18 47h-2c-1.103 0-2 .897-2 2v6c0 1.103.897 2 2 2h2c1.103 0 2-.897 2-2v-6c0-1.103-.897-2-2-2zm-2 8v-6h2l.001 6z"/><path d="m57 49c0-1.103-.897-2-2-2h-4v10h2v-4h2v4h2v-4c0-.366-.106-.705-.278-1 .172-.295.278-.634.278-1zm-4 2v-2h2v2z"/><path d="m34.999 57h5.001v-2h-3.001v-2h2.001v-2h-2v-2h3v-2h-5z"/><path d="m25 55h-2v-8h-2v8c0 1.103.897 2 2 2h2c1.103 0 2-.897 2-2v-8h-2z"/><path d="m32 49.917-.847 5.083h-.306l-.847-5.083v-2.917h-2v3l1.153 7h3.694l1.139-6.835.014-3.165h-2z"/><path d="m45 50.586-2-2v-1.586h-2v10h2v-5.586l2 2v3.586h2v-10h-2z"/><path d="m48 47h2v10h-2z"/></g></svg>