<svg id="Capa_1" enable-background="new 0 0 512 512" height="512" viewBox="0 0 512 512" width="512" xmlns="http://www.w3.org/2000/svg"><g><g><g><g><path d="m352.785 63.603c-102.575 102.575-327.628 327.629-343.328 343.339-5.553-2.349-9.457-7.85-9.457-14.247v-329.092z" fill="#fee265"/></g><path d="m512 252.394v140.3c0 8.53-6.923 15.453-15.453 15.453h-443.719l307.457-307.457z" fill="#23f1a8"/><path d="m512 252.394v140.3c0 8.54-6.923 15.453-15.453 15.453h-44.061c8.54 0 15.453-6.913 15.453-15.453v-184.361z" fill="#26d192"/><path d="m512 63.603v238.24l-171.278-171.268 68.157-66.972z" fill="#31a7fb"/><path d="m455.999 63.603-344.533 344.544h-96.013c-8.53 0-15.453-6.922-15.453-15.452v-28.33l300.761-300.762z" fill="#deecf0"/><path d="m512 63.603v238.24l-44.061-44.061v-194.179z" fill="#1c96f9"/><path d="m159.596 19.357v64.932h-159.596v-49.479c0-8.54 6.923-15.453 15.453-15.453z" fill="#eef4f5"/><path d="m496.547 19.352h-348.284v64.932h363.737v-49.479c0-8.534-6.918-15.453-15.453-15.453z" fill="#cbe5e7"/><path d="m512 34.806v49.48h-44.061v-49.48c0-8.54-6.912-15.453-15.453-15.453h44.061c8.53 0 15.453 6.913 15.453 15.453z" fill="#a9d3d8"/><g><g id="XMLID_146_"><path d="m46.961 59.545c-.013 0-.025 0-.037 0l-.107-.001c-4.267-.02-7.71-3.495-7.69-7.763.02-4.255 3.476-7.69 7.725-7.69h.037.107c4.267.02 7.71 3.495 7.69 7.763-.02 4.256-3.476 7.691-7.725 7.691z" fill="#fb6a3b"/></g><g id="XMLID_145_"><path d="m73.845 59.545c-.013 0-.025 0-.037 0l-.107-.001c-4.267-.02-7.71-3.495-7.69-7.763.02-4.255 3.476-7.69 7.725-7.69h.037.107c4.267.02 7.71 3.495 7.69 7.763-.02 4.256-3.475 7.691-7.725 7.691z" fill="#fdd330"/></g><g id="XMLID_64_"><path d="m100.729 59.545c-.013 0-.025 0-.037 0l-.107-.001c-4.267-.02-7.71-3.495-7.69-7.763.02-4.255 3.476-7.69 7.725-7.69h.037.107c4.267.02 7.71 3.495 7.69 7.763-.019 4.256-3.475 7.691-7.725 7.691z" fill="#27e19d"/></g></g></g><g><g><g><g><g><g><g><g><path d="m330.079 346.184h33.535v50.743h-33.535z" fill="#557983" transform="matrix(.707 -.707 .707 .707 -161.141 354.085)"/><path d="m361.96 362.962c-2.365 5.045-5.628 9.764-9.787 13.924-4.114 4.103-8.8 7.399-13.901 9.809l-21.222-21.222 23.71-23.71z" fill="#3f5959"/></g><path d="m459.207 483.916c-11.643 11.643-30.519 11.643-42.161 0l-68.514-68.514c-3.848-3.848-3.848-10.087 0-13.935l28.226-28.226c3.848-3.848 10.087-3.848 13.935 0l68.514 68.514c11.643 11.642 11.643 30.518 0 42.161z" fill="#31a7fb"/><path d="m459.212 483.913c-4.002 4.002-8.856 6.625-13.979 7.881 2.399-9.787-.235-20.549-7.87-28.195l-68.519-68.508c-3.845-3.845-10.089-3.845-13.935 0l21.849-21.849c3.845-3.845 10.089-3.845 13.935 0l68.519 68.508c11.636 11.648 11.636 30.526 0 42.163z" fill="#1c96f9"/><g><path d="m336.318 361.027c-10.641 10.641-27.894 10.641-38.536 0l-19.268-19.268 38.536-38.536 19.268 19.268c10.641 10.642 10.641 27.895 0 38.536z" fill="#31a7fb"/><path d="m340.761 328.322c-10.045 14.495-22.645 27.096-37.141 37.14-2.096-1.177-4.058-2.657-5.841-4.439l-19.271-19.26 38.542-38.542 19.271 19.271c1.783 1.783 3.263 3.745 4.44 5.83z" fill="#1c96f9"/></g><g><circle cx="220.493" cy="245.202" fill="#a9d3d8" r="123.825"/><path d="m344.315 245.207c0 68.384-55.436 123.82-123.82 123.82-6.917 0-13.71-.572-20.313-1.659 58.721-9.697 103.507-60.694 103.507-122.161 0-61.479-44.786-112.475-103.507-122.172 6.603-1.087 13.397-1.659 20.313-1.659 68.384-.001 123.82 55.435 123.82 123.831z" fill="#90bac4"/><g><circle cx="219.753" cy="245.202" fill="#eef4f5" r="87.337"/><path d="m307.085 245.207c0 48.228-39.102 87.33-87.33 87.33-6.412 0-12.668-.695-18.688-2.007 39.248-8.554 68.642-43.508 68.642-85.323 0-41.826-29.394-76.781-68.642-85.334 6.02-1.312 12.276-2.007 18.688-2.007 48.227 0 87.33 39.102 87.33 87.341z" fill="#cbe5e7"/></g></g></g></g></g></g></g></g></g></g><g><path d="m282.727 171.134c0 27.53-39.927 79.807-55.82 99.525-3.297 4.09-9.532 4.09-12.828 0-15.893-19.718-55.82-71.995-55.82-99.525 0-34.371 27.863-62.234 62.234-62.234s62.234 27.863 62.234 62.234z" fill="#fb5532"/><path d="m282.723 171.134c0 27.526-39.92 79.808-55.815 99.526-3.297 4.09-9.529 4.09-12.826 0-2.555-3.173-5.738-7.191-9.261-11.806 18.43-24.096 46.544-64.623 46.544-87.72 0-28.948-19.779-53.291-46.554-60.245 5.017-1.298 10.261-1.988 15.679-1.988 34.377-.001 62.233 27.866 62.233 62.233z" fill="#ec462e"/><circle cx="220.493" cy="165.698" fill="#deecf0" r="24.352"/></g></g></svg>