<svg height="512pt" viewBox="0 -11 512 512" width="512pt" xmlns="http://www.w3.org/2000/svg"><path d="m245 0c-61.15625 0-117.074219 22.410156-160.003906 59.464844v371.070312c42.929687 37.054688 98.847656 59.464844 160.003906 59.464844 135.3125 0 245.003906-109.691406 245.003906-245 0-135.3125-109.691406-245-245.003906-245zm0 0" fill="#3c2b8e"/><path d="m387.980469 155.785156c6.601562 0 12 5.398438 12 12 0-6.601562 5.402343-12 12-12h41.332031v-85.167968c0-6.597657-5.398438-12-12-12h-88.015625c-6.601563 0-12 5.402343-12 12v85.167968zm0 0" fill="#d93a59"/><path d="m397.304688 70.617188c0-6.597657 5.398437-12 12-12h-56.007813c-6.601563 0-12 5.402343-12 12v85.167968h46.683594c3.757812 0 7.121093 1.75 9.324219 4.476563zm0 0" fill="#ba1c37"/><path d="m329.296875 58.617188h-243.300781c-30.425782 25.980468-54.414063 59.273437-69.238282 97.167968h324.539063v-85.167968c0-6.597657-5.402344-12-12-12zm0 0" fill="#c2edff"/><path d="m16.757812 155.785156h37.453126v-64.46875c-15.566407 19.296875-28.269532 40.996094-37.453126 64.46875zm0 0" fill="#abe4fe"/><path d="m329.296875 58.617188h-243.300781c-17.957032 15.332031-33.667969 33.210937-46.578125 53.082031h301.878906v-41.082031c0-6.597657-5.402344-12-12-12zm0 0" fill="#abe4fe"/><path d="m411.914062 92.660156h-29.21875c-4.144531 0-7.5-3.359375-7.5-7.5s3.355469-7.5 7.5-7.5h29.21875c4.144532 0 7.5 3.359375 7.5 7.5s-3.355468 7.5-7.5 7.5zm0 0" fill="#f7577a"/><path d="m306.554688 77.660156h-240.480469c-4.511719 4.824219-8.835938 9.824219-12.949219 15h253.429688c4.140624 0 7.5-3.359375 7.5-7.5s-3.359376-7.5-7.5-7.5zm0 0" fill="#d9f5ff"/><path d="m387.980469 152.785156h-370.015625c-11.574219 28.464844-17.964844 59.59375-17.964844 92.214844 0 74.625 33.371094 141.445312 85.996094 186.382812h301.984375c6.601562 0 12-5.402343 12-12v-254.597656c0-6.601562-5.398438-12-12-12zm0 0" fill="#d9f5ff"/><path d="m82.058594 419.382812v-254.597656c0-6.601562 5.402344-12 12-12h-76.09375c-11.574219 28.464844-17.964844 59.59375-17.964844 92.214844 0 74.625 33.371094 141.445312 85.996094 186.382812h8.0625c-6.597656 0-12-5.402343-12-12zm0 0" fill="#c2edff"/><path d="m512 419.382812v-254.597656c0-6.601562-5.398438-12-12-12h-88.019531c-6.597657 0-12 5.398438-12 12v254.597656c0 6.597657 5.402343 12 12 12h88.019531c6.601562 0 12-5.402343 12-12zm0 0" fill="#f7577a"/><path d="m455.992188 419.382812v-254.597656c0-6.601562 5.398437-12 12-12h-56.011719c-6.597657 0-12 5.398438-12 12v254.597656c0 6.597657 5.402343 12 12 12h56.011719c-6.601563 0-12-5.402343-12-12zm0 0" fill="#d93a59"/><path d="m486.15625 180.417969h-60.332031c-5.523438 0-10 4.476562-10 10v203.332031c0 5.523438 4.476562 10 10 10h60.332031c5.523438 0 10-4.476562 10-10v-203.332031c0-5.523438-4.476562-10-10-10zm0 0" fill="#d9f5ff"/><path d="m425.824219 180.417969c-5.523438 0-10 4.476562-10 10v203.332031c0 5.523438 4.476562 10 10 10h30.167969v-223.332031zm0 0" fill="#abe4fe"/><path d="m208.550781 294.699219-29.503906-9.347657c-4.230469-1.339843-8.824219-.839843-12.664063 1.378907-1.433593.828125-1.578124 2.84375-.277343 3.867187l26.605469 20.972656zm0 0" fill="#1588e8"/><path d="m218.699219 312.273438-6.660157 30.226562c-.953124 4.328125-3.683593 8.058594-7.523437 10.273438-1.4375.828124-3.253906-.050782-3.492187-1.691407l-4.855469-33.527343zm0 0" fill="#2299f2"/><path d="m207.433594 330.929688c0-2.484376 1.648437-4.667969 4.039062-5.34375l4.578125-1.296876 2.648438-12.015624-22.53125 5.28125 4.855469 33.53125c.238281 1.636718 2.054687 2.519531 3.492187 1.691406 1.066406-.617188 2.035156-1.359375 2.917969-2.1875zm0 0" fill="#1588e8"/><path d="m253.710938 293.746094 12.589843 62.824218c.390625 2.675782 3.355469 4.117188 5.699219 2.765626 7.773438-4.671876 11.859375-12.105469 12.585938-20.007813l.457031-63.667969zm0 0" fill="#2299f2"/><path d="m270.945312 311.972656c-.945312-6.625 2.273438-13.15625 8.109376-16.4375l5.871093-3.304687.117188-16.570313-31.332031 18.085938 12.589843 62.824218c.386719 2.675782 3.355469 4.117188 5.699219 2.765626 1.9375-1.164063 3.648438-2.5 5.132812-3.976563zm0 0" fill="#1588e8"/><path d="m242.101562 273.640625-48.113281-42.316406c-2.125-1.675781-1.886719-4.964844.457031-6.316407 7.929688-4.398437 16.414063-4.21875 23.621094-.898437l55.367188 31.441406zm0 0" fill="#2299f2"/><path d="m254.007812 252.5c-5.515624 2.746094-12.113281 2.128906-17.027343-1.59375l-37.175781-28.160156c-1.800782.542968-3.59375 1.28125-5.359376 2.257812-2.34375 1.355469-2.578124 4.644532-.457031 6.320313l48.113281 42.3125 31.332032-18.085938-11.929688-6.777343zm0 0" fill="#1588e8"/><path d="m166.21875 252.152344c-2.785156 0-5.460938-1.558594-6.757812-4.230469-1.804688-3.730469-.25-8.214844 3.480468-10.019531l7.457032-3.617188c3.726562-1.804687 8.210937-.246094 10.019531 3.480469 1.804687 3.726563.25 8.210937-3.476563 10.019531l-7.457031 3.613282c-1.054687.507812-2.171875.753906-3.265625.753906zm0 0" fill="#abe4fe"/><path d="m241.261719 383.117188c-2.785157 0-5.460938-1.558594-6.757813-4.230469-1.804687-3.726563-.25-8.210938 3.480469-10.019531l7.457031-3.613282c3.726563-1.808594 8.214844-.25 10.019532 3.476563 1.804687 3.726562.25 8.210937-3.476563 10.019531l-7.457031 3.617188c-1.054688.507812-2.171875.75-3.265625.75zm0 0" fill="#abe4fe"/><path d="m233.988281 352.230469c-2.785156 0-5.457031-1.554688-6.753906-4.230469-1.808594-3.726562-.25-8.214844 3.476563-10.019531l7.457031-3.613281c3.730469-1.808594 8.214843-.25 10.019531 3.476562 1.808594 3.726562.25 8.210938-3.476562 10.019531l-7.457032 3.613281c-1.054687.511719-2.167968.753907-3.265625.753907zm0 0" fill="#abe4fe"/><path d="m190.445312 273.230469c-2.785156 0-5.460937-1.554688-6.753906-4.230469-1.808594-3.726562-.25-8.214844 3.476563-10.019531l7.453125-3.613281c3.730468-1.808594 8.214844-.25 10.023437 3.476562 1.804688 3.726562.25 8.210938-3.480469 10.019531l-7.453124 3.613281c-1.054688.511719-2.167969.753907-3.265626.753907zm0 0" fill="#abe4fe"/><g fill="#554cbf"><path d="m483.097656 190.417969h-54.210937c-1.691407 0-3.0625 1.367187-3.0625 3.058593v8.878907c0 1.691406 1.371093 3.0625 3.0625 3.0625h54.210937c1.6875 0 3.058594-1.371094 3.058594-3.0625v-8.878907c0-1.691406-1.371094-3.058593-3.058594-3.058593zm0 0"/><path d="m483.097656 275.132812h-54.210937c-1.691407 0-3.0625-1.371093-3.0625-3.0625v-35.785156c0-1.6875 1.371093-3.058594 3.0625-3.058594h54.210937c1.6875 0 3.058594 1.371094 3.058594 3.058594v35.785156c0 1.691407-1.371094 3.0625-3.058594 3.0625zm0 0"/><path d="m483.097656 313.035156h-54.210937c-1.691407 0-3.0625-1.371094-3.0625-3.058594v-1.378906c0-1.691406 1.371093-3.0625 3.0625-3.0625h54.210937c1.6875 0 3.058594 1.371094 3.058594 3.0625v1.378906c0 1.6875-1.371094 3.058594-3.058594 3.058594zm0 0"/><path d="m483.097656 224.820312h-54.210937c-1.691407 0-3.0625-1.367187-3.0625-3.058593v-1.378907c0-1.691406 1.371093-3.0625 3.0625-3.0625h54.210937c1.6875 0 3.058594 1.371094 3.058594 3.0625v1.378907c0 1.6875-1.371094 3.058593-3.058594 3.058593zm0 0"/><path d="m483.097656 386.25h-54.210937c-1.691407 0-3.0625 1.371094-3.0625 3.0625v1.375c0 1.691406 1.371093 3.0625 3.0625 3.0625h54.210937c1.6875 0 3.058594-1.371094 3.058594-3.0625v-1.375c0-1.691406-1.371094-3.0625-3.058594-3.0625zm0 0"/><path d="m483.097656 297.632812h-54.210937c-1.691407 0-3.0625-1.371093-3.0625-3.0625v-8.878906c0-1.6875 1.371093-3.058594 3.0625-3.058594h54.210937c1.6875 0 3.058594 1.371094 3.058594 3.058594v8.878906c0 1.691407-1.371094 3.0625-3.058594 3.0625zm0 0"/><path d="m483.097656 324.941406h-54.210937c-1.691407 0-3.0625 1.371094-3.0625 3.0625v8.875c0 1.691406 1.371093 3.0625 3.0625 3.0625h54.210937c1.6875 0 3.058594-1.371094 3.058594-3.0625v-8.875c0-1.691406-1.371094-3.0625-3.058594-3.0625zm0 0"/><path d="m483.097656 351.84375h-54.210937c-1.691407 0-3.0625 1.371094-3.0625 3.0625v19.648438c0 1.6875 1.371093 3.058593 3.0625 3.058593h54.210937c1.6875 0 3.058594-1.371093 3.058594-3.058593v-19.648438c0-1.691406-1.371094-3.0625-3.058594-3.0625zm0 0"/></g><path d="m453.324219 202.355469v-8.878907c0-1.691406 1.371093-3.058593 3.0625-3.058593h-27.5c-1.691407 0-3.0625 1.371093-3.0625 3.058593v8.878907c0 1.691406 1.371093 3.0625 3.0625 3.0625h27.5c-1.691407 0-3.0625-1.371094-3.0625-3.0625zm0 0" fill="#483ba8"/><path d="m453.324219 272.070312v-35.785156c0-1.6875 1.371093-3.058594 3.0625-3.058594h-27.5c-1.691407 0-3.0625 1.371094-3.0625 3.058594v35.785156c0 1.691407 1.371093 3.0625 3.0625 3.0625h27.5c-1.691407 0-3.0625-1.371093-3.0625-3.0625zm0 0" fill="#483ba8"/><path d="m453.324219 309.976562v-1.378906c0-1.691406 1.371093-3.0625 3.0625-3.0625h-27.5c-1.691407 0-3.0625 1.371094-3.0625 3.0625v1.378906c0 1.6875 1.371093 3.058594 3.0625 3.058594h27.5c-1.691407 0-3.0625-1.371094-3.0625-3.058594zm0 0" fill="#483ba8"/><path d="m453.324219 221.761719v-1.378907c0-1.691406 1.371093-3.0625 3.0625-3.0625h-27.5c-1.691407 0-3.0625 1.371094-3.0625 3.0625v1.378907c0 1.6875 1.371093 3.058593 3.0625 3.058593h27.5c-1.691407 0-3.0625-1.371093-3.0625-3.058593zm0 0" fill="#483ba8"/><path d="m453.324219 390.6875v-1.375c0-1.691406 1.371093-3.0625 3.0625-3.0625h-27.5c-1.691407 0-3.0625 1.371094-3.0625 3.0625v1.375c0 1.691406 1.371093 3.0625 3.0625 3.0625h27.5c-1.691407 0-3.0625-1.371094-3.0625-3.0625zm0 0" fill="#483ba8"/><path d="m453.324219 294.570312v-8.878906c0-1.691406 1.371093-3.058594 3.0625-3.058594h-27.5c-1.691407 0-3.0625 1.367188-3.0625 3.058594v8.878906c0 1.691407 1.371093 3.0625 3.0625 3.0625h27.5c-1.691407 0-3.0625-1.371093-3.0625-3.0625zm0 0" fill="#483ba8"/><path d="m453.324219 336.878906v-8.875c0-1.691406 1.371093-3.0625 3.0625-3.0625h-27.5c-1.691407 0-3.0625 1.371094-3.0625 3.0625v8.875c0 1.691406 1.371093 3.0625 3.0625 3.0625h27.5c-1.691407 0-3.0625-1.371094-3.0625-3.0625zm0 0" fill="#483ba8"/><path d="m453.324219 374.554688v-19.648438c0-1.691406 1.371093-3.058594 3.0625-3.058594h-27.5c-1.691407 0-3.0625 1.371094-3.0625 3.058594v19.648438c0 1.691406 1.371093 3.058593 3.0625 3.058593h27.5c-1.691407 0-3.0625-1.371093-3.0625-3.058593zm0 0" fill="#483ba8"/><path d="m357.777344 197.917969h-29.21875c-4.144532 0-7.5-3.359375-7.5-7.5 0-4.144531 3.355468-7.5 7.5-7.5h29.21875c4.144531 0 7.5 3.355469 7.5 7.5 0 4.140625-3.355469 7.5-7.5 7.5zm0 0" fill="#abe4fe"/><path d="m327.6875 233.585938-8.542969-.070313c-6.027343-.046875-11.957031 1.515625-17.175781 4.527344l-86.75 50.085937c-2.65625 1.535156-5.074219 3.453125-7.175781 5.6875l-15.839844 16.875c-1.289063 1.375-1.71875 3.398438-.960937 5.121094.910156 2.070312 3.148437 3.160156 5.300781 2.65625l22.664062-5.3125c2.988281-.703125 5.855469-1.835938 8.511719-3.371094l86.753906-50.085937c5.21875-3.011719 9.535156-7.367188 12.507813-12.609375l4.210937-7.433594c1.527344-2.699219-.402344-6.046875-3.503906-6.070312zm0 0" fill="#52b0f5"/><path d="m1.304688 219.609375 36.730468 33.929687 109.078125-100.753906h-129.148437c-8.53125 20.984375-14.25 43.410156-16.660156 66.824219zm0 0" fill="#83d912"/><path d="m94.058594 152.785156h-76.09375c-8.5625 21.0625-14.25 43.566406-16.652344 66.832032l36.722656 33.921874 44.023438-40.664062v-48.089844c0-6.601562 5.402344-12 12-12zm0 0" fill="#5bbf02"/><path d="m3.363281 285.566406c9.675781 58.058594 39.753907 109.203125 82.632813 145.816406h144.570312l-192.53125-177.84375zm0 0" fill="#52b0f5"/><path d="m82.058594 419.382812v-125.179687l-44.023438-40.664063-34.671875 32.027344c9.226563 55.367188 37.699219 107.445313 82.632813 145.816406h8.0625c-6.597656 0-12-5.402343-12-12zm0 0" fill="#2299f2"/><path d="m3.363281 285.566406 34.671875-32.027344-36.730468-33.929687c-.859376 8.347656-1.304688 16.816406-1.304688 25.390625 0 13.820312 1.164062 27.371094 3.363281 40.566406zm0 0" fill="#fbc840"/><path d="m230.160156 279.503906-14.941406 8.625c-2.65625 1.535156-5.074219 3.449219-7.175781 5.6875l-15.839844 16.871094c-1.289063 1.375-1.71875 3.398438-.960937 5.125.910156 2.070312 3.148437 3.160156 5.300781 2.652344l22.664062-5.3125c2.988281-.699219 5.855469-1.835938 8.515625-3.367188l15.515625-8.960937c-11.703125 1.265625-19.410156-11.652344-13.078125-21.320313zm0 0" fill="#2299f2"/><path d="m54.210938 111.699219v-20.382813c-5.519532 6.839844-10.363282 13.589844-14.777344 20.382813zm0 0" fill="#82c6f9"/></svg>