<svg id="Layer_1" height="512" viewBox="0 0 512 512" width="512" xmlns="http://www.w3.org/2000/svg" data-name="Layer 1"><path d="m85 104.81a29.6 29.6 0 0 1 29.97-29.81h-30a29.6 29.6 0 0 0 -29.97 29.81v365.94a29.968 29.968 0 0 0 29.96 30.25h30a29.968 29.968 0 0 1 -29.96-30.25z" fill="#d4e1f4"/><path d="m309.6 410.9h-175.6a6 6 0 0 0 0 12h175.6v47.85a24.321 24.321 0 0 1 -24.333 24.25h-200.309a24.321 24.321 0 0 1 -24.336-24.251v-47.849h23.378a6 6 0 0 0 0-12h-23.378v-306.091a24.332 24.332 0 0 1 24.347-24.262h43.511a57.472 57.472 0 0 0 113.265 0h28.282l16.652-.036-.026-12-16.638.036h-33.582a6 6 0 0 0 -5.986 5.575 45.459 45.459 0 0 1 -90.67 0 6 6 0 0 0 -5.985-5.575h-48.823a36.346 36.346 0 0 0 -36.347 36.262v365.94a36.334 36.334 0 0 0 36.336 36.251h200.309a36.334 36.334 0 0 0 36.333-36.251v-229.564h-12z" fill="#0635c9"/><path d="m89 121a6 6 0 0 0 -12 0v2a6 6 0 0 0 12 0z" fill="#0635c9"/><path d="m83 143a6 6 0 0 0 -6 6v92a6 6 0 0 0 12 0v-92a6 6 0 0 0 -6-6z" fill="#0635c9"/><g fill="#1ae5be"><path d="m436.375 5.388-.643.118a65.128 65.128 0 0 0 -34.446 18.084l-32.936 32.936-52.6-17.606a18.317 18.317 0 0 0 -30.4-18.517l-6.25 6.248-29.878-10a6 6 0 0 0 -6.148 1.448l-13.324 13.32a6 6 0 0 0 .648 9.047l88.089 65.924-39.617 39.616-46.665-3.955a5.985 5.985 0 0 0 -4.749 1.736l-10.524 10.524a6 6 0 0 0 0 8.485l33.932 33.933-2.086 3.991a14.162 14.162 0 0 0 19.222 19.217l3.99-2.086 33.533 33.534a6 6 0 0 0 8.484 0l10.524-10.524a6 6 0 0 0 1.741-4.7l-3.579-46.29 39.694-39.694 65.863 88.142a6 6 0 0 0 4.376 2.393c.145.011.288.016.431.016a6 6 0 0 0 4.243-1.758l13.321-13.322a6 6 0 0 0 1.446-6.147l-10-29.876 6.248-6.248a18.307 18.307 0 0 0 -18.515-30.396l-17.611-52.614 32.938-32.938a65.29 65.29 0 0 0 18.1-34.565l.1-.526a23.152 23.152 0 0 0 -26.951-26.95zm-142.546 23.5a6.316 6.316 0 0 1 10.536 6.22l-12.554-4.2zm-50.7 6.119 5.8-5.8 109.937 36.8-31.81 31.809zm-13.47 123.547 4.311-4.31 37.441 3.173-14.722 28.167zm80.1 80.1-26.63-26.63 28.1-14.687 2.859 36.988zm130.067-72.704a6.326 6.326 0 0 1 0 8.937l-2.018 2.018-4.2-12.554a6.321 6.321 0 0 1 6.218 1.599zm-.319 53.834-5.8 5.8-62.749-83.984 31.75-31.751zm12.015-189.608-.095.526a53.36 53.36 0 0 1 -14.784 28.241l-124.252 124.257-50.015 26.139c-.048.025-.095.051-.142.077a2.153 2.153 0 0 1 -2.929-2.929c.025-.047.051-.094.076-.142l26.14-50.014 124.25-124.256a53.175 53.175 0 0 1 28.129-14.766l.643-.118a11.152 11.152 0 0 1 12.98 12.985z"/><path d="m213.1 249.873a6 6 0 0 0 8.485 8.485l8.133-8.132a6 6 0 1 0 -8.485-8.486z"/><path d="m197.744 265.75-22.283 22.284a6 6 0 0 0 8.486 8.486l22.283-22.285a6 6 0 0 0 -8.486-8.485z"/><path d="m142.235 321.26-5.835 5.84a6 6 0 0 0 8.485 8.486l5.837-5.837a6 6 0 1 0 -8.485-8.486z"/><path d="m159.355 304.14-2.055 2.06a6 6 0 1 0 8.486 8.484l2.058-2.058a6 6 0 0 0 -8.487-8.484z"/><path d="m213.239 205.909-26.822 26.822a6 6 0 1 0 8.484 8.485l26.823-26.822a6 6 0 0 0 -8.485-8.485z"/><path d="m177.615 250.537a6 6 0 0 0 -8.485 0l-7.543 7.542a6 6 0 1 0 8.484 8.485l7.543-7.542a6 6 0 0 0 .001-8.485z"/><path d="m154.808 273.343a6 6 0 0 0 -8.485 0l-10.423 10.429a6 6 0 1 0 8.484 8.485l10.429-10.428a6 6 0 0 0 -.005-8.486z"/><path d="m187.6 202.2a5.982 5.982 0 0 0 4.242-1.757l16.53-16.53a6 6 0 1 0 -8.484-8.485l-16.531 16.529a6 6 0 0 0 4.243 10.243z"/><path d="m150.565 239.756a5.986 5.986 0 0 0 4.244-1.756l22.3-22.3a6 6 0 0 0 -8.486-8.486l-22.3 22.3a6 6 0 0 0 4.243 10.242z"/><path d="m138.57 245.75a6 6 0 0 0 -8.485 0l-7.542 7.543a6 6 0 1 0 8.486 8.485l7.542-7.542a6 6 0 0 0 -.001-8.486z"/><path d="m265.553 249.738a6 6 0 0 0 -8.485 0l-13.485 13.485a6 6 0 1 0 8.484 8.485l13.486-13.485a6 6 0 0 0 0-8.485z"/><path d="m234.57 281.239a6 6 0 0 0 -8.485 0l-14.514 14.514a6 6 0 0 0 8.487 8.486l14.513-14.514a6 6 0 0 0 -.001-8.486z"/><path d="m195.831 311.5-16.107 16.1a6 6 0 1 0 8.484 8.485l16.107-16.106a6 6 0 1 0 -8.484-8.485z"/><path d="m287.546 263.088-30.478 30.479a6 6 0 0 0 8.486 8.486l30.477-30.479a6 6 0 0 0 -8.485-8.486z"/><path d="m239.156 312-11.825 11.824a6 6 0 1 0 8.484 8.486l11.826-11.825a6 6 0 1 0 -8.485-8.485z"/></g></svg>