<svg id="Layer_4_copy" height="512" viewBox="0 0 64 64" width="512" xmlns="http://www.w3.org/2000/svg" xmlns:xlink="http://www.w3.org/1999/xlink" data-name="Layer 4 copy"><linearGradient id="linear-gradient" gradientUnits="userSpaceOnUse" x1="63.42" x2="-.28" y1="-.42" y2="63.28"><stop offset="0" stop-color="#f7941e"/><stop offset="1" stop-color="#ee2a7b"/></linearGradient><linearGradient id="linear-gradient-2" x1="61.42" x2="-2.28" xlink:href="#linear-gradient" y1="-2.42" y2="61.28"/><linearGradient id="linear-gradient-3" x1="46.42" x2="-17.28" xlink:href="#linear-gradient" y1="-17.42" y2="46.28"/><linearGradient id="linear-gradient-4" x1="50.42" x2="-13.28" xlink:href="#linear-gradient" y1="-13.42" y2="50.28"/><linearGradient id="linear-gradient-5" x1="54.42" x2="-9.28" xlink:href="#linear-gradient" y1="-9.42" y2="54.28"/><linearGradient id="linear-gradient-6" x1="58.42" x2="-5.28" xlink:href="#linear-gradient" y1="-5.42" y2="58.28"/><linearGradient id="linear-gradient-7" x1="77.92" x2="14.22" xlink:href="#linear-gradient" y1="14.08" y2="77.78"/><linearGradient id="linear-gradient-8" x1="82.92" x2="19.22" xlink:href="#linear-gradient" y1="19.08" y2="82.78"/><linearGradient id="linear-gradient-9" x1="59.67" x2="-4.03" xlink:href="#linear-gradient" y1="-4.17" y2="59.53"/><linearGradient id="linear-gradient-10" x1="63.67" x2="-.03" xlink:href="#linear-gradient" y1="-.17" y2="63.53"/><linearGradient id="linear-gradient-11" x1="61.88" x2="-1.82" xlink:href="#linear-gradient" y1="-1.96" y2="61.74"/><linearGradient id="linear-gradient-12" x1="62.42" x2="-1.28" xlink:href="#linear-gradient" y1="-1.42" y2="62.28"/><linearGradient id="linear-gradient-13" x1="65.92" x2="2.22" xlink:href="#linear-gradient" y1="2.08" y2="65.78"/><linearGradient id="linear-gradient-14" x1="69.42" x2="5.72" xlink:href="#linear-gradient" y1="5.58" y2="69.28"/><linearGradient id="linear-gradient-15" x1="52.92" x2="-10.78" xlink:href="#linear-gradient" y1="-10.92" y2="52.78"/><linearGradient id="linear-gradient-16" x1="71.42" x2="7.72" xlink:href="#linear-gradient" y1="7.58" y2="71.28"/><linearGradient id="linear-gradient-17" x1="68.92" x2="5.22" xlink:href="#linear-gradient" y1="5.08" y2="68.78"/><linearGradient id="linear-gradient-18" x1="72.92" x2="9.22" xlink:href="#linear-gradient" y1="9.08" y2="72.78"/><path d="m10.41 51.17-1.41 1.42-1.41-1.42-1.42 1.42 1.42 1.41-1.42 1.41 1.42 1.42 1.41-1.42 1.41 1.42 1.42-1.42-1.42-1.41 1.42-1.41z" fill="url(#linear-gradient)"/><path d="m64 17.41a1 1 0 0 0 -.31-.73l-3.24-3.08 3.24-3.08a1 1 0 0 0 0-1.45l-4-3.81a1 1 0 0 0 -.69-.26h-10v-4a1 1 0 0 0 -1-1h-32a1 1 0 0 0 -1 1v4h-14a1 1 0 0 0 -.69 1.72l3.24 3.09-3.24 3.08a1 1 0 0 0 0 1.45l3.24 3.07-3.24 3.08a1 1 0 0 0 0 1.45l3.24 3.06-3.24 3.08a1 1 0 0 0 0 1.45l3.24 3.07-3.24 3.08a1 1 0 0 0 0 1.45l3.24 3.07-3.24 3.07a1 1 0 0 0 -.15.21 1 1 0 0 0 -.07.11 1 1 0 0 0 0 .12 1 1 0 0 0 -.09.29.94.94 0 0 0 0 .14 1 1 0 0 0 0 .23 1 1 0 0 0 .12.2.94.94 0 0 0 .08.12 1 1 0 0 0 .8.31h17v9h-2a1 1 0 0 0 -1 1v8a1 1 0 0 0 1 1h32a1 1 0 0 0 1-1v-8a1 1 0 0 0 -1-1h-.84l7.62-9h4.22a1 1 0 0 0 .69-.27l4-3.8a1 1 0 0 0 0-1.45l-3.24-3.07 3.24-3.07a1 1 0 0 0 0-1.45l-3.24-3.07 3.24-3.07a1 1 0 0 0 0-1.45l-3.24-3.07 3.24-3.07a1 1 0 0 0 .31-.75zm-23-15.41h6v7.85a3.17 3.17 0 0 1 -6 0zm-8 0h6v7.85a3.17 3.17 0 0 1 -6 0zm-8 0h6v7.85a3.17 3.17 0 0 1 -6 0zm-8 0h6v7.85a3.17 3.17 0 0 1 -6 0zm30 60h-30v-6h30zm-2.46-8h-23.29c4-4.4 7.95-8.37 14.05-9h3.65.33l11.28-8.21c1.86-1.27 4.36-2.49 5.73-1.12.75.75 1.3 2.08-1.09 5.69zm-24.54-1.6v-7.4h8.64a33.74 33.74 0 0 0 -8.64 7.4zm41.55-12.2-2.95 2.8h-2.14l.3-.35.07-.09a11.34 11.34 0 0 0 2.08-4.85zm-3.24-19.71a1 1 0 0 0 0 1.45l3.24 3.06-3.24 3.07a1 1 0 0 0 0 1.45l3.24 3.07-3 2.86a4.25 4.25 0 0 0 -.83-1.17c-1.29-1.29-3.77-2.19-8.3.9l-10.7 7.82a19.53 19.53 0 0 0 -3.61 0h-31.6l2.18-2.07a1 1 0 0 0 0-1.45l-3.24-3.07 3.24-3.07a1 1 0 0 0 0-1.45l-3.24-3.08 3.24-3.07a1 1 0 0 0 0-1.45l-3.24-3.08 3.24-3.07a1 1 0 0 0 0-1.45l-3.24-3.08 3.24-3.08a1 1 0 0 0 0-1.45l-2.19-2.08h11.5v3a1 1 0 0 0 0 .28 5.15 5.15 0 0 0 9 1.79 5.11 5.11 0 0 0 8 0 5.11 5.11 0 0 0 8 0 5.15 5.15 0 0 0 9-1.79 1 1 0 0 0 0-.28v-3h9.6l2.95 2.81-3.24 3.08a1 1 0 0 0 0 1.45l3.24 3.07z" fill="url(#linear-gradient-2)"/><path d="m19 10h2a1 1 0 0 0 0-2h-2a1 1 0 0 0 0 2z" fill="url(#linear-gradient-3)"/><path d="m27 10h2a1 1 0 0 0 0-2h-2a1 1 0 0 0 0 2z" fill="url(#linear-gradient-4)"/><path d="m35 10h2a1 1 0 0 0 0-2h-2a1 1 0 0 0 0 2z" fill="url(#linear-gradient-5)"/><path d="m43 10h2a1 1 0 0 0 0-2h-2a1 1 0 0 0 0 2z" fill="url(#linear-gradient-6)"/><path d="m53.71 36.29a1 1 0 0 0 -1.41 1.41l2 2a1 1 0 0 0 1.41-1.41z" fill="url(#linear-gradient-7)"/><path d="m42 60h2a1 1 0 0 0 0-2h-2a1 1 0 0 0 0 2z" fill="url(#linear-gradient-8)"/><path d="m21 38h-9a1 1 0 0 0 0 2h9a1 1 0 0 0 0-2z" fill="url(#linear-gradient-9)"/><path d="m43 17h9a1 1 0 0 0 0-2h-9a1 1 0 0 0 0 2z" fill="url(#linear-gradient-10)"/><path d="m27.81 20a25.23 25.23 0 0 0 -10.07 4.34 16.39 16.39 0 0 0 -5 6c-.22.4-.42.78-.63 1.11a1 1 0 0 0 .89 1.55h32v-2h-30.29a14 14 0 0 1 4.21-5l.08-.05v.05h10a1 1 0 0 0 1-1v-3h21v-2h-23zm.19 4h-5.81a23.28 23.28 0 0 1 5.81-2z" fill="url(#linear-gradient-11)"/><path d="m33 25h4v2h-4z" fill="url(#linear-gradient-12)"/><path d="m40 25h4v2h-4z" fill="url(#linear-gradient-13)"/><path d="m47 25h4v2h-4z" fill="url(#linear-gradient-14)"/><path d="m9 31h2v2h-2z" fill="url(#linear-gradient-15)"/><path d="m46 31h2v2h-2z" fill="url(#linear-gradient-16)"/><path d="m52 20h2v2h-2z" fill="url(#linear-gradient-17)"/><path d="m49 31h2v2h-2z" fill="url(#linear-gradient-18)"/></svg>