<?xml version="1.0" encoding="iso-8859-1"?>
<!-- Generator: Adobe Illustrator 19.0.0, SVG Export Plug-In . SVG Version: 6.00 Build 0)  -->
<svg version="1.1" id="Capa_1" xmlns="http://www.w3.org/2000/svg" xmlns:xlink="http://www.w3.org/1999/xlink" x="0px" y="0px"
	 viewBox="0 0 473.428 473.428" style="enable-background:new 0 0 473.428 473.428;" xml:space="preserve">
<path style="fill:#56CEEF;" d="M100.44,265.428h-6.763c13.353-11.578,14.791-31.789,3.213-45.141s-31.789-14.791-45.141-3.213
	s-14.791,31.789-3.213,45.141c0.994,1.146,2.067,2.22,3.213,3.213h-6.762c-24.451,0-44.273,19.822-44.273,44.273c0,0,0,0,0,0v59.727
	h32v104h80v-104h32v-59.727C144.714,285.25,124.892,265.428,100.44,265.428C100.441,265.428,100.44,265.428,100.44,265.428z"/>
<path style="fill:#FCD821;" d="M328.714,153.428h112v72h-112V153.428z"/>
<g>
	<path style="fill:#16B4D8;" d="M64.714,361.428h16v112h-16V361.428z"/>
	<path style="fill:#16B4D8;" d="M24.714,297.428h8v72h-8V297.428z"/>
	<path style="fill:#16B4D8;" d="M112.714,297.428h8v72h-8V297.428z"/>
</g>
<path style="fill:#EC322C;" d="M472.714,33.428l-88-32v64L472.714,33.428z"/>
<g>
	<path style="fill:#344496;" d="M376.714,0h16v192h-16V0z"/>
	<path style="fill:#344496;" d="M296.714,265.428h-88c-17.673,0-32-14.327-32-32s14.327-32,32-32h57.904l-31.025,25.855
		l10.242,12.289l48-40c3.394-2.827,3.853-7.869,1.027-11.262c-0.31-0.373-0.654-0.716-1.027-1.027l-48-40l-10.242,12.289
		l31.025,25.855h-57.904c-26.51,0-48,21.49-48,48s21.49,48,48,48h88c39.764,0,72,32.236,72,72s-32.236,72-72,72h-136v16h136
		c48.601,0,88-39.399,88-88S345.315,265.428,296.714,265.428z"/>
</g>
<g>
</g>
<g>
</g>
<g>
</g>
<g>
</g>
<g>
</g>
<g>
</g>
<g>
</g>
<g>
</g>
<g>
</g>
<g>
</g>
<g>
</g>
<g>
</g>
<g>
</g>
<g>
</g>
<g>
</g>
</svg>
