<svg height="512" viewBox="0 0 58 58" width="512" xmlns="http://www.w3.org/2000/svg"><g id="Page-1" fill="none" fill-rule="evenodd"><g id="055---Winter-Season" fill-rule="nonzero"><path id="Shape" d="m58 14v40c0 2.209139-1.790861 4-4 4h-50c-2.209139 0-4-1.790861-4-4v-40z" fill="#285680"/><path id="Shape" d="m58 7v9h-58v-9c0-2.209139 1.790861-4 4-4h50c2.209139 0 4 1.790861 4 4z" fill="#e64c3c"/><path id="Shape" d="m48 3c1.7799916.69615377 2.9644585 2.39704811 3 4.308-.1669773 2.63882398-2.3558984 4.6936142-5 4.6936142s-4.8330227-2.05479022-5-4.6936142c.0355415-1.91095189 1.2200084-3.61184623 3-4.308z" fill="#c03a2b"/><path id="Shape" d="m14 3c1.7799916.69615377 2.9644585 2.39704811 3 4.308-.0886126 2.67476119-2.3250095 4.773396-5 4.692-2.67499052.081396-4.91138737-2.01723881-5-4.692.03554154-1.91095189 1.22000835-3.61184623 3-4.308z" fill="#c03a2b"/><path id="Shape" d="m31 3c1.7799916.69615377 2.9644585 2.39704811 3 4.308-.1669773 2.63882398-2.3558984 4.6936142-5 4.6936142s-4.8330227-2.05479022-5-4.6936142c.0355415-1.91095189 1.2200084-3.61184623 3-4.308z" fill="#c03a2b"/><path id="Shape" d="m44.822 43.009c-.1421395-.5328652-.6888491-.8500642-1.222-.709l-2.332.625-1.881-1.086 3.13-.839c.5102529-.161164.8032172-.6954422.6647586-1.2123185s-.6592688-.8331641-1.1817586-.7176815l-5.064 1.357-1.441-.827c.6733177-1.664486.6733177-3.525514 0-5.19l1.441-.832 5.064 1.352c.5224898.1154826 1.0433-.2008052 1.1817586-.7176815s-.1545057-1.0511545-.6647586-1.2123185l-3.132-.839 1.881-1.086 2.334.625c.0843809.0230812.1715208.0345204.259.034.5003551-.0021101.9221362-.3737091.9872732-.8698107s-.2464218-.9639864-.7292732-1.0951893l-.4-.108.508-.293c.4742136-.2780058.6351286-.886647.3602745-1.3626943-.274854-.4760473-.8824145-.640996-1.3602745-.3693057l-.508.293.107-.4c.1053635-.3492132.0122256-.7280938-.2430354-.9886569-.2552611-.2605631-.6321471-.3614694-.9834523-.2633065-.3513053.0981629-.6212938.3798212-.7045123.7349634l-.625 2.332-1.881 1.086.839-3.132c.0925318-.3451186-.0060839-.7133864-.2586994-.9660806-.2526156-.2526941-.6208527-.3514244-.966-.259-.3451474.0924244-.6147688.361962-.7073006.7070806l-1.356 5.064-1.444.833c-1.108962-1.4106021-2.7181055-2.3404966-4.494-2.597v-1.666l3.707-3.707c.3789722-.3923789.3735524-1.0160848-.0121814-1.4018186s-1.0094397-.3911536-1.4018186-.0121814l-2.293 2.293v-2.172l1.707-1.707c.3789722-.3923789.3735524-1.0160848-.0121814-1.4018186s-1.0094397-.3911536-1.4018186-.0121814l-.293.293v-.586c0-.5522847-.4477153-1-1-1s-1 .4477153-1 1v.586l-.293-.293c-.3923789-.3789722-1.0160848-.3735524-1.4018186.0121814s-.3911536 1.0094397-.0121814 1.4018186l1.707 1.707v2.172l-2.293-2.293c-.3923789-.3789722-1.0160848-.3735524-1.4018186.0121814s-.3911536 1.0094397-.0121814 1.4018186l3.707 3.707v1.666c-1.7747184.2562272-3.3829968 1.1849614-4.492 2.594l-1.444-.833-1.356-5.064c-.1430418-.5335071-.6914929-.8500417-1.225-.707-.533507.1430418-.8500417.6914929-.707 1.225l.839 3.132-1.881-1.086-.625-2.332c-.0832185-.3551422-.353207-.6368005-.7045123-.7349634-.3513052-.0981629-.7281912.0027434-.9834523.2633065-.255261.2605631-.3483989.6394437-.2430354.9886569l.107.4-.508-.293c-.47786-.2716903-1.0854205-.1067416-1.3602745.3693057-.2748541.4760473-.1139391 1.0846885.3602745 1.3626943l.508.293-.4.108c-.4828514.1312029-.7944102.5990877-.7292732 1.0951893s.4869181.8677006.9872732.8698107c.0866734.001317.1731258-.0091111.257-.031l2.332-.625 1.881 1.086-3.13.839c-.3591472.07938-.6457274.3495112-.7461737.7033451-.1004463.353834.0014573.7342478.2653282.9904901.2638708.2562422.6471097.3469452.9978455.2361648l5.064-1.357 1.441.832c-.6733177 1.664486-.6733177 3.525514 0 5.19l-1.441.832-5.064-1.357c-.5224898-.1154826-1.0433.2008052-1.1817586.7176815s.1545057 1.0511545.6647586 1.2123185l3.132.839-1.881 1.086-2.334-.625c-.3492132-.1053635-.7280938-.0122256-.9886569.2430354-.2605631.2552611-.3614694.6321471-.2633065.9834523.0981629.3513053.3798212.6212938.7349634.7045123l.4.108-.508.293c-.3119508.1773616-.5049532.5082732-.5057421.8671183s.1907567.6906021.5019247.8693336c.3111679.1787314.694247.1770325 1.0038174-.0044519l.508-.293-.107.4c-.1424732.5331923.1739486 1.0810004.707 1.224.0844078.0229475.1715293.0343843.259.034.4522099-.0003968.8478778-.3042205.965-.741l.625-2.332 1.881-1.086-.839 3.132c-.0687239.2562003-.0328414.5292086.0997517.758949.132593.2297404.3510317.3973878.6072483.466051.0845041.0224639.1715611.0338922.259.034.4525816.0000555.8487814-.3038617.966-.741l1.356-5.064 1.444-.833c1.108962 1.4106021 2.7181055 2.3404966 4.494 2.597v1.666l-3.707 3.707c-.3789722.3923789-.3735524 1.0160848.0121814 1.4018186s1.0094397.3911536 1.4018186.0121814l2.293-2.293v2.172l-1.707 1.707c-.3789722.3923789-.3735524 1.0160848.0121814 1.4018186s1.0094397.3911536 1.4018186.0121814l.293-.293v.586c0 .5522847.4477153 1 1 1s1-.4477153 1-1v-.586l.293.293c.3923789.3789722 1.0160848.3735524 1.4018186-.0121814s.3911536-1.0094397.0121814-1.4018186l-1.707-1.707v-2.172l2.293 2.293c.3923789.3789722 1.0160848.3735524 1.4018186-.0121814s.3911536-1.0094397.0121814-1.4018186l-3.707-3.707v-1.666c1.7747184-.2562272 3.3829968-1.1849614 4.492-2.594l1.444.833 1.356 5.064c.1172186.4371383.5134184.7410555.966.741.0874389-.0001078.1744959-.0115361.259-.034.2562166-.0686632.4746553-.2363106.6072483-.466051.1325931-.2297404.1684756-.5027487.0997517-.758949l-.839-3.132 1.881 1.086.625 2.332c.1171222.4367795.5127901.7406032.965.741.0874707.0003843.1745922-.0110525.259-.034.5330514-.1429996.8494732-.6908077.707-1.224l-.107-.4.508.293c.1518701.0881308.3244113.1343718.5.134.4525881-.0000199.8487411-.3040116.9658809-.7411777.1171399-.4371661-.0739396-.8985084-.4658809-1.1248223l-.508-.293.4-.108c.2562166-.0686632.4746553-.2363106.6072483-.466051.1325931-.2297404.1684756-.5027487.0997517-.758949zm-10.822-6.009c-.006435.5356433-.1003385 1.0666372-.278 1.572l-2.722-1.572 2.722-1.572c.1776615.5053628.271565 1.0363567.278 1.572zm-1.277-3.3-2.723 1.568v-3.168c1.0572495.2236974 2.0130189.7852952 2.723 1.6zm-4.723-1.6v3.167l-2.723-1.567c.7099811-.8147048 1.6657505-1.3763026 2.723-1.6zm-4 4.9c.006435-.5356433.1003385-1.0666372.278-1.572l2.722 1.572-2.722 1.572c-.1776615-.5053628-.271565-1.0363567-.278-1.572zm1.277 3.3 2.723-1.568v3.168c-1.0572495-.2236974-2.0130189-.7852952-2.723-1.6zm4.723 1.6v-3.168l2.723 1.568c-.7099811.8147048-1.6657505 1.3763026-2.723 1.6z" fill="#ecf0f1"/><g fill="#bdc3c7"><circle id="Oval" cx="6" cy="23" r="1"/><circle id="Oval" cx="5" cy="32" r="1"/><circle id="Oval" cx="6" cy="45" r="1"/><circle id="Oval" cx="9" cy="38" r="1"/><circle id="Oval" cx="9" cy="51" r="1"/><circle id="Oval" cx="10" cy="27" r="1"/><circle id="Oval" cx="52" cy="23" r="1"/><circle id="Oval" cx="53" cy="32" r="1"/><circle id="Oval" cx="52" cy="45" r="1"/><circle id="Oval" cx="49" cy="38" r="1"/><circle id="Oval" cx="49" cy="51" r="1"/><circle id="Oval" cx="48" cy="27" r="1"/></g><rect id="Rectangle-path" fill="#95a5a5" height="8" rx="2" width="4" x="44"/><rect id="Rectangle-path" fill="#95a5a5" height="8" rx="2" width="4" x="10"/><rect id="Rectangle-path" fill="#95a5a5" height="8" rx="2" width="4" x="27"/></g></g></svg>