<svg xmlns="http://www.w3.org/2000/svg" height="512pt" version="1.1" viewBox="0 0 512 512" width="512pt">
<g id="surface1">
<path d="M 512 256 C 512 348.257812 463.199219 429.117188 390 474.171875 C 351.023438 498.160156 305.128906 500 256 500 C 114.613281 500 10 397.386719 10 256 C 10 210.195312 12.03125 167.199219 33.101562 130 C 77.074219 52.378906 160.421875 0 256 0 C 397.386719 0 512 114.613281 512 256 Z M 512 256 " style=" stroke:none;fill-rule:nonzero;fill:rgb(63.137255%,60.392157%,7.45098%);fill-opacity:1;" />
<path d="M 445.265625 369.277344 C 433.21875 387.378906 410.449219 399.480469 394.578125 400.402344 C 393.070312 400.488281 392.03125 398.945312 392.644531 397.5625 C 404.078125 371.898438 400.15625 328.425781 438.894531 316.871094 C 444.316406 315.257812 450.011719 318.3125 451.640625 323.726562 C 455.652344 337.054688 455.707031 353.589844 445.265625 369.277344 Z M 251.070312 29.21875 C 215.507812 9.996094 187.542969 43.507812 161.308594 53.574219 C 159.898438 54.113281 159.539062 55.941406 160.667969 56.945312 C 172.542969 67.519531 197.199219 75.0625 218.515625 70.78125 C 236.992188 67.070312 248.648438 55.339844 255.234375 43.078125 C 257.910156 38.097656 256.046875 31.910156 251.070312 29.21875 Z M 251.070312 29.21875 " style=" stroke:none;fill-rule:nonzero;fill:rgb(58.039216%,55.294118%,6.27451%);fill-opacity:1;" />
<path d="M 390.5 473.84375 C 351.414062 498.027344 305.339844 512 256 512 C 114.613281 512 0 397.386719 0 256 C 0 218.96875 7.875 183.78125 22.023438 152 L 370.421875 152 L 370.421875 301.074219 C 370.421875 359.277344 377.171875 417.25 390.5 473.84375 Z M 390.5 473.84375 " style=" stroke:none;fill-rule:nonzero;fill:rgb(96.078431%,86.27451%,56.470588%);fill-opacity:1;" />
<path d="M 339.421875 152 L 339.421875 312.683594 C 339.421875 372.6875 345.613281 432.464844 357.8125 490.933594 C 326.609375 504.476562 292.183594 512 256 512 C 159.632812 512 75.71875 458.746094 32.039062 380.070312 C 30.304688 357.675781 29.421875 335.199219 29.421875 312.683594 L 29.421875 152 Z M 339.421875 152 " style=" stroke:none;fill-rule:nonzero;fill:rgb(99.215686%,96.862745%,74.117647%);fill-opacity:1;" />
<path d="M 380.421875 139.21875 L 380.421875 189.21875 C 380.421875 194.742188 375.941406 199.21875 370.421875 199.21875 L 6.328125 199.21875 C 11.972656 174.3125 21.238281 150.785156 33.554688 129.21875 L 370.421875 129.21875 C 375.941406 129.21875 380.421875 133.695312 380.421875 139.21875 Z M 380.421875 139.21875 " style=" stroke:none;fill-rule:nonzero;fill:rgb(99.215686%,1.568627%,39.215686%);fill-opacity:1;" />
<path d="M 115.484375 165.21875 C 115.484375 170.742188 111.007812 175.21875 105.484375 175.21875 L 81.648438 175.21875 C 76.128906 175.21875 71.648438 170.742188 71.648438 165.21875 C 71.648438 159.695312 76.128906 155.21875 81.648438 155.21875 L 105.484375 155.21875 C 111.007812 155.21875 115.484375 159.695312 115.484375 165.21875 Z M 115.484375 165.21875 " style=" stroke:none;fill-rule:nonzero;fill:rgb(73.72549%,0%,23.137255%);fill-opacity:1;" />
<path d="M 103.566406 115.21875 L 103.566406 175.21875 L 83.566406 175.21875 L 83.566406 115.652344 C 83.566406 107.585938 77.378906 100.636719 69.320312 100.238281 C 60.710938 99.8125 53.566406 106.695312 53.566406 115.21875 L 53.566406 129.21875 L 33.566406 129.21875 L 33.566406 115.875 C 33.566406 96.761719 48.613281 80.679688 67.722656 80.226562 C 87.40625 79.765625 103.566406 95.640625 103.566406 115.21875 Z M 264.15625 80.230469 C 245.050781 80.683594 230 96.765625 230 115.875 L 230 129.21875 L 250 129.21875 L 250 115.21875 C 250 106.695312 257.144531 99.8125 265.757812 100.238281 C 273.8125 100.636719 280 107.585938 280 115.65625 L 280 175.21875 L 300 175.21875 L 300 115.21875 C 300 95.640625 283.839844 79.765625 264.15625 80.230469 Z M 264.15625 80.230469 " style=" stroke:none;fill-rule:nonzero;fill:rgb(99.215686%,95.294118%,52.156863%);fill-opacity:1;" />
<path d="M 78.589844 81.6875 C 64.011719 86.089844 53.523438 99.925781 53.523438 115.875 L 53.523438 129.21875 L 33.566406 129.21875 L 33.566406 115.875 C 33.566406 96.765625 48.613281 80.679688 67.722656 80.230469 C 71.503906 80.140625 75.15625 80.660156 78.589844 81.6875 Z M 264.15625 80.230469 C 245.050781 80.683594 230 96.765625 230 115.875 L 230 129.21875 L 249.957031 129.21875 L 249.957031 115.875 C 249.957031 99.925781 260.445312 86.089844 275.023438 81.6875 C 271.589844 80.660156 267.9375 80.140625 264.15625 80.230469 Z M 264.15625 80.230469 " style=" stroke:none;fill-rule:nonzero;fill:rgb(99.215686%,92.941176%,19.607843%);fill-opacity:1;" />
<path d="M 240 260 L 130 260 C 127.238281 260 125 257.761719 125 255 L 125 235 C 125 232.238281 127.238281 230 130 230 L 240 230 C 242.761719 230 245 232.238281 245 235 L 245 255 C 245 257.761719 242.761719 260 240 260 Z M 240 260 " style=" stroke:none;fill-rule:nonzero;fill:rgb(100%,87.45098%,55.686275%);fill-opacity:1;" />
<path d="M 220 345 L 220 365 C 220 367.761719 217.761719 370 215 370 L 155 370 C 152.238281 370 150 367.761719 150 365 L 150 345 C 150 342.238281 152.238281 340 155 340 L 215 340 C 217.761719 340 220 342.238281 220 345 Z M 125 290 L 65 290 C 62.238281 290 60 292.238281 60 295 L 60 315 C 60 317.761719 62.238281 320 65 320 L 125 320 C 127.761719 320 130 317.761719 130 315 L 130 295 C 130 292.238281 127.761719 290 125 290 Z M 215 290 L 155 290 C 152.238281 290 150 292.238281 150 295 L 150 315 C 150 317.761719 152.238281 320 155 320 L 215 320 C 217.761719 320 220 317.761719 220 315 L 220 295 C 220 292.238281 217.761719 290 215 290 Z M 305 340 L 245 340 C 242.238281 340 240 342.238281 240 345 L 240 365 C 240 367.761719 242.238281 370 245 370 L 305 370 C 307.761719 370 310 367.761719 310 365 L 310 345 C 310 342.238281 307.761719 340 305 340 Z M 215 440 L 155 440 C 152.238281 440 150 442.238281 150 445 L 150 465 C 150 467.761719 152.238281 470 155 470 L 215 470 C 217.761719 470 220 467.761719 220 465 L 220 445 C 220 442.238281 217.761719 440 215 440 Z M 215 390 L 155 390 C 152.238281 390 150 392.238281 150 395 L 150 415 C 150 417.761719 152.238281 420 155 420 L 215 420 C 217.761719 420 220 417.761719 220 415 L 220 395 C 220 392.238281 217.761719 390 215 390 Z M 125 390 L 65 390 C 62.238281 390 60 392.238281 60 395 L 60 415 C 60 417.761719 62.238281 420 65 420 L 125 420 C 127.761719 420 130 417.761719 130 415 L 130 395 C 130 392.238281 127.761719 390 125 390 Z M 305 390 L 245 390 C 242.238281 390 240 392.238281 240 395 L 240 415 C 240 417.761719 242.238281 420 245 420 L 305 420 C 307.761719 420 310 417.761719 310 415 L 310 395 C 310 392.238281 307.761719 390 305 390 Z M 305 290 L 245 290 C 242.238281 290 240 292.238281 240 295 L 240 315 C 240 317.761719 242.238281 320 245 320 L 305 320 C 307.761719 320 310 317.761719 310 315 L 310 295 C 310 292.238281 307.761719 290 305 290 Z M 125 440 L 78.03125 440 C 89.53125 451.121094 102.066406 461.171875 115.480469 470 L 125 470 C 127.761719 470 130 467.761719 130 465 L 130 445 C 130 442.238281 127.761719 440 125 440 Z M 125 340 L 65 340 C 62.238281 340 60 342.238281 60 345 L 60 365 C 60 367.761719 62.238281 370 65 370 L 125 370 C 127.761719 370 130 367.761719 130 365 L 130 345 C 130 342.238281 127.761719 340 125 340 Z M 125 340 " style=" stroke:none;fill-rule:nonzero;fill:rgb(99.215686%,76.078431%,45.098039%);fill-opacity:1;" />
<path d="M 6.328125 199.21875 C 11.414062 176.777344 19.449219 155.457031 30 135.679688 L 30 199.21875 Z M 6.328125 199.21875 " style=" stroke:none;fill-rule:nonzero;fill:rgb(89.019608%,0%,28.235294%);fill-opacity:1;" />
<path d="M 492.015625 135.972656 C 468.246094 126.863281 440.636719 126.21875 413.789062 134.140625 C 426.882812 141.0625 439.226562 149.625 449.777344 159.789062 C 489.0625 197.621094 492.316406 246.480469 483.933594 282.65625 C 448.101562 292.394531 398.875 276.25 359.589844 238.417969 C 347.207031 226.492188 336.945312 213.492188 328.953125 200.15625 C 313.476562 226.125 307.363281 255.351562 311.65625 282.265625 C 312.269531 286.09375 307.960938 288.796875 304.769531 286.59375 C 267.078125 260.578125 244.390625 215.328125 249.476562 166.566406 C 256.859375 95.753906 320.824219 43.871094 391.636719 51.257812 C 440.398438 56.34375 479.992188 87.878906 497.671875 130.125 C 499.167969 133.703125 495.636719 137.363281 492.015625 135.972656 Z M 492.015625 135.972656 " style=" stroke:none;fill-rule:nonzero;fill:rgb(98.823529%,70.196078%,4.313725%);fill-opacity:1;" />
<path d="M 486.183594 270.648438 C 485.582031 274.773438 484.828125 278.792969 483.933594 282.65625 C 448.101562 292.394531 398.871094 276.25 359.589844 238.417969 C 347.628906 226.898438 336.863281 213.070312 328.960938 200.148438 C 318.441406 217.792969 312.25 236.9375 310.707031 255.84375 C 310.710938 255.847656 310.710938 255.847656 310.714844 255.851562 C 309.988281 264.769531 310.277344 273.640625 311.65625 282.265625 C 312.269531 286.113281 308.023438 288.839844 304.816406 286.628906 C 267.097656 260.621094 244.386719 215.351562 249.472656 166.566406 C 251.449219 147.609375 257.488281 130.007812 266.625 114.535156 C 266.472656 115.757812 266.320312 116.984375 266.191406 118.214844 C 262.886719 149.925781 268.097656 180.550781 279.96875 207.839844 C 282.320312 213.25 289.671875 213.957031 293.039062 209.113281 C 302.757812 195.140625 316.941406 179.265625 325.546875 170 C 330.328125 164.855469 335.613281 167.179688 337.265625 170.003906 C 347.691406 187.820312 366.5625 212.804688 380.421875 226.148438 C 411.28125 255.867188 454.363281 269.730469 486.183594 270.648438 Z M 486.183594 270.648438 " style=" stroke:none;fill-rule:nonzero;fill:rgb(98.823529%,57.647059%,0.784314%);fill-opacity:1;" />
<path d="M 419.371094 106.882812 C 417.566406 111.433594 412.410156 113.65625 407.859375 111.847656 C 389.210938 104.441406 370.03125 99.996094 351.027344 98.402344 C 361.441406 128.769531 380.257812 157.210938 406.261719 180.242188 C 409.929688 183.488281 410.269531 189.089844 407.023438 192.757812 C 404.558594 195.539062 400.734375 196.40625 397.429688 195.238281 C 396.382812 194.871094 395.390625 194.296875 394.507812 193.515625 C 365.175781 167.542969 344.199219 135.183594 333.070312 100.632812 C 322.761719 113.808594 313.941406 128.574219 307.007812 144.644531 C 305.066406 149.140625 299.851562 151.214844 295.355469 149.273438 C 291.941406 147.800781 289.925781 144.4375 290.003906 140.9375 C 290.027344 139.824219 290.261719 138.703125 290.726562 137.621094 C 300.101562 115.898438 312.644531 96.359375 327.570312 79.570312 C 322.734375 55.582031 322.59375 30.964844 327.632812 7.042969 C 328.640625 2.253906 333.339844 -0.816406 338.132812 0.191406 C 342.925781 1.203125 345.988281 5.902344 344.980469 10.695312 C 340.15625 33.628906 340.632812 57.296875 345.859375 80.285156 C 368.753906 81.472656 391.945312 86.453125 414.402344 95.371094 C 415.5 95.804688 416.460938 96.433594 417.261719 97.199219 C 419.792969 99.621094 420.742188 103.425781 419.371094 106.882812 Z M 419.371094 106.882812 " style=" stroke:none;fill-rule:nonzero;fill:rgb(96.078431%,49.411765%,0%);fill-opacity:1;" />
</g>
</svg>