<svg id="Capa_1" enable-background="new 0 0 512 512" height="512" viewBox="0 0 512 512" width="512" xmlns="http://www.w3.org/2000/svg"><g><path d="m230.417 65.977c-5.893 0-11.374-1.749-15.965-4.748v26.19h31.931v-26.19c-4.592 2.998-10.074 4.748-15.966 4.748z" fill="#e8b800"/><g><path d="m375.499 348.004c-1.084-.844-2.603-.844-3.687 0l-23.944 18.647c-1.97 1.534-4.843.13-4.843-2.367v-83.077c-20.448-10.949-34.362-32.51-34.362-57.327 0-35.894 29.098-64.992 64.992-64.992 4.197 0 8.295.413 12.271 1.173v-55.829c0-2.761-2.239-5-5-5h-73.095v36.593c0 2.206-1.794 4-4 4h-146.829c-2.206 0-4-1.794-4-4v-36.592h-73.095c-2.761 0-5 2.239-5 5v395.267c0 2.761 2.239 5 5 5h301.019c2.761 0 5-2.239 5-5v-143.375z" fill="#f6a96c"/></g><path d="m117.758 499.5v-20.969h-13.882c-1.657 0-3-1.343-3-3v-347.329c0-1.657 1.343-3 3-3h13.882v-20.969c0-2.761 2.239-5 5-5h-42.851c-2.761 0-5 2.239-5 5v395.267c0 2.761 2.239 5 5 5h42.851c-2.761 0-5-2.239-5-5z" fill="#ea9b58"/><path d="m347.868 366.652c-1.97 1.534-4.843.13-4.843-2.367v-83.097c-20.445-10.947-34.362-32.493-34.362-57.307 0-31.193 21.98-57.242 51.294-63.533v-32.146c0-1.657-1.343-3-3-3h-49.126v10.623c0 2.206-1.794 4-4 4h-146.829c-2.206 0-4-1.794-4-4v-10.623h-49.126c-1.657 0-3 1.343-3 3v347.329c0 1.657 1.343 3 3 3h253.081c1.657 0 3-1.343 3-3v-118.294z" fill="#dff6fd"/><g><path d="m130.876 475.531v-347.329c0-1.657 1.343-3 3-3h-30c-1.657 0-3 1.343-3 3v347.329c0 1.657 1.343 3 3 3h30c-1.657 0-3-1.343-3-3z" fill="#c8effe"/></g><g><path d="m303.831 140.825h-146.829c-2.761 0-5-2.239-5-5v-43.407c0-2.761 2.239-5 5-5h146.829c2.761 0 5 2.239 5 5v43.407c0 2.762-2.239 5-5 5z" fill="#fac600"/></g><g><path d="m177.777 135.825v-43.407c0-2.761 2.239-5 5-5h-25.775c-2.761 0-5 2.239-5 5v43.407c0 2.761 2.239 5 5 5h25.775c-2.761 0-5-2.238-5-5z" fill="#e8b800"/></g><path d="m373.655 288.873c-11.077 0-21.503-2.778-30.63-7.666v83.077c0 2.497 2.873 3.901 4.843 2.367l23.944-18.647c1.084-.844 2.603-.844 3.687 0l23.944 18.647c1.97 1.534 4.843.13 4.843-2.367v-83.077c-9.128 4.887-19.553 7.666-30.631 7.666z" fill="#fb2b3a"/><path d="m343.025 281.207v83.077c0 2.497 2.873 3.901 4.843 2.367l20.648-16.081v-61.919c-9.161-.717-17.79-3.321-25.491-7.444z" fill="#e41f2d"/><g><g><circle cx="373.655" cy="223.881" fill="#4fc123" r="64.992"/></g><g><path d="m341.793 223.881c0-30.168 20.558-55.529 48.427-62.854-5.289-1.39-10.839-2.138-16.565-2.138-35.894 0-64.992 29.098-64.992 64.992s29.098 64.992 64.992 64.992c5.726 0 11.276-.747 16.565-2.138-27.869-7.325-48.427-32.686-48.427-62.854z" fill="#47a920"/></g></g><g><circle cx="230.417" cy="36.738" fill="#fac600" r="29.238"/></g><g><path d="m226.301 36.738c0-11.651 6.816-21.708 16.677-26.407-3.806-1.814-8.064-2.831-12.561-2.831-16.148 0-29.238 13.09-29.238 29.238s13.09 29.238 29.238 29.238c4.497 0 8.755-1.018 12.561-2.831-9.861-4.699-16.677-14.756-16.677-26.407z" fill="#e8b800"/></g><g><path d="m175.075 187.352-16.996 16.996-9.083-9.083c-2.928-2.93-7.677-2.929-10.606 0s-2.929 7.677 0 10.606l14.387 14.387c1.406 1.407 3.314 2.197 5.303 2.197s3.897-.79 5.303-2.197l22.299-22.3c2.929-2.929 2.929-7.678 0-10.606-2.929-2.929-7.678-2.929-10.607 0z"/><path d="m175.075 256.795-16.996 16.996-9.083-9.083c-2.929-2.929-7.678-2.929-10.606 0-2.929 2.929-2.929 7.678 0 10.606l14.387 14.387c1.464 1.464 3.384 2.197 5.303 2.197s3.839-.732 5.303-2.197l22.299-22.299c2.929-2.929 2.929-7.678 0-10.606-2.929-2.929-7.678-2.929-10.607-.001z"/><path d="m209.75 293.14h107.391c4.142 0 7.5-3.358 7.5-7.5s-3.358-7.5-7.5-7.5h-107.391c-4.142 0-7.5 3.358-7.5 7.5s3.358 7.5 7.5 7.5z"/><path d="m175.075 326.238-16.996 16.996-9.083-9.083c-2.929-2.929-7.678-2.929-10.606 0-2.929 2.929-2.929 7.678 0 10.606l14.387 14.387c1.464 1.464 3.384 2.197 5.303 2.197s3.839-.732 5.303-2.197l22.299-22.299c2.929-2.929 2.929-7.678 0-10.606-2.929-2.929-7.678-2.929-10.607-.001z"/><path d="m317.141 322.8h-107.391c-4.142 0-7.5 3.358-7.5 7.5s3.358 7.5 7.5 7.5h107.391c4.142 0 7.5-3.358 7.5-7.5s-3.358-7.5-7.5-7.5z"/><path d="m317.141 347.583h-107.391c-4.142 0-7.5 3.358-7.5 7.5s3.358 7.5 7.5 7.5h107.391c4.142 0 7.5-3.358 7.5-7.5s-3.358-7.5-7.5-7.5z"/><path d="m175.075 395.681-16.996 16.997-9.083-9.083c-2.929-2.929-7.678-2.929-10.606 0-2.929 2.929-2.929 7.678 0 10.606l14.387 14.387c1.406 1.407 3.314 2.197 5.303 2.197s3.897-.79 5.303-2.197l22.299-22.3c2.929-2.929 2.929-7.678 0-10.606-2.929-2.93-7.678-2.93-10.607-.001z"/><path d="m317.141 392.243h-107.391c-4.142 0-7.5 3.358-7.5 7.5s3.358 7.5 7.5 7.5h107.391c4.142 0 7.5-3.358 7.5-7.5s-3.358-7.5-7.5-7.5z"/><path d="m324.641 424.525c0-4.142-3.358-7.5-7.5-7.5h-107.391c-4.142 0-7.5 3.358-7.5 7.5s3.358 7.5 7.5 7.5h107.391c4.142 0 7.5-3.358 7.5-7.5z"/><path d="m438.714 230.678c-4.048-.897-8.05 1.655-8.945 5.699-5.778 26.072-29.377 44.996-56.114 44.996-31.701 0-57.492-25.791-57.492-57.492s25.791-57.492 57.492-57.492c24.647 0 46.525 15.681 54.442 39.021 1.331 3.923 5.592 6.026 9.512 4.693 3.922-1.331 6.024-5.589 4.693-9.512-7.795-22.983-26.329-40.076-48.876-46.462v-49.896c0-6.893-5.607-12.5-12.5-12.5h-64.63c-.359-6.573-5.804-11.814-12.465-11.814h-49.949v-14.937c8.104-6.744 13.273-16.901 13.273-28.244 0-20.257-16.481-36.738-36.739-36.738-20.257 0-36.738 16.481-36.738 36.738 0 11.343 5.169 21.499 13.273 28.243v14.936h-49.949c-6.661 0-12.106 5.241-12.465 11.814h-64.63c-6.893 0-12.5 5.607-12.5 12.5v395.269c0 6.893 5.607 12.5 12.5 12.5h301.019c6.893 0 12.5-5.607 12.5-12.5v-128.028l1.407 1.096c3.19 2.484 7.429 2.926 11.062 1.15 3.633-1.775 5.89-5.391 5.89-9.434v-78.756c2.618-1.618 5.138-3.406 7.541-5.358 12.664-10.293 21.574-24.693 25.087-40.547.897-4.044-1.655-8.049-5.699-8.945zm-60.288-79.12c-1.581-.104-3.17-.169-4.771-.169-2.09 0-4.153.109-6.198.283v-23.47c0-5.79-4.71-10.5-10.5-10.5h-40.626v-10.969h62.095zm-148.01-136.558c11.987 0 21.739 9.752 21.739 21.738s-9.752 21.738-21.739 21.738c-11.986 0-21.738-9.752-21.738-21.738s9.752-21.738 21.738-21.738zm-8.465 57.481c2.72.644 5.552.995 8.465.995s5.746-.351 8.465-.995v7.437h-16.931v-7.437zm156.475 424.519h-296.019v-390.268h62.095v10.969h-40.626c-5.79 0-10.5 4.71-10.5 10.5v347.329c0 5.79 4.71 10.5 10.5 10.5h182.901c4.142 0 7.5-3.358 7.5-7.5s-3.358-7.5-7.5-7.5h-178.401v-338.328h36.126v3.124c0 6.893 5.607 12.5 12.5 12.5h26.775c4.142 0 7.5-3.358 7.5-7.5s-3.358-7.5-7.5-7.5h-24.275v-38.408h141.829v38.407h-82.554c-4.142 0-7.5 3.358-7.5 7.5s3.358 7.5 7.5 7.5h85.054c6.893 0 12.5-5.607 12.5-12.5v-3.124h36.126v21.856c-16.23 4.973-30.047 15.501-39.24 29.356h-103.467c-4.142 0-7.5 3.358-7.5 7.5s3.358 7.5 7.5 7.5h95.846c-1.164 3.163-2.103 6.432-2.82 9.782h-93.026c-4.142 0-7.5 3.358-7.5 7.5s3.358 7.5 7.5 7.5h91.418c0 .062-.005.123-.005.185 0 10.493 2.259 20.463 6.288 29.476h-97.701c-4.142 0-7.5 3.358-7.5 7.5s3.358 7.5 7.5 7.5h106.722c5.281 6.775 11.73 12.593 19.053 17.141v78.787c0 4.043 2.257 7.659 5.89 9.434 1.479.723 3.058 1.078 4.625 1.078 2.276 0 4.529-.75 6.416-2.214v98.448h-30.68c-4.142 0-7.5 3.358-7.5 7.5s3.358 7.5 7.5 7.5h35.18c5.79 0 10.5-4.71 10.5-10.5v-114.628l6.198-4.827 4.771 3.716v137.209zm18.36-141.924-16.678-12.989c-1.899-1.479-4.175-2.219-6.452-2.219-2.276 0-4.552.74-6.452 2.219l-16.678 12.989v-62.51c7.27 2.455 15.043 3.806 23.13 3.806 7.905 0 15.719-1.32 23.13-3.816z"/><path d="m398.112 204.114-27.816 27.816-16.064-16.064c-2.929-2.929-7.678-2.929-10.606 0-2.929 2.929-2.929 7.678 0 10.606l21.368 21.368c1.464 1.464 3.384 2.197 5.303 2.197s3.839-.732 5.303-2.197l33.12-33.12c2.929-2.929 2.929-7.678 0-10.606-2.931-2.928-7.68-2.928-10.608 0z"/><path d="m273.652 114.122c0-4.142-3.358-7.5-7.5-7.5h-71.471c-4.142 0-7.5 3.358-7.5 7.5s3.358 7.5 7.5 7.5h71.471c4.142 0 7.5-3.358 7.5-7.5z"/></g></g></svg>