<svg height="480pt" viewBox="0 0 480 480" width="480pt" xmlns="http://www.w3.org/2000/svg"><path d="m400 416h-384v-240c0-8.839844 7.160156-16 16-16h352c8.839844 0 16 7.160156 16 16zm0 0" fill="#b3b3b3"/><path d="m48 192h320v192h-320zm0 0" fill="#67cbf5"/><path d="m48 192h296v192h-296zm0 0" fill="#99ddf8"/><path d="m336 0 144 112v144h-288v-144zm0 0" fill="#ff6a5b"/><path d="m336 184 104-52v-100h-208v100zm0 0" fill="#bfa54b"/><path d="m324 178 92-46v-100h-184v100zm0 0" fill="#ffdc64"/><path d="m384 480h-352c-17.671875 0-32-14.328125-32-32v-32h416v32c0 17.671875-14.328125 32-32 32zm0 0" fill="#4d4d4d"/><path d="m392 448v-32h-392v32c0 17.671875 14.328125 32 32 32h328c17.671875 0 32-14.328125 32-32zm0 0" fill="#666"/><path d="m112 416v16c0 8.839844 7.160156 16 16 16h160c8.839844 0 16-7.160156 16-16v-16zm0 0" fill="#c7cad3"/><path d="m328 136h16v16h-16zm0 0" fill="#605326"/><path d="m199 106.550781-7 5.449219v8.945312l270.113281 135.054688h17.886719v-8.945312zm0 0" fill="#80352e"/><path d="m480 112-7-5.449219-281 140.503907v8.945312h17.886719l270.113281-135.054688zm0 0" fill="#80352e"/><path d="m328 56h16v64h-16zm0 0" fill="#605326"/></svg>