<svg id="Capa_1" enable-background="new 0 0 512 512" height="512" viewBox="0 0 512 512" width="512" xmlns="http://www.w3.org/2000/svg"><g><path d="m67.874 135.749h376.251v376.251h-376.251z" fill="#d8ecfe" transform="matrix(-1 0 0 -1 512 647.749)"/><path d="m413.028 146.194h20.577v365.806h-20.577z" fill="#b3dafe" transform="matrix(-1 0 0 -1 846.633 658.194)"/><path d="m235.423 146.194h20.577v365.806h-20.577z" fill="#b3dafe" transform="matrix(-1 0 0 -1 491.423 658.194)"/><path d="m0 128.407h78.395v383.593h-78.395z" fill="#596c76"/><path d="m78.395 298.1h355.21v61.995h-355.21z" fill="#8ac9fe"/><path d="m413.028 298.1h20.577v61.995h-20.577z" fill="#60b7ff"/><path d="m57.818 128.407h20.577v383.593h-20.577z" fill="#465a61"/><path d="m235.423 298.1h20.577v61.995h-20.577z" fill="#60b7ff"/><g><path d="m248.284 511.962v-391.783c0-4.262 3.454-7.716 7.716-7.716s7.716 3.455 7.716 7.716v391.783z" fill="#8d9ca8"/></g><path d="m433.605 119.691h78.395v392.309h-78.395z" fill="#596c76"/><path d="m491.423 119.691h20.577v392.309h-20.577z" fill="#465a61"/><path d="m0 0h512v146.194h-512z" fill="#8d9ca8"/><path d="m491.423 0h20.577v146.194h-20.577z" fill="#7a8c98"/><path d="m181.693 39.278c2.528 1.407 4.647 3.478 6.075 6.497 2.621 5.541.682 12.36-4.689 15.426-.065.037-.131.074-.198.111-.093.051-83.378 46.04-83.378 46.04-5.972 3.297-12.695 5.041-19.443 5.041-11.318 0-22.181-4.873-29.803-13.369l-4.729-5.271-7.583-8.482c-2.718-3.041-1.955-7.812 1.576-9.852l1.933-1.117c7.777-4.494 17.446-4.112 24.845.98l4.003 2.755c.638.439 1.744 1.236 2.315 1.76 2.314 2.124 5.717 2.555 8.518 1.007l22.509-13.569c2.272-1.391 2.732-4.499.96-6.488l-13.04-14.635c-1.672-1.876-1.287-4.8.814-6.18l5.115-3.359c5.517-3.623 12.639-3.702 18.234-.201l14.903 9.324c3.051 1.909 6.871 2.122 10.114.562 3.486-1.677 6.341-2.723 10.263-4.836 9.07-4.883 21.143-7.456 30.686-2.144z" fill="#e8edf2"/><path d="m183.076 61.2c-.062.041-.123.072-.196.113-.092.051-83.377 46.041-83.377 46.041-5.967 3.292-12.696 5.041-19.445 5.041-11.317 0-22.182-4.877-29.795-13.375l-2.099-2.335c5.854 3.241 12.48 4.99 19.26 4.99 6.749 0 13.468-1.749 19.445-5.041 0 0 83.285-45.989 83.377-46.041.062-.041.123-.082.196-.113 4.743-2.706 6.811-8.354 5.422-13.457 2.006.484 3.971 1.214 5.834 2.253 2.521 1.41 4.64 3.477 6.07 6.502 2.623 5.535.679 12.356-4.692 15.422z" fill="#d9e7ec"/><g fill="#596c76"><path d="m325.971 32.415c-.026-.071-.054-.143-.083-.213-1.47-3.57-4.912-5.876-8.773-5.876-.002 0-.006 0-.009 0-3.863.004-7.306 2.317-8.77 5.893-.024.059-.048.118-.07.177l-29.33 77.01c-1.517 3.983.482 8.441 4.465 9.957 3.978 1.517 8.44-.481 9.957-4.464l5.412-14.209h36.474l5.354 14.187c1.165 3.09 4.102 4.994 7.22 4.994.905 0 1.827-.16 2.724-.499 3.987-1.505 5.999-5.957 4.494-9.944zm-21.325 52.841 12.443-32.67 12.329 32.67z"/><path d="m400.405 27.825h-16.375c-4.262 0-7.716 3.455-7.716 7.716s3.454 7.716 7.716 7.716h8.659v68.895c0 4.262 3.454 7.716 7.716 7.716s7.716-3.455 7.716-7.716v-76.611c0-4.261-3.454-7.716-7.716-7.716z"/><path d="m475.692 104.259c-.033 0-.066 0-.098.001-8.506.107-17.562.173-24.699.175 4.311-5.733 10.576-14.237 19.347-26.77 4.826-6.895 7.967-13.393 9.34-19.314.058-.252.103-.507.137-.764l.379-2.963c.041-.324.062-.651.062-.978 0-15.064-12.256-27.32-27.32-27.32-13.025 0-24.299 9.266-26.807 22.033-.821 4.182 1.903 8.237 6.085 9.059 4.185.822 8.238-1.903 9.059-6.085 1.09-5.548 5.995-9.575 11.664-9.575 6.41 0 11.652 5.1 11.879 11.456l-.255 2.001c-.977 3.911-3.285 8.484-6.865 13.6-12.148 17.358-19.398 26.85-23.293 31.949-4.728 6.191-6.685 8.754-5.351 13.092.777 2.525 2.693 4.463 5.255 5.318 1.055.352 2.132.712 16.751.712 5.833 0 13.824-.057 24.827-.195 4.262-.054 7.673-3.551 7.619-7.813-.055-4.228-3.499-7.619-7.716-7.619z"/></g></g></svg>