<?xml version="1.0" encoding="iso-8859-1"?>
<!-- Generator: Adobe Illustrator 19.0.0, SVG Export Plug-In . SVG Version: 6.00 Build 0)  -->
<svg version="1.1" id="Capa_1" xmlns="http://www.w3.org/2000/svg" xmlns:xlink="http://www.w3.org/1999/xlink" x="0px" y="0px"
	 viewBox="0 0 480 480" style="enable-background:new 0 0 480 480;" xml:space="preserve">
<path style="fill:#F8CF26;" d="M88,472H48V136h64v120H88V472z"/>
<path style="fill:#97D7D9;" d="M48,360h40V256h24v-32H48V360z"/>
<g>
	<path style="fill:#29485A;" d="M232,80l34.856,34.856l38.44-18.208L256,72L232,80z"/>
	<path style="fill:#29485A;" d="M288,56l33.416,33.416l50.24-24.2L320,48L288,56z"/>
	<path style="fill:#29485A;" d="M400,94.832V160l-32,16l-16.552-57.936L400,94.832z"/>
</g>
<g>
	<path style="fill:#ACDEE0;" d="M152,40H8l5.336,32h133.328L152,40z"/>
	<path style="fill:#ACDEE0;" d="M24,136h112l5.336-32H18.664L24,136z"/>
</g>
<path style="fill:#06AAE9;" d="M13.336,72l5.328,32h122.672l5.328-32H13.336z"/>
<path d="M40,0h16v40H40V0z"/>
<path d="M72,16h16v24H72V16z"/>
<path d="M96,16h16v24H96V16z"/>
<path style="fill:#81D0D3;" d="M88,256h368v216H88V256z"/>
<path style="fill:#29485A;" d="M88,288h368v72H88V288z"/>
<g>
	<path style="fill:#0378A3;" d="M112,376h16v16h-16V376z"/>
	<path style="fill:#0378A3;" d="M144,376h16v16h-16V376z"/>
	<path style="fill:#0378A3;" d="M176,376h16v16h-16V376z"/>
	<path style="fill:#0378A3;" d="M208,376h16v16h-16V376z"/>
	<path style="fill:#0378A3;" d="M240,376h16v16h-16V376z"/>
	<path style="fill:#0378A3;" d="M272,376h16v16h-16V376z"/>
	<path style="fill:#0378A3;" d="M112,408h16v16h-16V408z"/>
	<path style="fill:#0378A3;" d="M144,408h16v16h-16V408z"/>
	<path style="fill:#0378A3;" d="M176,408h16v16h-16V408z"/>
	<path style="fill:#0378A3;" d="M208,408h16v16h-16V408z"/>
	<path style="fill:#0378A3;" d="M240,408h16v16h-16V408z"/>
	<path style="fill:#0378A3;" d="M272,408h16v16h-16V408z"/>
	<path style="fill:#0378A3;" d="M312,384h120v32H312V384z"/>
</g>
<g>
	<path style="fill:#29485A;" d="M144,440h56v32h-56V440z"/>
	<path style="fill:#29485A;" d="M344,440h56v32h-56V440z"/>
</g>
<g>
	<path style="fill:#0378A3;" d="M88,360l72-72H88V360z"/>
	<path style="fill:#0378A3;" d="M216,288l-72,72h40l72-72H216z"/>
	<path style="fill:#0378A3;" d="M328,288l-72,72h96l72-72H328z"/>
	<path style="fill:#0378A3;" d="M456,304l-56,56h56V304z"/>
</g>
<path style="fill:#06AAE9;" d="M408,48h40l-16,32l-112,56h-56l-8-16L408,48z"/>
<path style="fill:#333333;" d="M0,464h480v16H0V464z"/>
<g>
</g>
<g>
</g>
<g>
</g>
<g>
</g>
<g>
</g>
<g>
</g>
<g>
</g>
<g>
</g>
<g>
</g>
<g>
</g>
<g>
</g>
<g>
</g>
<g>
</g>
<g>
</g>
<g>
</g>
</svg>
