<svg id="Layer_1" enable-background="new 0 0 512 512" height="512" viewBox="0 0 512 512" width="512" xmlns="http://www.w3.org/2000/svg"><g><path d="m15.453 145.14h481.095v352.214h-481.095z" fill="#ecf5ff"/><path d="m465.642 145.14h30.905v352.214h-30.905z" fill="#dceafc"/><path d="m10.302 114.17h491.396c5.69 0 10.302 4.622 10.302 10.323v10.323c0 5.701-4.612 10.323-10.302 10.323h-491.396c-5.69.001-10.302-4.621-10.302-10.322v-10.323c0-5.702 4.612-10.324 10.302-10.324z" fill="#4f6d8f"/><path d="m501.698 114.17h-30.905c5.69 0 10.302 4.622 10.302 10.323v10.323c0 5.701-4.612 10.323-10.302 10.323h30.905c5.69 0 10.302-4.622 10.302-10.323v-10.323c0-5.701-4.612-10.323-10.302-10.323z" fill="#455e7e"/><g><path d="m256 307.329c-4.268 0-7.726-3.459-7.726-7.726v-154.463c0-4.268 3.459-7.726 7.726-7.726s7.726 3.459 7.726 7.726v154.463c0 4.267-3.458 7.726-7.726 7.726z" fill="#cbe0fd"/></g><g><path d="m135.726 307.329c-4.268 0-7.726-3.459-7.726-7.726v-154.463c0-4.268 3.459-7.726 7.726-7.726 4.268 0 7.726 3.459 7.726 7.726v154.463c.001 4.267-3.458 7.726-7.726 7.726z" fill="#cbe0fd"/></g><g><path d="m376.274 307.329c-4.268 0-7.726-3.459-7.726-7.726v-154.463c0-4.268 3.459-7.726 7.726-7.726s7.726 3.458 7.726 7.726v154.463c0 4.267-3.459 7.726-7.726 7.726z" fill="#cbe0fd"/></g><path d="m407.179 249.819v-67.592c0-3.414 2.767-6.181 6.181-6.181h46.101c3.414 0 6.181 2.767 6.181 6.181v67.592c0 3.414-2.767 6.181-6.181 6.181h-46.101c-3.414 0-6.181-2.767-6.181-6.181z" fill="#cbe0fd"/><path d="m459.461 176.045h-30.905c3.414 0 6.181 2.768 6.181 6.181v67.593c0 3.414-2.767 6.181-6.181 6.181h30.905c3.414 0 6.181-2.767 6.181-6.181v-67.593c0-3.413-2.767-6.181-6.181-6.181z" fill="#bdd8fc"/><path d="m46.358 249.819v-67.592c0-3.414 2.767-6.181 6.181-6.181h46.101c3.414 0 6.181 2.767 6.181 6.181v67.592c0 3.414-2.767 6.181-6.181 6.181h-46.101c-3.413 0-6.181-2.767-6.181-6.181z" fill="#cbe0fd"/><path d="m98.64 176.045h-30.906c3.414 0 6.181 2.768 6.181 6.181v67.593c0 3.414-2.767 6.181-6.181 6.181h30.906c3.414 0 6.181-2.767 6.181-6.181v-67.593c0-3.413-2.767-6.181-6.181-6.181z" fill="#bdd8fc"/><g><circle cx="256" cy="129.655" fill="#efc89c" r="129.655"/><path d="m256 0c-5.23 0-10.385.318-15.453.921 64.321 7.639 114.203 62.357 114.203 128.734s-49.882 121.094-114.202 128.734c5.068.602 10.223.921 15.453.921 71.606 0 129.655-58.049 129.655-129.655s-58.05-129.655-129.656-129.655z" fill="#ebb780"/><path d="m356.372 115.252c0 2.766-1.883 5.26-4.679 5.922-10.7 2.548-34.173 8.139-52.8 12.666-1.412.343-2.656 1.174-3.518 2.345-12.797 17.405-25.58 34.81-38.371 52.214-2.251 3.06-5.966 4.694-9.74 4.282l-5.604-.61c-1.909-.208-3.168-2.087-2.634-3.931 4.108-14.178 8.212-28.367 12.321-42.549-17.009 4.274-33.591 8.549-47.973 12.433-7.828 2.111-16.163-.53-21.334-6.768-9.536-11.485-20.873-25.144-25.704-30.964-1.378-1.66-.672-4.202 1.373-4.889 1.275-.428 2.605-.643 3.938-.643 2.442 0 4.899.728 7.011 2.192 4.524 3.127 10.41 7.21 15.707 10.873 4.863 3.362 10.939 4.488 16.692 3.09 13.367-3.259 26.734-6.518 40.101-9.777 4.208-1.023 6.253-5.804 4.098-9.564l-23.231-40.376c-1.185-2.06.302-4.632 2.679-4.632h6.339c3.656 0 7.232 1.052 10.307 3.038 18.039 11.638 45.943 29.633 53.895 34.768 1.398.905 3.097 1.229 4.738.92l33.576-6.386c10.395-1.979 20.474 4.716 22.681 15.067.088.426.132.86.132 1.279z" fill="#fff"/></g><g><path d="m135.726 488.757c-4.268 0-7.726-3.459-7.726-7.726v-163.188c0-4.268 3.459-7.726 7.726-7.726 4.268 0 7.726 3.459 7.726 7.726v163.187c.001 4.268-3.458 7.727-7.726 7.727z" fill="#cbe0fd"/></g><g><path d="m256 488.757c-4.268 0-7.726-3.459-7.726-7.726v-163.188c0-4.268 3.459-7.726 7.726-7.726s7.726 3.459 7.726 7.726v163.187c0 4.268-3.458 7.727-7.726 7.727z" fill="#cbe0fd"/></g><g><path d="m376.274 488.757c-4.268 0-7.726-3.459-7.726-7.726v-163.188c0-4.268 3.459-7.726 7.726-7.726s7.726 3.459 7.726 7.726v163.187c0 4.268-3.459 7.727-7.726 7.727z" fill="#cbe0fd"/></g><g><path d="m46.358 418.993c-4.268 0-7.726-3.459-7.726-7.726v-23.66c0-4.268 3.459-7.726 7.726-7.726s7.726 3.459 7.726 7.726v23.66c.001 4.267-3.458 7.726-7.726 7.726z" fill="#4f6d8f"/></g><g><path d="m166.632 418.993c-4.268 0-7.726-3.459-7.726-7.726v-23.66c0-4.268 3.459-7.726 7.726-7.726s7.726 3.459 7.726 7.726v23.66c0 4.267-3.459 7.726-7.726 7.726z" fill="#4f6d8f"/></g><g><path d="m286.905 418.993c-4.268 0-7.726-3.459-7.726-7.726v-23.66c0-4.268 3.459-7.726 7.726-7.726s7.726 3.459 7.726 7.726v23.66c.001 4.267-3.458 7.726-7.726 7.726z" fill="#4f6d8f"/></g><g><path d="m407.179 418.993c-4.268 0-7.726-3.459-7.726-7.726v-23.66c0-4.268 3.459-7.726 7.726-7.726s7.726 3.459 7.726 7.726v23.66c0 4.267-3.458 7.726-7.726 7.726z" fill="#4f6d8f"/></g><path d="m10.302 481.03h491.396c5.69 0 10.302 4.622 10.302 10.323v10.323c0 5.701-4.612 10.323-10.302 10.323h-491.396c-5.69.001-10.302-4.621-10.302-10.322v-10.323c0-5.702 4.612-10.324 10.302-10.324z" fill="#bee49d"/><path d="m501.698 481.03h-30.905c5.69 0 10.302 4.622 10.302 10.323v10.323c0 5.701-4.612 10.323-10.302 10.323h30.905c5.69 0 10.302-4.622 10.302-10.323v-10.323c0-5.701-4.612-10.323-10.302-10.323z" fill="#a3d8a4"/><path d="m10.302 286.873h491.396c5.69 0 10.302 4.622 10.302 10.323v10.323c0 5.701-4.612 10.323-10.302 10.323h-491.396c-5.69.001-10.302-4.621-10.302-10.322v-10.323c0-5.702 4.612-10.324 10.302-10.324z" fill="#4f6d8f"/><path d="m501.698 286.873h-30.905c5.69 0 10.302 4.622 10.302 10.323v10.323c0 5.701-4.612 10.323-10.302 10.323h30.905c5.69 0 10.302-4.622 10.302-10.323v-10.323c0-5.701-4.612-10.323-10.302-10.323z" fill="#455e7e"/></g></svg>