<?xml version="1.0" encoding="iso-8859-1"?>
<!-- Generator: Adobe Illustrator 19.0.0, SVG Export Plug-In . SVG Version: 6.00 Build 0)  -->
<svg version="1.1" id="Capa_1" xmlns="http://www.w3.org/2000/svg" xmlns:xlink="http://www.w3.org/1999/xlink" x="0px" y="0px"
	 viewBox="0 0 512 512" style="enable-background:new 0 0 512 512;" xml:space="preserve">
<path style="fill:#364061;" d="M4.339,433.898c0,9.546,7.81,17.356,17.356,17.356h468.61c9.546,0,17.356-7.81,17.356-17.356v-52.068
	H4.339V433.898z"/>
<polygon style="fill:#DDDDDB;" points="82.441,312.407 82.441,95.458 39.051,95.458 39.051,347.119 472.949,347.119 472.949,95.458 
	342.78,95.458 342.78,312.407 "/>
<path style="fill:#DB8D07;" d="M342.78,43.39v17.356h86.78V43.39c0-24.298-19.092-43.39-43.39-43.39S342.78,19.092,342.78,43.39z"/>
<g>
	<path style="fill:#364061;" d="M490.305,60.746h-60.746h-86.78v34.712h121.492c5.207,0,8.678,3.471,8.678,8.678v234.305
		c0,5.207-3.471,8.678-8.678,8.678H47.729c-5.207,0-8.678-3.471-8.678-8.678V104.136c0-5.207,3.471-8.678,8.678-8.678h34.712V60.746
		H21.695c-9.546,0-17.356,7.81-17.356,17.356v303.729h503.322V78.102C507.661,68.556,499.851,60.746,490.305,60.746z"/>
	<rect x="169.22" y="451.254" style="fill:#364061;" width="173.559" height="52.068"/>
</g>
<path style="fill:#DB8D07;" d="M82.441,312.407H342.78V43.39c0-24.298,19.092-43.39,43.39-43.39H125.831
	c-24.298,0-43.39,19.092-43.39,43.39V312.407z"/>
<g style="opacity:0.3;enable-background:new    ;">
	<path d="M342.78,43.39v17.356h86.78V43.39c0-24.298-19.092-43.39-43.39-43.39S342.78,19.092,342.78,43.39z"/>
</g>
<path style="fill:#364061;" d="M386.169,512H125.831c-5.207,0-8.678-3.471-8.678-8.678l0,0c0-5.207,3.471-8.678,8.678-8.678h260.339
	c5.207,0,8.678,3.471,8.678,8.678l0,0C394.847,508.529,391.376,512,386.169,512z"/>
<g>
	<path style="fill:#7E3B04;" d="M186.576,138.847h-69.424c-5.207,0-8.678-3.471-8.678-8.678l0,0c0-5.207,3.471-8.678,8.678-8.678
		h69.424c5.207,0,8.678,3.471,8.678,8.678l0,0C195.254,135.376,191.783,138.847,186.576,138.847z"/>
	<path style="fill:#7E3B04;" d="M308.068,138.847h-78.102c-5.207,0-8.678-3.471-8.678-8.678l0,0c0-5.207,3.471-8.678,8.678-8.678
		h78.102c5.207,0,8.678,3.471,8.678,8.678l0,0C316.746,135.376,313.275,138.847,308.068,138.847z"/>
	<path style="fill:#7E3B04;" d="M238.644,173.559H117.153c-5.207,0-8.678-3.471-8.678-8.678l0,0c0-5.207,3.471-8.678,8.678-8.678
		h121.492c5.207,0,8.678,3.471,8.678,8.678l0,0C247.322,170.088,243.851,173.559,238.644,173.559z"/>
	<path style="fill:#7E3B04;" d="M308.068,173.559h-26.034c-5.207,0-8.678-3.471-8.678-8.678l0,0c0-5.207,3.471-8.678,8.678-8.678
		h26.034c5.207,0,8.678,3.471,8.678,8.678l0,0C316.746,170.088,313.275,173.559,308.068,173.559z"/>
	<path style="fill:#7E3B04;" d="M186.576,208.271h-69.424c-5.207,0-8.678-3.471-8.678-8.678l0,0c0-5.207,3.471-8.678,8.678-8.678
		h69.424c5.207,0,8.678,3.471,8.678,8.678l0,0C195.254,204.8,191.783,208.271,186.576,208.271z"/>
	<path style="fill:#7E3B04;" d="M308.068,208.271h-78.102c-5.207,0-8.678-3.471-8.678-8.678l0,0c0-5.207,3.471-8.678,8.678-8.678
		h78.102c5.207,0,8.678,3.471,8.678,8.678l0,0C316.746,204.8,313.275,208.271,308.068,208.271z"/>
	<path style="fill:#7E3B04;" d="M238.644,242.983H117.153c-5.207,0-8.678-3.471-8.678-8.678l0,0c0-5.207,3.471-8.678,8.678-8.678
		h121.492c5.207,0,8.678,3.471,8.678,8.678l0,0C247.322,239.512,243.851,242.983,238.644,242.983z"/>
	<path style="fill:#7E3B04;" d="M308.068,242.983h-26.034c-5.207,0-8.678-3.471-8.678-8.678l0,0c0-5.207,3.471-8.678,8.678-8.678
		h26.034c5.207,0,8.678,3.471,8.678,8.678l0,0C316.746,239.512,313.275,242.983,308.068,242.983z"/>
	<path style="fill:#7E3B04;" d="M308.068,277.695h-86.78c-5.207,0-8.678-3.471-8.678-8.678l0,0c0-5.207,3.471-8.678,8.678-8.678
		h86.78c5.207,0,8.678,3.471,8.678,8.678l0,0C316.746,274.224,313.275,277.695,308.068,277.695z"/>
	<path style="fill:#7E3B04;" d="M117.153,104.136L117.153,104.136c-5.207,0-8.678-3.471-8.678-8.678l0,0
		c0-5.207,3.471-8.678,8.678-8.678l0,0c5.207,0,8.678,3.471,8.678,8.678l0,0C125.831,100.664,122.359,104.136,117.153,104.136z"/>
	<path style="fill:#7E3B04;" d="M151.864,104.136L151.864,104.136c-5.207,0-8.678-3.471-8.678-8.678l0,0
		c0-5.207,3.471-8.678,8.678-8.678l0,0c5.207,0,8.678,3.471,8.678,8.678l0,0C160.542,100.664,157.071,104.136,151.864,104.136z"/>
	<path style="fill:#7E3B04;" d="M186.576,104.136L186.576,104.136c-5.207,0-8.678-3.471-8.678-8.678l0,0
		c0-5.207,3.471-8.678,8.678-8.678l0,0c5.207,0,8.678,3.471,8.678,8.678l0,0C195.254,100.664,191.783,104.136,186.576,104.136z"/>
</g>
<g style="opacity:0.3;enable-background:new    ;">
	<rect x="4.339" y="373.153" width="503.322" height="17.356"/>
</g>
<path style="fill:#DDDDDB;" d="M264.678,425.22h-17.356c-5.207,0-8.678-3.471-8.678-8.678l0,0c0-5.207,3.471-8.678,8.678-8.678
	h17.356c5.207,0,8.678,3.471,8.678,8.678l0,0C273.356,421.749,269.885,425.22,264.678,425.22z"/>
<g style="opacity:0.3;enable-background:new    ;">
	<polygon points="169.22,451.254 177.898,459.932 334.102,459.932 342.78,451.254 	"/>
</g>
<g style="enable-background:new    ;">
	<g style="opacity:0.3;">
		<polygon points="177.898,485.966 169.22,494.644 342.78,494.644 334.102,485.966 		"/>
	</g>
	<g style="opacity:0.3;">
		<path d="M351.458,329.763H99.797v-17.356H342.78V95.458h17.356v225.627C360.136,326.292,356.664,329.763,351.458,329.763z"/>
	</g>
</g>
<g>
</g>
<g>
</g>
<g>
</g>
<g>
</g>
<g>
</g>
<g>
</g>
<g>
</g>
<g>
</g>
<g>
</g>
<g>
</g>
<g>
</g>
<g>
</g>
<g>
</g>
<g>
</g>
<g>
</g>
</svg>
