<svg id="Capa_1" enable-background="new 0 0 512 512" height="512" viewBox="0 0 512 512" width="512" xmlns="http://www.w3.org/2000/svg"><g><g><path d="m236 133c-55.137 0-100 44.863-100 100v149h40v-149c0-33.086 26.914-60 60-60h40v-40z" fill="#fff"/><path d="m216 442v-60h-120v120h320c0-33.137-26.863-60-60-60z" fill="#ccffb3"/><path d="m276 70h100v186h-100z" fill="#ccffb3"/><g fill="#9affbc"><path d="m296 10h60v60h-60z"/><path d="m296 256h60v60h-60z"/></g></g><g><g fill="#53d0a6"><path d="m126 372h-30c-5.523 0-10 4.477-10 10v120c0 5.523 4.477 10 10 10h320c5.522 0 10-4.477 10-10 0-38.598-31.402-70-70-70h-130v-40h140c5.522 0 10-4.477 10-10s-4.478-10-10-10c-7.853 0-171.408 0-180 0v-139c0-27.57 22.43-50 50-50h30v73c0 5.523 4.478 10 10 10h10v50c0 5.523 4.478 10 10 10h60c5.522 0 10-4.477 10-10v-50h10c5.522 0 10-4.477 10-10v-186c0-5.523-4.478-10-10-10h-10v-50c0-5.523-4.478-10-10-10h-60c-5.522 0-10 4.477-10 10v50h-10c-5.522 0-10 4.477-10 10v53h-30c-60.654 0-110 49.346-110 110zm90 80h140c24.146 0 44.35 17.206 48.995 40h-298.995v-100h100v50c0 5.523 4.477 10 10 10zm130-146h-40v-40h40zm-40-286h40v40h-40zm-20 60h80v166h-80zm-50 63h30v20h-30c-38.598 0-70 31.402-70 70v139h-20v-139c0-49.626 40.374-90 90-90z"/><circle cx="156" cy="442" r="10"/></g></g></g></svg>