<svg id="Capa_1" enable-background="new 0 0 510 510" height="512" viewBox="0 0 510 510" width="512" xmlns="http://www.w3.org/2000/svg"><g id="XMLID_2207_"><path id="XMLID_2205_" d="m213.035 51.522c-48.656-48.658-127.828-48.656-176.484 0-48.656 48.657-48.656 127.828 0 176.484l204.695 204.695 10-197.551-10-155.416z" fill="#ff8066"/><path id="XMLID_2204_" d="m445.941 51.522c-48.656-48.657-127.827-48.658-176.483 0l-28.212 28.212v352.968l204.695-204.695c48.658-48.657 48.658-127.828 0-176.485z" fill="#ff4d4d"/><g id="XMLID_2227_"><g><g id="XMLID_98_"><path d="m300 284.971h210v210h-210z" fill="#6aa9ff"/></g></g></g><path id="XMLID_2202_" d="m450 374.971h-30v-30h-30v30h-30v30h30v30h30v-30h30z" fill="#ece6f2"/><path id="XMLID_2201_" d="m197.879 148.61-40.907 61.361h-135.315-21.657v30h173.027l19.094-28.639 49.125 110.357 10-36.719-10-36.73z" fill="#fff5f5"/><path id="XMLID_2200_" d="m258.447 209.971-17.201 38.27v73.449l36.307-81.719h232.447v-30z" fill="#ece6f2"/></g></svg>