<svg id="Capa_1" enable-background="new 0 0 512 512" height="512" viewBox="0 0 512 512" width="512" xmlns="http://www.w3.org/2000/svg"><g><path d="m316 106c-24.814 0-45 20.186-45 45v30h90v-30c0-24.814-20.186-45-45-45z" fill="#e62e77"/><path d="m387.455 166h-71.455l-15 29.604v90.396l16.421 30h127.421l30.438-30-47.571-95.127c-7.676-15.337-23.101-24.873-40.254-24.873z" fill="#39326c"/><path d="m512 331c0-3.984-1.582-7.793-4.395-10.605l-32.325-34.395h-174.28v150l15 30h181c8.291 0 15-6.709 15-15v-75l-31-15 31-15z" fill="#e62e77"/><path d="m316 346-30 14.7 30 15.3v90h-301c-8.401 0-15-6.599-15-15v-75l30-16.199-30-13.801v-135c0-24.901 20.099-45 45-45h271z" fill="#f3f5f9"/><path d="m316 346-30 14.7 30 15.3v90h-150v-300h150z" fill="#e2dff4"/><path d="m0 346h316v30h-316z" fill="#ff6b6b"/><path d="m451 361c0 8.291 6.709 15 15 15h46v-30h-46c-8.291 0-15 6.709-15 15z" fill="#ffc178"/><path d="m106 496c-24.814 0-45-20.186-45-45s20.186-45 45-45 45 20.186 45 45-20.186 45-45 45z" fill="#51489a"/><path d="m406 496c-24.814 0-45-20.186-45-45s20.186-45 45-45 45 20.186 45 45-20.186 45-45 45z" fill="#39326c"/><path d="m211 271c0 8.401-6.599 15-15 15h-15v15c0 8.401-6.599 15-15 15s-15-6.599-15-15v-15h-15c-8.401 0-15-6.599-15-15s6.599-15 15-15h15v-15c0-8.401 6.599-15 15-15s15 6.599 15 15v15h15c8.401 0 15 6.599 15 15z" fill="#ff6b6b"/><g fill="#fcdf77"><path d="m316 76c-8.291 0-15-6.709-15-15v-30c0-8.291 6.709-15 15-15s15 6.709 15 15v30c0 8.291-6.709 15-15 15z"/><path d="m241.762 97.973-21.226-21.226c-5.859-5.859-5.859-15.352 0-21.211s15.352-5.859 21.211 0l21.226 21.226c5.859 5.859 5.859 15.352 0 21.211-5.86 5.859-15.352 5.859-21.211 0z"/><path d="m369.027 97.973c-5.859-5.859-5.859-15.352 0-21.211l21.226-21.226c5.859-5.859 15.352-5.859 21.211 0s5.859 15.352 0 21.211l-21.226 21.226c-5.859 5.859-15.351 5.859-21.211 0z"/></g><circle cx="106" cy="451" fill="#f3f5f9" r="15"/><circle cx="406" cy="451" fill="#e2dff4" r="15"/><path d="m166 316v-90c8.401 0 15 6.599 15 15v15h15c8.401 0 15 6.599 15 15s-6.599 15-15 15h-15v15c0 8.401-6.599 15-15 15z" fill="#e62e77"/><path d="m166 346h150v30h-150z" fill="#e62e77"/></g></svg>